STARTFONT 2.3
FONT -FontForge-STIX Two Math-Book-R-Normal--16-160-72-72-P-110-ISO10646-1
SIZE 16 72 72  4
FONTBOUNDINGBOX 66 70 -16 -27
COMMENT "Generated by fontforge, http://fontforge.sourceforge.net"
COMMENT "Copyright 2001-2021 The STIX Fonts Project Authors (https://github.com/stipub/stixfonts)"
STARTPROPERTIES 41
FOUNDRY "FontForge"
FAMILY_NAME "STIX Two Math"
WEIGHT_NAME "Book"
SLANT "R"
SETWIDTH_NAME "Normal"
ADD_STYLE_NAME ""
PIXEL_SIZE 16
POINT_SIZE 160
RESOLUTION_X 72
RESOLUTION_Y 72
SPACING "P"
AVERAGE_WIDTH 110
CHARSET_REGISTRY "ISO10646"
CHARSET_ENCODING "1"
FONTNAME_REGISTRY ""
CHARSET_COLLECTIONS "ASCII ISOLatin1Encoding ISO8859-2 ISO8859-5 ISO8859-7 ISO8859-9 ISO8859-4 ISO10646-1"
BITS_PER_PIXEL 4
FONT_NAME "STIXTwoMath-Regular"
FACE_NAME "STIX Two Math Regular"
COPYRIGHT "Copyright 2001-2021 The STIX Fonts Project Authors (https://github.com/stipub/stixfonts)"
FONT_VERSION "2.12 b168a"
FONT_ASCENT 12
FONT_DESCENT 4
UNDERLINE_POSITION -2
UNDERLINE_THICKNESS 1
X_HEIGHT 7
CAP_HEIGHT 10
RAW_ASCENT 762
RAW_DESCENT 238
NORM_SPACE 4
RELATIVE_WEIGHT 40
RELATIVE_SETWIDTH 50
SUPERSCRIPT_X 0
SUPERSCRIPT_Y 8
SUPERSCRIPT_SIZE 8
SUBSCRIPT_X 0
SUBSCRIPT_Y 4
SUBSCRIPT_SIZE 8
FIGURE_WIDTH 8
AVG_LOWERCASE_WIDTH 79
AVG_UPPERCASE_WIDTH 108
ENDPROPERTIES
CHARS 6611
STARTCHAR space
ENCODING 32
SWIDTH 235 0
DWIDTH 4 0
BBX 1 1 0 0
BITMAP
00
ENDCHAR
STARTCHAR exclam
ENCODING 33
SWIDTH 283 0
DWIDTH 5 0
BBX 3 11 1 0
BITMAP
6D00
9F10
8F00
6E00
5D00
4B00
3A00
1900
0100
6D10
7E10
ENDCHAR
STARTCHAR quotedbl
ENCODING 34
SWIDTH 334 0
DWIDTH 5 0
BBX 5 3 0 8
BITMAP
3F2C80
2D0C40
290B00
ENDCHAR
STARTCHAR numbersign
ENCODING 35
SWIDTH 702 0
DWIDTH 11 0
BBX 11 11 0 0
BITMAP
0000E003A000
0003B0068000
000590085000
08BDDBBECB40
000A400D1000
000C200E0000
000D001D0000
1BBFBBCEBB00
003B00680000
006800860000
008600B40000
ENDCHAR
STARTCHAR dollar
ENCODING 36
SWIDTH 495 0
DWIDTH 8 0
BBX 8 13 0 -2
BITMAP
04BCCB50
2E2644D0
5E064090
3F974000
07FF7000
004DFC10
00069ED0
310644F4
750641F5
7C1645E1
19DDDA30
00064000
00032000
ENDCHAR
STARTCHAR percent
ENCODING 37
SWIDTH 692 0
DWIDTH 11 0
BBX 11 11 0 0
BITMAP
02BB9103C200
0C609BBA7000
2F00711C0000
4D0090850000
2E1482B00000
08C80A28C800
0000487B0630
0000B1D40350
000750F20630
001B00E31A00
0093006DB200
ENDCHAR
STARTCHAR ampersand
ENCODING 38
SWIDTH 736 0
DWIDTH 12 0
BBX 12 11 0 0
BITMAP
0007CC700000
004D00D10000
006D00C20000
003F25A00000
000DD808DDA0
006BF200C800
0990CB00B000
4F103F674000
7F0008E80000
5F4004ED3023
08DBA718EB70
ENDCHAR
STARTCHAR quotesingle
ENCODING 39
SWIDTH 187 0
DWIDTH 3 0
BBX 3 3 0 8
BITMAP
3F20
2D00
2900
ENDCHAR
STARTCHAR parenleft
ENCODING 40
SWIDTH 357 0
DWIDTH 6 0
BBX 6 15 0 -3
BITMAP
000061
000A40
009500
05C000
0B7000
1F3000
3F2000
4F1000
4F1000
2F3000
0D6000
08A000
01C200
002B10
000291
ENDCHAR
STARTCHAR parenright
ENCODING 41
SWIDTH 357 0
DWIDTH 6 0
BBX 5 15 0 -3
BITMAP
440000
077000
00A500
002E10
000C70
0008B0
0006E0
0005F0
0006E0
0007C0
000A90
000E30
006900
03B000
381000
ENDCHAR
STARTCHAR asterisk
ENCODING 42
SWIDTH 410 0
DWIDTH 7 0
BBX 6 6 0 5
BITMAP
003B00
4C3A6C
179B94
169B94
4C3A5C
003B00
ENDCHAR
STARTCHAR plus
ENCODING 43
SWIDTH 720 0
DWIDTH 12 0
BBX 10 11 1 -1
BITMAP
0000830000
0000C50000
0000C50000
0000C50000
0000C50000
BBBBEDBBB6
0000C50000
0000C50000
0000C50000
0000C50000
0000420000
ENDCHAR
STARTCHAR comma
ENCODING 44
SWIDTH 245 0
DWIDTH 4 0
BBX 4 5 0 -3
BITMAP
0BA0
1EF1
00B0
0750
0100
ENDCHAR
STARTCHAR hyphen
ENCODING 45
SWIDTH 315 0
DWIDTH 5 0
BBX 5 1 0 4
BITMAP
3BBB40
ENDCHAR
STARTCHAR period
ENCODING 46
SWIDTH 245 0
DWIDTH 4 0
BBX 2 2 1 0
BITMAP
BA
CB
ENDCHAR
STARTCHAR slash
ENCODING 47
SWIDTH 386 0
DWIDTH 6 0
BBX 6 13 0 -2
BITMAP
000067
0000B2
0001C0
000670
000B30
001C00
005800
00A300
01D000
059000
0A4000
0D0000
490000
ENDCHAR
STARTCHAR zero
ENCODING 48
SWIDTH 495 0
DWIDTH 8 0
BBX 8 11 0 0
BITMAP
009CC800
09B00C70
2F4006E1
5F1003F4
8F0002F6
8F0001F7
7F0001F6
5F1003F4
1F4006E0
0AB00C80
019CC800
ENDCHAR
STARTCHAR one
ENCODING 49
SWIDTH 495 0
DWIDTH 8 0
BBX 6 11 1 0
BITMAP
27BB00
64CB00
00AB00
00AB00
00AB00
00AB00
00AB00
00AB00
00AB00
00CD00
8DFFE9
ENDCHAR
STARTCHAR two
ENCODING 50
SWIDTH 495 0
DWIDTH 8 0
BBX 8 11 0 0
BITMAP
029BD800
09002E80
12000AD0
000009D0
00000C90
00004E20
0001D500
000B6000
00970023
07A223A3
4FFFFFF0
ENDCHAR
STARTCHAR three
ENCODING 51
SWIDTH 495 0
DWIDTH 8 0
BBX 7 11 1 0
BITMAP
19BD8000
8103F400
1000E700
0001E200
001B4000
05EFB100
0004EC00
00006F10
00004E00
63009600
BFB95000
ENDCHAR
STARTCHAR four
ENCODING 52
SWIDTH 495 0
DWIDTH 8 0
BBX 8 11 0 0
BITMAP
00004F10
0001DF10
00098F10
00475F10
01B05F10
09305F10
58005F10
ACBBDFC8
00005F10
00005F10
00005F10
ENDCHAR
STARTCHAR five
ENCODING 53
SWIDTH 495 0
DWIDTH 8 0
BBX 7 11 1 0
BITMAP
08FFFC00
09333200
0A000000
38000000
6FEC6000
1349F800
00007E00
00002F10
00002E00
73009600
BFCA5000
ENDCHAR
STARTCHAR six
ENCODING 54
SWIDTH 495 0
DWIDTH 8 0
BBX 8 11 0 0
BITMAP
00029A50
005E6000
03F50000
0BB00000
1F79C910
3F901BC0
4F3003F3
3F4002F4
0E6003F3
08C108C0
008CBB20
ENDCHAR
STARTCHAR seven
ENCODING 55
SWIDTH 495 0
DWIDTH 8 0
BBX 8 10 0 0
BITMAP
0CFFFFF5
1A3333E1
22000690
00000C30
00004D00
0000A700
0002E100
0008A000
000E4000
005D0000
ENDCHAR
STARTCHAR eight
ENCODING 56
SWIDTH 495 0
DWIDTH 8 0
BBX 8 11 0 0
BITMAP
02ACC910
0C700A90
0F4007B0
0DA00970
04FB7700
006EE600
05908F70
1E1008F0
3F1003F2
1E6007D0
03BCCA20
ENDCHAR
STARTCHAR nine
ENCODING 57
SWIDTH 495 0
DWIDTH 8 0
BBX 8 11 0 0
BITMAP
02BBC800
0D801D70
3F2007E0
5F1005F2
3F2004F3
0DA00AF2
02AC98F0
00000AA0
00004F40
0004E700
05AA3000
ENDCHAR
STARTCHAR colon
ENCODING 58
SWIDTH 245 0
DWIDTH 4 0
BBX 2 8 1 0
BITMAP
BA
CB
00
00
00
00
BA
CB
ENDCHAR
STARTCHAR semicolon
ENCODING 59
SWIDTH 245 0
DWIDTH 4 0
BBX 4 11 0 -3
BITMAP
0BA0
0CB0
0000
0000
0000
0000
0BA0
1EF1
00B0
0750
0100
ENDCHAR
STARTCHAR less
ENCODING 60
SWIDTH 720 0
DWIDTH 12 0
BBX 10 10 1 -1
BITMAP
0000000054
0000005CC3
00005DC400
006DC40000
6DC4000000
29E9200000
0018E92000
000018E920
00000017E5
0000000012
ENDCHAR
STARTCHAR equal
ENCODING 61
SWIDTH 720 0
DWIDTH 12 0
BBX 10 5 1 2
BITMAP
BBBBBBBBB6
0000000000
0000000000
0000000000
BBBBBBBBB6
ENDCHAR
STARTCHAR greater
ENCODING 62
SWIDTH 720 0
DWIDTH 12 0
BBX 10 10 1 -1
BITMAP
7200000000
7E92000000
018E920000
00018EA200
0000018FA2
000005CD50
0005CC5000
05CC400000
BB40000000
3000000000
ENDCHAR
STARTCHAR question
ENCODING 63
SWIDTH 411 0
DWIDTH 7 0
BBX 7 11 0 0
BITMAP
07BCB300
5C009E00
7E005F20
15006E00
0000B700
0004B000
000B2000
000A0000
00010000
005C0000
007D1000
ENDCHAR
STARTCHAR at
ENCODING 64
SWIDTH 905 0
DWIDTH 14 0
BBX 13 14 1 -3
BITMAP
00039BBB930000
009B40005C7000
0990000001C600
3D104BB3C03E00
A703E20AF00C40
E40A8004F00960
F20E5004F00870
F20F4004F00960
E40E5004F00C30
A80BA00AF03B00
5D12CC92CCB200
0AA00000000000
01AB4000144000
00049BBB950000
ENDCHAR
STARTCHAR A
ENCODING 65
SWIDTH 718 0
DWIDTH 11 0
BBX 12 11 0 0
BITMAP
00000D300000
00004F900000
0000BBF10000
0002C3F70000
000870DE0000
001E107F5000
006A002FC000
00CDBBBEF300
03D00005FA00
0B700000DF30
CFE5000AFFE5
ENDCHAR
STARTCHAR B
ENCODING 66
SWIDTH 618 0
DWIDTH 10 0
BBX 10 11 0 0
BITMAP
4CFECDD800
00E9005F80
00D9000DB0
00D9000D90
00D9005B10
00DEBEE710
00D9004EC0
00D90007F4
00D90006F4
00E9001CD1
4CFEBCD920
ENDCHAR
STARTCHAR C
ENCODING 67
SWIDTH 670 0
DWIDTH 11 0
BBX 10 11 0 0
BITMAP
0006BBCFFB
00AC2002DB
07F300004B
0DB000000A
1F90000000
3F70000000
2F80000000
0DB0000000
08F2000002
01CD300059
0017DCBA60
ENDCHAR
STARTCHAR D
ENCODING 68
SWIDTH 730 0
DWIDTH 12 0
BBX 11 11 0 0
BITMAP
4BFEBCDA3000
00E90019F700
00D900009F30
00D900002F90
00D900000DC0
00D900000CD0
00D900000DB0
00D900001F90
00D900007F30
00E90017F600
4CFEBCD93000
ENDCHAR
STARTCHAR E
ENCODING 69
SWIDTH 626 0
DWIDTH 10 0
BBX 10 11 0 0
BITMAP
3AFDBBBDF0
00E90000B0
00D9000030
00D9000800
00D9001B00
00DEBBEC00
00D9000900
00D9000002
00D9000037
00E90000B5
3AFDBBBEF3
ENDCHAR
STARTCHAR F
ENCODING 70
SWIDTH 588 0
DWIDTH 9 0
BBX 10 11 0 0
BITMAP
3AFDBBBDF2
00E90000A2
00D9000031
00D9000900
00D9002B00
00DEBBEB00
00D9001A00
00D9000000
00D9000000
00EA000000
5DFFC30000
ENDCHAR
STARTCHAR G
ENCODING 71
SWIDTH 720 0
DWIDTH 12 0
BBX 11 11 0 0
BITMAP
0006CBCFFC00
00BC2002DC00
07F300004C00
0DB000000A00
1F9000000000
3F70000CDDC0
2F800000BE00
0EB000009D00
09F200009D00
01DC2001CD00
0018DCCC8100
ENDCHAR
STARTCHAR H
ENCODING 72
SWIDTH 777 0
DWIDTH 12 0
BBX 13 11 0 0
BITMAP
2CFFD406EFFC10
00CE00001FA000
00AC00000E8000
00AC00000E8000
00AC00000E8000
00AEBBBBBF8000
00AC00000E8000
00AC00000E8000
00AC00000E8000
00BD00001F9000
2CFFD406DFFC10
ENDCHAR
STARTCHAR I
ENCODING 73
SWIDTH 357 0
DWIDTH 6 0
BBX 6 11 0 0
BITMAP
5DFFC2
01EA00
00D900
00D900
00D900
00D900
00D900
00D900
00D900
01EA00
5DFFC2
ENDCHAR
STARTCHAR J
ENCODING 74
SWIDTH 396 0
DWIDTH 6 0
BBX 6 11 0 0
BITMAP
06DFFC
001FA0
000E80
000E80
000E80
000E80
000E80
000E80
100E80
E81F50
8EC900
ENDCHAR
STARTCHAR K
ENCODING 75
SWIDTH 702 0
DWIDTH 11 0
BBX 12 11 0 0
BITMAP
5DFFC25EFE50
01EA000BB100
00D900690000
00D906800000
00D977000000
00DDF5000000
00D98F500000
00D908F50000
00D9008F6000
01EA000BF700
5DFFC25EFFD2
ENDCHAR
STARTCHAR L
ENCODING 76
SWIDTH 585 0
DWIDTH 9 0
BBX 9 11 0 0
BITMAP
4DFFD20000
01EB000000
00D9000000
00D9000000
00D9000000
00D9000000
00D9000000
00D9000020
00D90000A0
00E90004C0
3BFFCBCFA0
ENDCHAR
STARTCHAR M
ENCODING 77
SWIDTH 895 0
DWIDTH 14 0
BBX 14 11 0 0
BITMAP
6EFE000000AFE7
02FF500001FF40
00CEC00007BF30
00B9F3000D5F30
00B3F9004A4F30
00B0BE10A44F30
00B05F62C04F30
00B00DC7604F30
01B007FE104F30
02D001F9005F40
6EFD209308EFE7
ENDCHAR
STARTCHAR N
ENCODING 78
SWIDTH 742 0
DWIDTH 12 0
BBX 12 11 0 0
BITMAP
6EF80004DFE5
03FF40001E30
00DEE2000C00
00B5FB000C00
00B09F800C00
00B00CF40C00
00B002EE1C00
00B0004FBC00
01B00007FF00
02D00000BF00
6EFD20001D00
ENDCHAR
STARTCHAR O
ENCODING 79
SWIDTH 738 0
DWIDTH 12 0
BBX 11 11 0 0
BITMAP
0006CBCC5000
00BC2004E900
07F300005F50
0DB000000EB0
1F9000000BE0
2F8000000AF0
1F9000000BE0
0DC000000EA0
08F200004F40
00BC1002D800
0007CBBB5000
ENDCHAR
STARTCHAR P
ENCODING 80
SWIDTH 569 0
DWIDTH 9 0
BBX 9 11 0 0
BITMAP
29FDABC600
00E9005F60
00D9000EA0
00D9000F80
00D9007E20
00DDAA7100
00D9000000
00D9000000
00D9000000
00EB000000
3DFFC20000
ENDCHAR
STARTCHAR Q
ENCODING 81
SWIDTH 737 0
DWIDTH 12 0
BBX 12 14 0 -3
BITMAP
0006CBCB5000
00BC2004E900
07F200005F40
0DB000000EB0
1F9000000BD0
3F8000000BE0
2F9000000BD0
0EB000000EA0
09F200004F40
01DC1002D800
0019DCCC5000
000003FC1000
0000008FC300
00000005ACD5
ENDCHAR
STARTCHAR R
ENCODING 82
SWIDTH 659 0
DWIDTH 11 0
BBX 11 11 0 0
BITMAP
2AFDABC70000
00E9004F7000
00D9000EB000
00D9000F9000
00D9019D2000
00DDBF710000
00D90CD10000
00D903FA0000
00D9008F5000
00EB001DE200
4DFFC205FE70
ENDCHAR
STARTCHAR S
ENCODING 83
SWIDTH 504 0
DWIDTH 8 0
BBX 8 11 0 0
BITMAP
03BCDFE0
1E6004F0
3F3000A0
1FB10000
06FD5000
004DFB20
00007FD1
000005F7
640000F7
6C1004F3
5FECCC50
ENDCHAR
STARTCHAR T
ENCODING 84
SWIDTH 603 0
DWIDTH 10 0
BBX 10 11 0 0
BITMAP
9FCBFDBDF4
A300E80095
8000E80035
0000E80000
0000E80000
0000E80000
0000E80000
0000E80000
0000E80000
0001FA0000
006DFFC200
ENDCHAR
STARTCHAR U
ENCODING 85
SWIDTH 752 0
DWIDTH 12 0
BBX 12 11 0 0
BITMAP
8EFFB002DFF9
03F700000C60
02F500000A40
02F500000A40
02F500000A40
02F500000A40
02F500000A30
01F600000B30
00E900000D00
007E30008800
0007CCBB7000
ENDCHAR
STARTCHAR V
ENCODING 86
SWIDTH 680 0
DWIDTH 11 0
BBX 12 11 -1 0
BITMAP
2DFFD1004EFD
01DF200005C0
006F60000940
000EC0001C00
0008F3006700
0002F900C100
0000AE13A000
00004F584000
00000DBB0000
000007F70000
000001E10000
ENDCHAR
STARTCHAR W
ENCODING 87
SWIDTH 944 0
DWIDTH 15 0
BBX 17 11 -1 0
BITMAP
2EFFC09FFE502DFD10
01DF0007F40003D000
006F4001E900058000
001EA000BE000A3000
0009F101DF501C0000
0004F6066DB0580000
0000DC0B17F1A20000
00007F5A02F7C00000
00001FE400BE700000
00000AD0005F200000
00000480001B000000
ENDCHAR
STARTCHAR X
ENCODING 88
SWIDTH 664 0
DWIDTH 11 0
BBX 11 11 0 0
BITMAP
9FFF803DFE50
03FD0007B100
007F501C1000
000CD1A30000
0002EC600000
00009F400000
0003ABD10000
001C22FA0000
00A5007F5000
08A0001FE200
CFE600BFFE70
ENDCHAR
STARTCHAR Y
ENCODING 89
SWIDTH 647 0
DWIDTH 10 0
BBX 12 11 -1 0
BITMAP
1DFFD201DFE5
00AF40002D10
001DC0009300
0004F7039000
0000AE1B1000
00002ED60000
000008F00000
000008E00000
000008E00000
000009F10000
0001CFFE7000
ENDCHAR
STARTCHAR Z
ENCODING 90
SWIDTH 594 0
DWIDTH 10 0
BBX 9 11 0 0
BITMAP
0DECBBCFD0
0D10008F40
080003F900
00000DD100
00008F4000
0003F90000
000CD10000
008F400010
03FA000090
0CE10003C0
7FDBBBCFA0
ENDCHAR
STARTCHAR bracketleft
ENCODING 91
SWIDTH 349 0
DWIDTH 6 0
BBX 4 16 1 -4
BITMAP
7DB9
8B00
8B00
8B00
8B00
8B00
8B00
8B00
8B00
8B00
8B00
8B00
8B00
8B00
8B00
8EB9
ENDCHAR
STARTCHAR backslash
ENCODING 92
SWIDTH 385 0
DWIDTH 6 0
BBX 6 13 0 -2
BITMAP
490000
0D0000
0A4000
058000
01D000
00A300
005800
001C00
000B20
000670
0001C0
0000B2
000066
ENDCHAR
STARTCHAR bracketright
ENCODING 93
SWIDTH 349 0
DWIDTH 6 0
BBX 5 16 0 -4
BITMAP
2BCD20
002F20
002F20
002F20
002F20
002F20
002F20
002F20
002F20
002F20
002F20
002F20
002F20
002F20
002F20
2BCF20
ENDCHAR
STARTCHAR asciicircum
ENCODING 94
SWIDTH 480 0
DWIDTH 8 0
BBX 8 6 0 5
BITMAP
000D8000
005AD100
00C27700
04A01D10
0B300870
4A0001D1
ENDCHAR
STARTCHAR underscore
ENCODING 95
SWIDTH 512 0
DWIDTH 8 0
BBX 9 1 0 -2
BITMAP
BBBBBBBB20
ENDCHAR
STARTCHAR grave
ENCODING 96
SWIDTH 222 0
DWIDTH 4 0
BBX 3 3 0 9
BITMAP
4700
1D60
02B0
ENDCHAR
STARTCHAR a
ENCODING 97
SWIDTH 480 0
DWIDTH 8 0
BBX 8 8 0 0
BITMAP
04BBD500
0E607E00
0A203F20
00038F20
05B64F20
3F203F20
5F204F20
1BD93DB3
ENDCHAR
STARTCHAR b
ENCODING 98
SWIDTH 522 0
DWIDTH 8 0
BBX 8 11 0 0
BITMAP
6D900000
0B900000
0B900000
0B97BE70
0BD103F5
0B9000CA
0B9000BC
0B9000BB
0B9000D7
0BB005D1
05CDBA20
ENDCHAR
STARTCHAR c
ENCODING 99
SWIDTH 446 0
DWIDTH 7 0
BBX 7 8 0 0
BITMAP
019CDA10
0B703F70
3E000740
6C000000
7D000000
4F200000
0DA00270
02BDB700
ENDCHAR
STARTCHAR d
ENCODING 100
SWIDTH 539 0
DWIDTH 9 0
BBX 9 11 0 0
BITMAP
00002AE100
000004F100
000004F100
008CCCF100
0AA008F100
2F2004F100
6F0004F100
7F0004F100
5F1004F100
1E8005F200
04DC98E810
ENDCHAR
STARTCHAR e
ENCODING 101
SWIDTH 464 0
DWIDTH 7 0
BBX 7 8 0 0
BITMAP
01ABD700
0C502F40
4E000BA0
6EBBBCB0
6D000000
4F200000
0CB00170
01ADB810
ENDCHAR
STARTCHAR f
ENCODING 102
SWIDTH 307 0
DWIDTH 5 0
BBX 6 11 0 0
BITMAP
006BEB
02F037
05E000
7DFBA0
06E000
06E000
06E000
06E000
06E000
07F100
8FFE70
ENDCHAR
STARTCHAR g
ENCODING 103
SWIDTH 484 0
DWIDTH 8 0
BBX 8 12 0 -4
BITMAP
03BCEFC6
0D803F50
2F400D90
1F400D80
05A02F30
09BCB500
3F522100
0BFFFFC1
1A0002B6
89000065
8D1002A1
1BEB9710
ENDCHAR
STARTCHAR h
ENCODING 104
SWIDTH 577 0
DWIDTH 9 0
BBX 9 11 0 0
BITMAP
4BD0000000
06E0000000
06E0000000
06E49DB100
06F501E700
06E000AA00
06E0009B00
06E0009B00
06E0009B00
07E000AC00
6EFD19FFB0
ENDCHAR
STARTCHAR i
ENCODING 105
SWIDTH 285 0
DWIDTH 5 0
BBX 5 11 0 0
BITMAP
06E100
05C100
000000
4BE000
06E000
06E000
06E000
06E000
06E000
06F000
6EFD10
ENDCHAR
STARTCHAR j
ENCODING 106
SWIDTH 263 0
DWIDTH 4 0
BBX 6 15 -2 -4
BITMAP
0007D1
0006C1
000000
005BD0
0007E0
0006E0
0006E0
0006E0
0006E0
0006E0
0006E0
0006E0
0006C0
5B0880
3DC910
ENDCHAR
STARTCHAR k
ENCODING 107
SWIDTH 542 0
DWIDTH 9 0
BBX 9 11 0 0
BITMAP
3AD0000000
06E0000000
06E0000000
06E05EFD10
06E01C5000
06E1A30000
06EC600000
06E7F40000
06E08E3000
07E00AE300
6EFD1CFF70
ENDCHAR
STARTCHAR l
ENCODING 108
SWIDTH 283 0
DWIDTH 5 0
BBX 5 11 0 0
BITMAP
4BD000
07E000
06E000
06E000
06E000
06E000
06E000
06E000
06E000
07E000
6EFD20
ENDCHAR
STARTCHAR m
ENCODING 109
SWIDTH 852 0
DWIDTH 14 0
BBX 14 8 0 0
BITMAP
3BD39DC17BE600
06F601EC207E00
06E000C8003F10
06E000C8003F20
06E000C8003F20
06E000C8003F20
07F000DA005F30
6EFD2CFF94EFD3
ENDCHAR
STARTCHAR n
ENCODING 110
SWIDTH 576 0
DWIDTH 9 0
BBX 9 8 0 0
BITMAP
3BD49DB100
06F501D700
06E000AA00
06E0009B00
06E0009B00
06E0009B00
06F000AB00
6EFD2AFFB0
ENDCHAR
STARTCHAR o
ENCODING 111
SWIDTH 514 0
DWIDTH 8 0
BBX 8 8 0 0
BITMAP
019CCB30
0BA008E1
3F3001F7
6F1000D9
6F1000C9
3F3000E7
0BB005E1
01ADBB20
ENDCHAR
STARTCHAR p
ENCODING 112
SWIDTH 537 0
DWIDTH 9 0
BBX 8 12 0 -4
BITMAP
3BC5AEA1
07E401E8
07D0009D
07D0007F
07D0007E
07D000AB
07E302E4
07EBCC40
07D00000
07D00000
08E00000
8FFD5000
ENDCHAR
STARTCHAR q
ENCODING 113
SWIDTH 521 0
DWIDTH 8 0
BBX 9 12 0 -4
BITMAP
008CC9C100
09A009F100
2F2004F100
6E0004F100
7E0004F100
5F1004F100
1E8006F100
04CC99F100
000004F100
000004F100
000005F200
00009EFD10
ENDCHAR
STARTCHAR r
ENCODING 114
SWIDTH 380 0
DWIDTH 6 0
BBX 6 8 0 0
BITMAP
3AD2CB
07E879
06F100
06E000
06E000
06E000
06F100
6EFD50
ENDCHAR
STARTCHAR s
ENCODING 115
SWIDTH 395 0
DWIDTH 6 0
BBX 6 8 0 0
BITMAP
08CBA6
4D0086
4E3025
0AF910
004CE4
5200BC
59008C
5ACCB3
ENDCHAR
STARTCHAR t
ENCODING 116
SWIDTH 315 0
DWIDTH 5 0
BBX 5 10 0 0
BITMAP
00A000
08C000
4DEB70
08C000
08C000
08C000
08C000
08C000
07D030
02DB50
ENDCHAR
STARTCHAR u
ENCODING 117
SWIDTH 570 0
DWIDTH 9 0
BBX 9 8 0 0
BITMAP
5DC01AE800
09C000D800
08C000C800
08C000C800
08C000C800
08C000C800
05F204E800
00ADA5BC40
ENDCHAR
STARTCHAR v
ENCODING 118
SWIDTH 481 0
DWIDTH 8 0
BBX 9 8 -1 0
BITMAP
2EFD20AFD0
02F6000D00
00AC005700
004F20A100
000D81A000
0008D74000
0002FB0000
0000B70000
ENDCHAR
STARTCHAR w
ENCODING 119
SWIDTH 749 0
DWIDTH 12 0
BBX 14 8 -1 0
BITMAP
3EFD29FF707FE2
02F6009D000B30
00AC005F301B00
004F209D806500
000D8196E0A100
0008E631F69000
0002FB00AE3000
0000B6005C0000
ENDCHAR
STARTCHAR x
ENCODING 120
SWIDTH 479 0
DWIDTH 8 0
BBX 8 8 0 0
BITMAP
AFF72EF5
09E10A30
00C95600
003E9000
002CE200
01B1BC00
0A302F80
DF807FF9
ENDCHAR
STARTCHAR y
ENCODING 121
SWIDTH 483 0
DWIDTH 8 0
BBX 9 12 -1 -4
BITMAP
2EFD30AFC0
03F6001D00
00BC005700
004F40A200
000CA0A000
0005F66000
0000DD1000
00008A0000
0000940000
0001C00000
099B500000
0AE8000000
ENDCHAR
STARTCHAR z
ENCODING 122
SWIDTH 458 0
DWIDTH 7 0
BBX 7 8 0 0
BITMAP
3FBABFA0
38008E20
2203F600
000DB000
008E2000
03F60060
0CB003B0
6FCABEA0
ENDCHAR
STARTCHAR braceleft
ENCODING 123
SWIDTH 327 0
DWIDTH 5 0
BBX 5 16 0 -4
BITMAP
005B60
04E200
07B000
06C000
05D000
03E000
03D000
3A4000
5A2000
03C000
03E000
05D000
06C000
07B000
04D100
007C60
ENDCHAR
STARTCHAR bar
ENCODING 124
SWIDTH 267 0
DWIDTH 4 0
BBX 2 15 1 -4
BITMAP
59
59
59
59
59
59
59
59
59
59
59
59
59
59
59
ENDCHAR
STARTCHAR braceright
ENCODING 125
SWIDTH 327 0
DWIDTH 5 0
BBX 5 16 0 -4
BITMAP
3B7000
01C700
008A00
008A00
00A800
00B700
009600
002A50
001970
008700
00B700
00A800
008900
008A00
00B800
3C9100
ENDCHAR
STARTCHAR asciitilde
ENCODING 126
SWIDTH 557 0
DWIDTH 9 0
BBX 9 3 0 2
BITMAP
07CB733D30
4B016BC600
0100000000
ENDCHAR
STARTCHAR uni00A0
ENCODING 160
SWIDTH 235 0
DWIDTH 4 0
BBX 1 1 0 0
BITMAP
00
ENDCHAR
STARTCHAR exclamdown
ENCODING 161
SWIDTH 282 0
DWIDTH 5 0
BBX 3 12 1 -4
BITMAP
7E10
7D10
0000
1900
2A00
3B00
4C00
5D00
7F00
8F10
8F10
6D00
ENDCHAR
STARTCHAR cent
ENCODING 162
SWIDTH 495 0
DWIDTH 8 0
BBX 7 11 0 0
BITMAP
0000A000
0002B200
0198CF70
096299D0
1F128130
3F038000
3F237000
1E647010
08E86180
007DC910
00065000
ENDCHAR
STARTCHAR sterling
ENCODING 163
SWIDTH 495 0
DWIDTH 8 0
BBX 8 11 0 0
BITMAP
0006BEA0
004A04F5
00A80021
00C80000
00CA0000
2BEEBB00
009D0000
007C0000
006B0000
6BCA0025
8B98CB91
ENDCHAR
STARTCHAR currency
ENCODING 164
SWIDTH 617 0
DWIDTH 10 0
BBX 10 9 0 0
BITMAP
2A000001A1
09BABCAC70
00E5007D00
0590000B30
0670000950
04A0000C20
00E7008D00
0A98BB8A90
1700000081
ENDCHAR
STARTCHAR yen
ENCODING 165
SWIDTH 495 0
DWIDTH 8 0
BBX 8 11 0 0
BITMAP
DDD60ADB
3FB001D1
0AF10560
03F80A10
00AE2800
002FC200
09BEEBA0
000AC000
09BEEBA0
000BD000
00CFFC20
ENDCHAR
STARTCHAR brokenbar
ENCODING 166
SWIDTH 267 0
DWIDTH 4 0
BBX 2 12 1 -1
BITMAP
59
59
59
59
59
00
00
59
59
59
59
59
ENDCHAR
STARTCHAR section
ENCODING 167
SWIDTH 491 0
DWIDTH 8 0
BBX 6 15 1 -4
BITMAP
06CC90
3C00A5
5C00B6
2F7010
06F800
178F80
8307F4
A70099
6F4039
0BE582
00AF30
1109D0
B600E2
A401D1
2BBB50
ENDCHAR
STARTCHAR dieresis
ENCODING 168
SWIDTH 392 0
DWIDTH 6 0
BBX 6 2 0 9
BITMAP
4C10A7
5E20C9
ENDCHAR
STARTCHAR copyright
ENCODING 169
SWIDTH 781 0
DWIDTH 13 0
BBX 12 12 0 0
BITMAP
000168783000
004820005800
028000000380
0910788A8082
0905C0029036
180990001018
1808A0000018
0904E3015036
09105BBA1082
028000000280
004820005800
000178884000
ENDCHAR
STARTCHAR ordfeminine
ENCODING 170
SWIDTH 410 0
DWIDTH 7 0
BBX 7 6 0 4
BITMAP
08799000
1D00F300
0036E400
1B50E400
6D01E400
2DC7BB20
ENDCHAR
STARTCHAR guillemotleft
ENCODING 171
SWIDTH 517 0
DWIDTH 8 0
BBX 8 7 0 0
BITMAP
00190083
01C20870
1D508B00
4F31D800
05C11C40
004901B1
00030012
ENDCHAR
STARTCHAR logicalnot
ENCODING 172
SWIDTH 720 0
DWIDTH 12 0
BBX 10 6 1 1
BITMAP
BBBBBBBBD3
00000000E3
00000000E3
00000000E3
00000000E3
0000000051
ENDCHAR
STARTCHAR uni00AD
ENCODING 173
SWIDTH 315 0
DWIDTH 5 0
BBX 5 1 0 4
BITMAP
3BBB40
ENDCHAR
STARTCHAR registered
ENCODING 174
SWIDTH 413 0
DWIDTH 7 0
BBX 6 6 0 6
BITMAP
015540
158546
51A936
509646
168286
015550
ENDCHAR
STARTCHAR macron
ENCODING 175
SWIDTH 350 0
DWIDTH 6 0
BBX 6 1 0 9
BITMAP
6BBBB1
ENDCHAR
STARTCHAR degree
ENCODING 176
SWIDTH 409 0
DWIDTH 7 0
BBX 6 5 0 6
BITMAP
03BB80
0D2087
2B003A
0D2087
03BB80
ENDCHAR
STARTCHAR plusminus
ENCODING 177
SWIDTH 720 0
DWIDTH 12 0
BBX 10 11 1 0
BITMAP
0000110000
0000C40000
0000C40000
0000C40000
BBBBECBBB6
0000C40000
0000C40000
0000C40000
0000C40000
0000100000
BBBBBBBBB6
ENDCHAR
STARTCHAR twosuperior
ENCODING 178
SWIDTH 373 0
DWIDTH 6 0
BBX 6 7 0 4
BITMAP
09DD80
4203F3
0001F2
000770
006700
085017
7FFFF6
ENDCHAR
STARTCHAR threesuperior
ENCODING 179
SWIDTH 374 0
DWIDTH 6 0
BBX 6 7 0 4
BITMAP
1ADE80
210690
02BD40
0005F3
0000C5
1200D2
5E9940
ENDCHAR
STARTCHAR acute
ENCODING 180
SWIDTH 222 0
DWIDTH 4 0
BBX 3 3 0 9
BITMAP
0470
0D70
4800
ENDCHAR
STARTCHAR uni00B5
ENCODING 181
SWIDTH 556 0
DWIDTH 9 0
BBX 9 12 0 -4
BITMAP
0CA002F400
0C8002F100
0C6003E000
0C4003C000
0C2007A000
0C300BA000
0E9066D020
1E9B90BB50
2E00000000
3F00000000
4F20000000
2400000000
ENDCHAR
STARTCHAR paragraph
ENCODING 182
SWIDTH 605 0
DWIDTH 10 0
BBX 9 14 0 -3
BITMAP
019BECEE60
0A90D4C500
0F40D4C400
1F40D4C400
0E50D4C400
07C1D4C400
0048E4C400
0000D4C400
0000D4C400
0000D4C400
0000D4C400
0000D4C400
0016F4CB30
0014413430
ENDCHAR
STARTCHAR periodcentered
ENCODING 183
SWIDTH 282 0
DWIDTH 5 0
BBX 3 2 1 3
BITMAP
7D10
7E10
ENDCHAR
STARTCHAR cedilla
ENCODING 184
SWIDTH 247 0
DWIDTH 4 0
BBX 4 4 0 -4
BITMAP
0500
09A2
0086
3BB1
ENDCHAR
STARTCHAR onesuperior
ENCODING 185
SWIDTH 343 0
DWIDTH 5 0
BBX 5 7 0 4
BITMAP
28E600
00C600
00C600
00C600
00C600
00C600
17EC50
ENDCHAR
STARTCHAR ordmasculine
ENCODING 186
SWIDTH 432 0
DWIDTH 7 0
BBX 7 6 0 4
BITMAP
05B9A400
3E102E20
7C000D50
6C000E60
3E102E10
05A9B400
ENDCHAR
STARTCHAR guillemotright
ENCODING 187
SWIDTH 517 0
DWIDTH 8 0
BBX 7 7 1 0
BITMAP
A1073000
3B10B300
07C12D40
03E30C80
1D409800
A3058000
30030000
ENDCHAR
STARTCHAR onequarter
ENCODING 188
SWIDTH 861 0
DWIDTH 14 0
BBX 14 13 0 0
BITMAP
00000000001000
04820000085000
37F300002B0000
00E30000A30000
00E30003900000
00E3000B100100
00E30057002E30
00F401B001BE30
18B94750093D30
00002B00760D30
00009301DBBFC4
00039000000D30
00092000000820
ENDCHAR
STARTCHAR onehalf
ENCODING 189
SWIDTH 889 0
DWIDTH 14 0
BBX 14 13 0 -1
BITMAP
00100000035000
2AF300000B1000
00F30000570000
00E30001B00000
00E30008500000
00E3002B04CD90
00F400931601E6
18B943900000D6
00000B100003D1
00005700002B20
0000B00004A108
000750002DBBC7
00040000000000
ENDCHAR
STARTCHAR threequarters
ENCODING 190
SWIDTH 861 0
DWIDTH 14 0
BBX 14 13 0 0
BITMAP
00000000001000
06BC4000085000
3406D0002B0000
00087000A30000
02BD4003900000
0004E10B100620
0000E357005F30
2502D1B002DE30
3C9827500B4D30
00002B00760D30
00009301DBBFC4
00039000000D30
00092000000820
ENDCHAR
STARTCHAR questiondown
ENCODING 191
SWIDTH 411 0
DWIDTH 7 0
BBX 7 12 0 -4
BITMAP
005E2000
004D1000
00000000
00090000
00480000
00C20000
08900000
1E300000
6F002A00
7E004F20
4F402D00
06DBB300
ENDCHAR
STARTCHAR Agrave
ENCODING 192
SWIDTH 718 0
DWIDTH 11 0
BBX 12 14 0 0
BITMAP
0000BD100000
000006A00000
000000000000
00000D300000
00004F900000
0000BBF10000
0002C3F70000
000870DE0000
001E107F5000
006A002FC000
00CDBBBEF300
03D00005FA00
0B700000DF30
CFE5000AFFE5
ENDCHAR
STARTCHAR Aacute
ENCODING 193
SWIDTH 718 0
DWIDTH 11 0
BBX 12 14 0 0
BITMAP
000009D30000
000079100000
000000000000
00000D300000
00004F900000
0000BBF10000
0002C3F70000
000870DE0000
001E107F5000
006A002FC000
00CDBBBEF300
03D00005FA00
0B700000DF30
CFE5000AFFE5
ENDCHAR
STARTCHAR Acircumflex
ENCODING 194
SWIDTH 718 0
DWIDTH 11 0
BBX 12 15 0 0
BITMAP
000017300000
00009CD10000
000580490000
000000000000
00000D300000
00004F900000
0000BBF10000
0002C3F70000
000870DE0000
001E107F5000
006A002FC000
00CDBBBEF300
03D00005FA00
0B700000DF30
CFE5000AFFE5
ENDCHAR
STARTCHAR Atilde
ENCODING 195
SWIDTH 718 0
DWIDTH 11 0
BBX 12 14 0 0
BITMAP
0003BA453000
000606C90000
000000000000
00000D300000
00004F900000
0000BBF10000
0002C3F70000
000870DE0000
001E107F5000
006A002FC000
00CDBBBEF300
03D00005FA00
0B700000DF30
CFE5000AFFE5
ENDCHAR
STARTCHAR Adieresis
ENCODING 196
SWIDTH 718 0
DWIDTH 11 0
BBX 12 14 0 0
BITMAP
000A703C2000
000C904E2000
000000000000
00000D300000
00004F900000
0000BBF10000
0002C3F70000
000870DE0000
001E107F5000
006A002FC000
00CDBBBEF300
03D00005FA00
0B700000DF30
CFE5000AFFE5
ENDCHAR
STARTCHAR Aring
ENCODING 197
SWIDTH 718 0
DWIDTH 11 0
BBX 12 14 0 0
BITMAP
00007CA00000
0000C0840000
00007CA10000
00000D300000
00004F900000
0000BBF10000
0002C3F70000
000870DE0000
001E107F5000
006A002FC000
00CDBBBEF300
03D00005FA00
0B700000DF30
CFE5000AFFE5
ENDCHAR
STARTCHAR AE
ENCODING 198
SWIDTH 894 0
DWIDTH 14 0
BBX 15 11 -1 0
BITMAP
000003CEFBBBDF40
000000A8F1000940
00000386F1000450
00000A16F1000000
00004706F1009100
0000CCBDFCBDF100
00058006F100B100
000C1006F1007100
00770006F1000060
02E10007F1000590
4EFD10BFFBBBDF70
ENDCHAR
STARTCHAR Ccedilla
ENCODING 199
SWIDTH 670 0
DWIDTH 11 0
BBX 10 15 0 -4
BITMAP
0006BBCFFB
00AC2002DB
07F300004B
0DB000000A
1F90000000
3F70000000
2F80000000
0DB0000000
08F2000002
01CD300059
0017DCBA60
0000050000
00001A9000
000000C300
00006B9000
ENDCHAR
STARTCHAR Egrave
ENCODING 200
SWIDTH 626 0
DWIDTH 10 0
BBX 10 14 0 0
BITMAP
0005E60000
00002B4000
0000000000
3AFDBBBDF0
00E90000B0
00D9000030
00D9000800
00D9001B00
00DEBBEC00
00D9000900
00D9000002
00D9000037
00E90000B5
3AFDBBBEF3
ENDCHAR
STARTCHAR Eacute
ENCODING 201
SWIDTH 626 0
DWIDTH 10 0
BBX 10 14 0 0
BITMAP
00003E8000
0002B40000
0000000000
3AFDBBBDF0
00E90000B0
00D9000030
00D9000800
00D9001B00
00DEBBEC00
00D9000900
00D9000002
00D9000037
00E90000B5
3AFDBBBEF3
ENDCHAR
STARTCHAR Ecircumflex
ENCODING 202
SWIDTH 626 0
DWIDTH 10 0
BBX 10 15 0 0
BITMAP
0000570000
0003DD6000
001A21A200
0000000000
3AFDBBBDF0
00E90000B0
00D9000030
00D9000800
00D9001B00
00DEBBEC00
00D9000900
00D9000002
00D9000037
00E90000B5
3AFDBBBEF3
ENDCHAR
STARTCHAR Edieresis
ENCODING 203
SWIDTH 626 0
DWIDTH 10 0
BBX 10 14 0 0
BITMAP
004C10A700
005E10C900
0000000000
3AFDBBBDF0
00E90000B0
00D9000030
00D9000800
00D9001B00
00DEBBEC00
00D9000900
00D9000002
00D9000037
00E90000B5
3AFDBBBEF3
ENDCHAR
STARTCHAR Igrave
ENCODING 204
SWIDTH 357 0
DWIDTH 6 0
BBX 6 14 0 0
BITMAP
08E300
004B20
000000
5DFFC2
01EA00
00D900
00D900
00D900
00D900
00D900
00D900
00D900
01EA00
5DFFC2
ENDCHAR
STARTCHAR Iacute
ENCODING 205
SWIDTH 357 0
DWIDTH 6 0
BBX 6 14 0 0
BITMAP
006E50
04B200
000000
5DFFC2
01EA00
00D900
00D900
00D900
00D900
00D900
00D900
00D900
01EA00
5DFFC2
ENDCHAR
STARTCHAR Icircumflex
ENCODING 206
SWIDTH 357 0
DWIDTH 6 0
BBX 6 15 0 0
BITMAP
006500
06CE30
2A12A0
000000
5DFFC2
01EA00
00D900
00D900
00D900
00D900
00D900
00D900
00D900
01EA00
5DFFC2
ENDCHAR
STARTCHAR Idieresis
ENCODING 207
SWIDTH 357 0
DWIDTH 6 0
BBX 6 14 0 0
BITMAP
7901C4
9C02E5
000000
5DFFC2
01EA00
00D900
00D900
00D900
00D900
00D900
00D900
00D900
01EA00
5DFFC2
ENDCHAR
STARTCHAR Eth
ENCODING 208
SWIDTH 737 0
DWIDTH 12 0
BBX 11 11 0 0
BITMAP
3BFEBCDA4000
00DA0018F800
00CA00009F40
00CA00001FA0
00CA00000DD0
4BEEBB500CE0
00CA00000DD0
00CA00001FA0
00CA00006F40
00DA0006E800
3BFEBCDA4000
ENDCHAR
STARTCHAR Ntilde
ENCODING 209
SWIDTH 742 0
DWIDTH 12 0
BBX 12 14 0 0
BITMAP
00009C736000
000422AC2000
000000000000
6EF80004DFE5
03FF40001E30
00DEE2000C00
00B5FB000C00
00B09F800C00
00B00CF40C00
00B002EE1C00
00B0004FBC00
01B00007FF00
02D00000BF00
6EFD20001D00
ENDCHAR
STARTCHAR Ograve
ENCODING 210
SWIDTH 738 0
DWIDTH 12 0
BBX 11 14 0 0
BITMAP
00008E300000
000003B20000
000000000000
0006CBCC5000
00BC2004E900
07F300005F50
0DB000000EB0
1F9000000BE0
2F8000000AF0
1F9000000BE0
0DC000000EA0
08F200004F40
00BC1002D800
0007CBBB5000
ENDCHAR
STARTCHAR Oacute
ENCODING 211
SWIDTH 738 0
DWIDTH 12 0
BBX 11 14 0 0
BITMAP
000006E50000
00004B200000
000000000000
0006CBCC5000
00BC2004E900
07F300005F50
0DB000000EB0
1F9000000BE0
2F8000000AF0
1F9000000BE0
0DC000000EA0
08F200004F40
00BC1002D800
0007CBBB5000
ENDCHAR
STARTCHAR Ocircumflex
ENCODING 212
SWIDTH 738 0
DWIDTH 12 0
BBX 11 15 0 0
BITMAP
000006500000
00006DE30000
0002A12A1000
000000000000
0006CBCC5000
00BC2004E900
07F300005F50
0DB000000EB0
1F9000000BE0
2F8000000AF0
1F9000000BE0
0DC000000EA0
08F200004F40
00BC1002D800
0007CBBB5000
ENDCHAR
STARTCHAR Otilde
ENCODING 213
SWIDTH 738 0
DWIDTH 12 0
BBX 11 14 0 0
BITMAP
0001AB535000
000513BB1000
000000000000
0006CBCC5000
00BC2004E900
07F300005F50
0DB000000EB0
1F9000000BE0
2F8000000AF0
1F9000000BE0
0DC000000EA0
08F200004F40
00BC1002D800
0007CBBB5000
ENDCHAR
STARTCHAR Odieresis
ENCODING 214
SWIDTH 738 0
DWIDTH 12 0
BBX 11 14 0 0
BITMAP
0007A01B4000
0009C01E5000
000000000000
0006CBCC5000
00BC2004E900
07F300005F50
0DB000000EB0
1F9000000BE0
2F8000000AF0
1F9000000BE0
0DC000000EA0
08F200004F40
00BC1002D800
0007CBBB5000
ENDCHAR
STARTCHAR multiply
ENCODING 215
SWIDTH 720 0
DWIDTH 12 0
BBX 10 10 1 -1
BITMAP
3300000060
5E300009C1
06E3009C10
006E39C100
0006FD1000
0009DE3000
009C16E300
09C1006E30
7C100006E1
1100000030
ENDCHAR
STARTCHAR Oslash
ENCODING 216
SWIDTH 737 0
DWIDTH 12 0
BBX 11 11 0 0
BITMAP
0007CBBB3A00
00BC2004F900
08F20005CF30
0DB000291EA0
2F9001A10CD0
3F8009200BE0
2F9075000BD0
0EB470000EA0
08FA00004F40
01EC1002D800
0836CCBB5000
ENDCHAR
STARTCHAR Ugrave
ENCODING 217
SWIDTH 752 0
DWIDTH 12 0
BBX 12 14 0 0
BITMAP
00002DA00000
000001880000
000000000000
8EFFB002DFF9
03F700000C60
02F500000A40
02F500000A40
02F500000A40
02F500000A40
02F500000A30
01F600000B30
00E900000D00
007E30008800
0007CCBB7000
ENDCHAR
STARTCHAR Uacute
ENCODING 218
SWIDTH 752 0
DWIDTH 12 0
BBX 12 14 0 0
BITMAP
000001CB1000
00000A600000
000000000000
8EFFB002DFF9
03F700000C60
02F500000A40
02F500000A40
02F500000A40
02F500000A40
02F500000A30
01F600000B30
00E900000D00
007E30008800
0007CCBB7000
ENDCHAR
STARTCHAR Ucircumflex
ENCODING 219
SWIDTH 752 0
DWIDTH 12 0
BBX 12 15 0 0
BITMAP
000003710000
00001DCA0000
000095086000
000000000000
8EFFB002DFF9
03F700000C60
02F500000A40
02F500000A40
02F500000A40
02F500000A40
02F500000A30
01F600000B30
00E900000D00
007E30008800
0007CCBB7000
ENDCHAR
STARTCHAR Udieresis
ENCODING 220
SWIDTH 752 0
DWIDTH 12 0
BBX 12 14 0 0
BITMAP
0001C406A000
0002E508C000
000000000000
8EFFB002DFF9
03F700000C60
02F500000A40
02F500000A40
02F500000A40
02F500000A40
02F500000A30
01F600000B30
00E900000D00
007E30008800
0007CCBB7000
ENDCHAR
STARTCHAR Yacute
ENCODING 221
SWIDTH 647 0
DWIDTH 10 0
BBX 12 14 -1 0
BITMAP
000001CC1000
000009700000
000000000000
1DFFD201DFE5
00AF40002D10
001DC0009300
0004F7039000
0000AE1B1000
00002ED60000
000008F00000
000008E00000
000008E00000
000009F10000
0001CFFE7000
ENDCHAR
STARTCHAR Thorn
ENCODING 222
SWIDTH 572 0
DWIDTH 9 0
BBX 9 11 0 0
BITMAP
5DFFD40000
01EB000000
00DDBCA400
00D9019F50
00D9000FA0
00D9001F80
00D9018E20
00DDBB8200
00D9000000
01EB000000
5DFFD40000
ENDCHAR
STARTCHAR germandbls
ENCODING 223
SWIDTH 563 0
DWIDTH 9 0
BBX 9 11 0 0
BITMAP
005A8A9100
02F100E700
05F000E600
6DF0497000
06F07B6000
06F002DA00
06F0004F40
06F0000F70
06F0100F60
06F3F23F20
5DF1BB9400
ENDCHAR
STARTCHAR agrave
ENCODING 224
SWIDTH 480 0
DWIDTH 8 0
BBX 8 12 0 0
BITMAP
00740000
006D0000
00085000
00000000
04BBD500
0E607E00
0A203F20
00038F20
05B64F20
3F203F20
5F204F20
1BD93DB3
ENDCHAR
STARTCHAR aacute
ENCODING 225
SWIDTH 480 0
DWIDTH 8 0
BBX 8 12 0 0
BITMAP
00018300
0007C100
000B1000
00000000
04BBD500
0E607E00
0A203F20
00038F20
05B64F20
3F203F20
5F204F20
1BD93DB3
ENDCHAR
STARTCHAR acircumflex
ENCODING 226
SWIDTH 480 0
DWIDTH 8 0
BBX 8 12 0 0
BITMAP
00073000
008AC100
03804800
00000000
04BBD500
0E607E00
0A203F20
00038F20
05B64F20
3F203F20
5F204F20
1BD93DB3
ENDCHAR
STARTCHAR atilde
ENCODING 227
SWIDTH 480 0
DWIDTH 8 0
BBX 8 11 0 0
BITMAP
03BA4630
0605C900
00000000
04BBD500
0E607E00
0A203F20
00038F20
05B64F20
3F203F20
5F204F20
1BD93DB3
ENDCHAR
STARTCHAR adieresis
ENCODING 228
SWIDTH 480 0
DWIDTH 8 0
BBX 8 11 0 0
BITMAP
09803C20
0B904E20
00000000
04BBD500
0E607E00
0A203F20
00038F20
05B64F20
3F203F20
5F204F20
1BD93DB3
ENDCHAR
STARTCHAR aring
ENCODING 229
SWIDTH 480 0
DWIDTH 8 0
BBX 8 13 0 0
BITMAP
00498000
00B08300
00B08400
00498000
00000000
04BBD500
0E607E00
0A203F20
00038F20
05B64F20
3F203F20
5F204F20
1BD93DB3
ENDCHAR
STARTCHAR ae
ENCODING 230
SWIDTH 709 0
DWIDTH 11 0
BBX 11 8 0 0
BITMAP
04BCC39BD600
1F409F603F30
09105F100C90
0004AFBBBDA0
05C77F100000
3F204F300000
5F205FA00270
1BDA65CDB800
ENDCHAR
STARTCHAR ccedilla
ENCODING 231
SWIDTH 446 0
DWIDTH 7 0
BBX 7 12 0 -4
BITMAP
019BDA10
0B703F70
3E000740
6C000000
6D000000
4F200000
0DA00270
03CEA800
00070000
000AC300
00008700
003BC200
ENDCHAR
STARTCHAR egrave
ENCODING 232
SWIDTH 464 0
DWIDTH 7 0
BBX 7 12 0 0
BITMAP
00650000
004E1000
00058000
00000000
01ABD700
0C502F40
4E000BA0
6EBBBCB0
6D000000
4F200000
0CB00170
01ADB810
ENDCHAR
STARTCHAR eacute
ENCODING 233
SWIDTH 464 0
DWIDTH 7 0
BBX 7 12 0 0
BITMAP
00007400
0005D200
000A2000
00000000
01ABD700
0C502F40
4E000BA0
6EBBBCB0
6D000000
4F200000
0CB00170
01ADB810
ENDCHAR
STARTCHAR ecircumflex
ENCODING 234
SWIDTH 464 0
DWIDTH 7 0
BBX 7 12 0 0
BITMAP
00064000
005BD200
02A02A00
00000000
01ABD700
0C502F40
4E000BA0
6EBBBCB0
6D000000
4F200000
0CB00170
01ADB810
ENDCHAR
STARTCHAR edieresis
ENCODING 235
SWIDTH 464 0
DWIDTH 7 0
BBX 7 11 0 0
BITMAP
07A01C40
09C02E50
00000000
01ABD700
0C502F40
4E000BA0
6EBBBCB0
6D000000
4F200000
0CB00170
01ADB810
ENDCHAR
STARTCHAR igrave
ENCODING 236
SWIDTH 285 0
DWIDTH 5 0
BBX 5 12 0 0
BITMAP
560000
3E3000
049000
000000
4BE000
06E000
06E000
06E000
06E000
06E000
06F000
6EFD10
ENDCHAR
STARTCHAR iacute
ENCODING 237
SWIDTH 285 0
DWIDTH 5 0
BBX 5 12 0 0
BITMAP
006500
03E300
094000
000000
4BE000
06E000
06E000
06E000
06E000
06E000
06F000
6EFD10
ENDCHAR
STARTCHAR icircumflex
ENCODING 238
SWIDTH 285 0
DWIDTH 5 0
BBX 5 11 0 0
BITMAP
0CC000
866800
400400
4BE000
06E000
06E000
06E000
06E000
06E000
06F000
6EFD10
ENDCHAR
STARTCHAR idieresis
ENCODING 239
SWIDTH 285 0
DWIDTH 5 0
BBX 6 11 -1 0
BITMAP
4E32E4
3C22C3
000000
04BE00
006E00
006E00
006E00
006E00
006E00
006F00
06EFD1
ENDCHAR
STARTCHAR eth
ENCODING 240
SWIDTH 532 0
DWIDTH 9 0
BBX 8 11 0 0
BITMAP
04ADC435
00039E80
000305D0
019CB8E5
0BA006F8
3F3000EA
6F1000DB
6F1000D9
3F4001F6
0CB007D1
02ADBA20
ENDCHAR
STARTCHAR ntilde
ENCODING 241
SWIDTH 576 0
DWIDTH 9 0
BBX 9 11 0 0
BITMAP
002BB54400
00604CA000
0000000000
3BD49DB100
06F501D700
06E000AA00
06E0009B00
06E0009B00
06E0009B00
06F000AB00
6EFD2AFFB0
ENDCHAR
STARTCHAR ograve
ENCODING 242
SWIDTH 514 0
DWIDTH 8 0
BBX 8 12 0 0
BITMAP
00470000
001D6000
0002B000
00000000
019CCB30
0BA008E1
3F3001F7
6F1000D9
6F1000C9
3F3000E7
0BB005E1
01ADBB20
ENDCHAR
STARTCHAR oacute
ENCODING 243
SWIDTH 514 0
DWIDTH 8 0
BBX 8 12 0 0
BITMAP
00005700
0001E500
00076000
00000000
019CCB30
0BA008E1
3F3001F7
6F1000D9
6F1000C9
3F3000E7
0BB005E1
01ADBB20
ENDCHAR
STARTCHAR ocircumflex
ENCODING 244
SWIDTH 514 0
DWIDTH 8 0
BBX 8 12 0 0
BITMAP
00047000
002DB600
00920920
00000000
019CCB30
0BA008E1
3F3001F7
6F1000D9
6F1000C9
3F3000E7
0BB005E1
01ADBB20
ENDCHAR
STARTCHAR otilde
ENCODING 245
SWIDTH 514 0
DWIDTH 8 0
BBX 8 11 0 0
BITMAP
008C7370
0241AC30
00000000
019CCB30
0BA008E1
3F3001F7
6F1000D9
6F1000C9
3F3000E7
0BB005E1
01ADBB20
ENDCHAR
STARTCHAR odieresis
ENCODING 246
SWIDTH 514 0
DWIDTH 8 0
BBX 8 11 0 0
BITMAP
03C20970
04E20B90
00000000
019CCB30
0BA008E1
3F3001F7
6F1000D9
6F1000C9
3F3000E7
0BB005E1
01ADBB20
ENDCHAR
STARTCHAR divide
ENCODING 247
SWIDTH 720 0
DWIDTH 12 0
BBX 10 9 1 0
BITMAP
0001C60000
0001D70000
0000000000
0000000000
BBBBBBBBB6
0000000000
0000000000
0001B50000
0001D70000
ENDCHAR
STARTCHAR oslash
ENCODING 248
SWIDTH 514 0
DWIDTH 8 0
BBX 8 8 0 0
BITMAP
019CCAA0
0BA00BD1
4F3057F7
6F1380DA
6F2A00CA
3FB200E7
0CA005E1
379CBB30
ENDCHAR
STARTCHAR ugrave
ENCODING 249
SWIDTH 570 0
DWIDTH 9 0
BBX 9 12 0 0
BITMAP
0028200000
000A900000
0001B10000
0000000000
5DC01AE800
09C000D800
08C000C800
08C000C800
08C000C800
08C000C800
05F204E800
00ADA5BC40
ENDCHAR
STARTCHAR uacute
ENCODING 250
SWIDTH 570 0
DWIDTH 9 0
BBX 9 12 0 0
BITMAP
0000371000
0000C80000
0004900000
0000000000
5DC01AE800
09C000D800
08C000C800
08C000C800
08C000C800
08C000C800
05F204E800
00ADA5BC40
ENDCHAR
STARTCHAR ucircumflex
ENCODING 251
SWIDTH 570 0
DWIDTH 9 0
BBX 9 12 0 0
BITMAP
0002710000
000CA90000
0075075000
0000000000
5DC01AE800
09C000D800
08C000C800
08C000C800
08C000C800
08C000C800
05F204E800
00ADA5BC40
ENDCHAR
STARTCHAR udieresis
ENCODING 252
SWIDTH 570 0
DWIDTH 9 0
BBX 9 11 0 0
BITMAP
01C407A000
02E508C000
0000000000
5DC01AE800
09C000D800
08C000C800
08C000C800
08C000C800
08C000C800
05F204E800
00ADA5BC40
ENDCHAR
STARTCHAR yacute
ENCODING 253
SWIDTH 483 0
DWIDTH 8 0
BBX 9 16 -1 -4
BITMAP
0000057000
00001E5000
0000760000
0000000000
2EFD30AFC0
03F6001D00
00BC005700
004F40A200
000CA0A000
0005F66000
0000DD1000
00008A0000
0000940000
0001C00000
099B500000
0AE8000000
ENDCHAR
STARTCHAR thorn
ENCODING 254
SWIDTH 524 0
DWIDTH 8 0
BBX 8 15 0 -4
BITMAP
6C900000
0B900000
0B900000
0B96BE70
0BD203F5
0B9000CA
0B9000AC
0B9000AB
0B9000D8
0BD205E1
0BDCCB20
0B900000
0B900000
0CB00000
BFFC2000
ENDCHAR
STARTCHAR ydieresis
ENCODING 255
SWIDTH 483 0
DWIDTH 8 0
BBX 9 15 -1 -4
BITMAP
003C209700
004E20B900
0000000000
2EFD30AFC0
03F6001D00
00BC005700
004F40A200
000CA0A000
0005F66000
0000DD1000
00008A0000
0000940000
0001C00000
099B500000
0AE8000000
ENDCHAR
STARTCHAR Amacron
ENCODING 256
SWIDTH 718 0
DWIDTH 11 0
BBX 12 13 0 0
BITMAP
0008BBBB0000
000000000000
00000D300000
00004F900000
0000BBF10000
0002C3F70000
000870DE0000
001E107F5000
006A002FC000
00CDBBBEF300
03D00005FA00
0B700000DF30
CFE5000AFFE5
ENDCHAR
STARTCHAR amacron
ENCODING 257
SWIDTH 480 0
DWIDTH 8 0
BBX 8 10 0 0
BITMAP
07BBBB00
00000000
04BBD500
0E607E00
0A203F20
00038F20
05B64F20
3F203F20
5F204F20
1BD93DB3
ENDCHAR
STARTCHAR Abreve
ENCODING 258
SWIDTH 718 0
DWIDTH 11 0
BBX 12 15 0 0
BITMAP
000500050000
000740190000
00009BA20000
000000000000
00000D300000
00004F900000
0000BBF10000
0002C3F70000
000870DE0000
001E107F5000
006A002FC000
00CDBBBEF300
03D00005FA00
0B700000DF30
CFE5000AFFE5
ENDCHAR
STARTCHAR abreve
ENCODING 259
SWIDTH 480 0
DWIDTH 8 0
BBX 8 12 0 0
BITMAP
05000500
06401900
009BA200
00000000
04BBD500
0E607E00
0A203F20
00038F20
05B64F20
3F203F20
5F204F20
1BD93DB3
ENDCHAR
STARTCHAR Aogonek
ENCODING 260
SWIDTH 719 0
DWIDTH 12 0
BBX 12 15 0 -4
BITMAP
00000D300000
00004FA00000
0000BBF10000
0002C3F80000
000870DE0000
000E107F6000
006B002FC000
00CDBBBEF300
03D00006FA00
0B700001EF30
CFE50001DFE5
000000450000
000002C00000
000006B02000
000002DB6000
ENDCHAR
STARTCHAR aogonek
ENCODING 261
SWIDTH 480 0
DWIDTH 8 0
BBX 8 12 0 -4
BITMAP
04BBD500
0E506E00
0A203F20
00049F20
05B53F20
3F203F20
5F205F21
1BD93DE4
00000B40
00007800
0000B602
00005DA3
ENDCHAR
STARTCHAR Cacute
ENCODING 262
SWIDTH 670 0
DWIDTH 11 0
BBX 10 14 0 0
BITMAP
000004E700
00002B3000
0000000000
0006BBCFFB
00AC2002DB
07F300004B
0DB000000A
1F90000000
3F70000000
2F80000000
0DB0000000
08F2000002
01CD300059
0017DCBA60
ENDCHAR
STARTCHAR cacute
ENCODING 263
SWIDTH 446 0
DWIDTH 7 0
BBX 7 12 0 0
BITMAP
00007400
0005D100
000B2000
00000000
019CDA10
0B703F70
3E000740
6C000000
7D000000
4F200000
0DA00270
02BDB700
ENDCHAR
STARTCHAR Ccircumflex
ENCODING 264
SWIDTH 670 0
DWIDTH 11 0
BBX 10 15 0 0
BITMAP
0000056000
00004DD500
0001B21A20
0000000000
0006BBCFFB
00AC2002DB
07F300004B
0DB000000A
1F90000000
3F70000000
2F80000000
0DB0000000
08F2000002
01CD300059
0017DCBA60
ENDCHAR
STARTCHAR ccircumflex
ENCODING 265
SWIDTH 446 0
DWIDTH 7 0
BBX 7 12 0 0
BITMAP
00064000
006BD200
02A02A00
00000000
019CDA10
0B703F70
3E000740
6C000000
7D000000
4F200000
0DA00270
02BDB700
ENDCHAR
STARTCHAR Cdotaccent
ENCODING 266
SWIDTH 670 0
DWIDTH 11 0
BBX 10 14 0 0
BITMAP
0000089000
00000AB000
0000000000
0006BBCFFB
00AC2002DB
07F300004B
0DB000000A
1F90000000
3F70000000
2F80000000
0DB0000000
08F2000002
01CD300059
0017DCBA60
ENDCHAR
STARTCHAR cdotaccent
ENCODING 267
SWIDTH 446 0
DWIDTH 7 0
BBX 7 11 0 0
BITMAP
000B7000
000D8000
00000000
019CDA10
0B703F70
3E000740
6C000000
7D000000
4F200000
0DA00270
02BDB700
ENDCHAR
STARTCHAR Ccaron
ENCODING 268
SWIDTH 670 0
DWIDTH 11 0
BBX 10 15 0 0
BITMAP
0001500420
0000986A00
00001DD100
0000000000
0006BBCFFB
00AC2002DB
07F300004B
0DB000000A
1F90000000
3F70000000
2F80000000
0DB0000000
08F2000002
01CD300059
0017DCBA60
ENDCHAR
STARTCHAR ccaron
ENCODING 269
SWIDTH 446 0
DWIDTH 7 0
BBX 7 12 0 0
BITMAP
02400500
00A48600
001EB000
00000000
019CDA10
0B703F70
3E000740
6C000000
7D000000
4F200000
0DA00270
02BDB700
ENDCHAR
STARTCHAR Dcaron
ENCODING 270
SWIDTH 730 0
DWIDTH 12 0
BBX 11 15 0 0
BITMAP
000510150000
0003C3C20000
00006F600000
000000000000
4BFEBCDA3000
00E90019F700
00D900009F30
00D900002F90
00D900000DC0
00D900000CD0
00D900000DB0
00D900001F90
00D900007F30
00E90017F600
4CFEBCD93000
ENDCHAR
STARTCHAR dcaron
ENCODING 271
SWIDTH 626 0
DWIDTH 10 0
BBX 10 12 0 0
BITMAP
00000000AA
00002AE1B6
000004F1B1
000004F120
008CCCF100
0AA008F100
2F2004F100
6F0004F100
7F0004F100
5F1004F100
1E8005F200
04DC98E810
ENDCHAR
STARTCHAR Dcroat
ENCODING 272
SWIDTH 733 0
DWIDTH 12 0
BBX 11 11 0 0
BITMAP
4CFEBCD93000
00E90019F700
00D90000AF30
00D900003F90
00D900000EC0
5BFEBB400DD0
00D900000EC0
00D900001F90
00D900007F30
00E90017F700
4CFEBCD93000
ENDCHAR
STARTCHAR dcroat
ENCODING 273
SWIDTH 540 0
DWIDTH 9 0
BBX 9 11 0 0
BITMAP
000028F200
0007BCFC20
000004F200
008CBCF200
09A008F200
2F2004F200
6F0004F200
7F0004F200
5F2004F200
1E8005F200
04DC98E810
ENDCHAR
STARTCHAR Emacron
ENCODING 274
SWIDTH 626 0
DWIDTH 10 0
BBX 10 13 0 0
BITMAP
003BBBB500
0000000000
3AFDBBBDF0
00E90000B0
00D9000030
00D9000800
00D9001B00
00DEBBEC00
00D9000900
00D9000002
00D9000037
00E90000B5
3AFDBBBEF3
ENDCHAR
STARTCHAR emacron
ENCODING 275
SWIDTH 464 0
DWIDTH 7 0
BBX 7 10 0 0
BITMAP
05BBBB20
00000000
01ABD700
0C502F40
4E000BA0
6EBBBCB0
6D000000
4F200000
0CB00170
01ADB810
ENDCHAR
STARTCHAR Ebreve
ENCODING 276
SWIDTH 626 0
DWIDTH 10 0
BBX 10 15 0 0
BITMAP
0023001400
001A008300
0004BB7000
0000000000
3AFDBBBDF0
00E90000B0
00D9000030
00D9000800
00D9001B00
00DEBBEC00
00D9000900
00D9000002
00D9000037
00E90000B5
3AFDBBBEF3
ENDCHAR
STARTCHAR ebreve
ENCODING 277
SWIDTH 464 0
DWIDTH 7 0
BBX 7 12 0 0
BITMAP
04100410
04700A00
007BB400
00000000
01ABD700
0C502F40
4E000BA0
6EBBBCB0
6D000000
4F200000
0CB00170
01ADB810
ENDCHAR
STARTCHAR Edotaccent
ENCODING 278
SWIDTH 626 0
DWIDTH 10 0
BBX 10 14 0 0
BITMAP
00007A0000
00009C0000
0000000000
3AFDBBBDF0
00E90000B0
00D9000030
00D9000800
00D9001B00
00DEBBEC00
00D9000900
00D9000002
00D9000037
00E90000B5
3AFDBBBEF3
ENDCHAR
STARTCHAR edotaccent
ENCODING 279
SWIDTH 464 0
DWIDTH 7 0
BBX 7 11 0 0
BITMAP
000B7000
000C8000
00000000
01ABD700
0C502F40
4E000BA0
6EBBBCB0
6D000000
4F200000
0CB00170
01ADB810
ENDCHAR
STARTCHAR Eogonek
ENCODING 280
SWIDTH 625 0
DWIDTH 10 0
BBX 10 15 0 -4
BITMAP
3BFDBBCEF0
00E90000C0
00D9000040
00D9000800
00D9002B00
00DDBBEC00
00D9001900
00D9000000
00D9000027
00E90000A5
3AFDBBCEF3
0000001A10
000000A400
000000E301
0000008D92
ENDCHAR
STARTCHAR eogonek
ENCODING 281
SWIDTH 464 0
DWIDTH 7 0
BBX 7 12 0 -4
BITMAP
01ABD700
0C502F40
4E000BA0
6EBBBCB0
6D000000
4F200000
0CB00180
01ADCD30
0004C200
001E2000
003E0110
000BC700
ENDCHAR
STARTCHAR Ecaron
ENCODING 282
SWIDTH 626 0
DWIDTH 10 0
BBX 10 15 0 0
BITMAP
0015003200
000895B000
0000CE2000
0000000000
3AFDBBBDF0
00E90000B0
00D9000030
00D9000800
00D9001B00
00DEBBEC00
00D9000900
00D9000002
00D9000037
00E90000B5
3AFDBBBEF3
ENDCHAR
STARTCHAR ecaron
ENCODING 283
SWIDTH 464 0
DWIDTH 7 0
BBX 7 12 0 0
BITMAP
02400500
00A48600
001EB000
00000000
01ABD700
0C502F40
4E000BA0
6EBBBCB0
6D000000
4F200000
0CB00170
01ADB810
ENDCHAR
STARTCHAR Gcircumflex
ENCODING 284
SWIDTH 720 0
DWIDTH 12 0
BBX 11 15 0 0
BITMAP
000005600000
00004DD50000
0001B21A1000
000000000000
0006CBCFFC00
00BC2002DC00
07F300004C00
0DB000000A00
1F9000000000
3F70000CDDC0
2F800000BE00
0EB000009D00
09F200009D00
01DC2001CD00
0018DCCC8100
ENDCHAR
STARTCHAR gcircumflex
ENCODING 285
SWIDTH 484 0
DWIDTH 8 0
BBX 8 16 0 -4
BITMAP
00064000
005BD200
02A02A00
00000000
03BCEFC6
0D803F50
2F400D90
1F400D80
05A02F30
09BCB500
3F522100
0BFFFFC1
1A0002B6
89000065
8D1002A1
1BEB9710
ENDCHAR
STARTCHAR Gbreve
ENCODING 286
SWIDTH 720 0
DWIDTH 12 0
BBX 11 15 0 0
BITMAP
000320023000
000290092000
00005BB60000
000000000000
0006CBCFFC00
00BC2002DC00
07F300004C00
0DB000000A00
1F9000000000
3F70000CDDC0
2F800000BE00
0EB000009D00
09F200009D00
01DC2001CD00
0018DCCC8100
ENDCHAR
STARTCHAR gbreve
ENCODING 287
SWIDTH 484 0
DWIDTH 8 0
BBX 8 16 0 -4
BITMAP
04100410
04700A00
007BB400
00000000
03BCEFC6
0D803F50
2F400D90
1F400D80
05A02F30
09BCB500
3F522100
0BFFFFC1
1A0002B6
89000065
8D1002A1
1BEB9710
ENDCHAR
STARTCHAR Gdotaccent
ENCODING 288
SWIDTH 720 0
DWIDTH 12 0
BBX 11 14 0 0
BITMAP
000008900000
00000AB00000
000000000000
0006CBCFFC00
00BC2002DC00
07F300004C00
0DB000000A00
1F9000000000
3F70000CDDC0
2F800000BE00
0EB000009D00
09F200009D00
01DC2001CD00
0018DCCC8100
ENDCHAR
STARTCHAR gdotaccent
ENCODING 289
SWIDTH 484 0
DWIDTH 8 0
BBX 8 15 0 -4
BITMAP
000B7000
000C8000
00000000
03BCEFC6
0D803F50
2F400D90
1F400D80
05A02F30
09BCB500
3F522100
0BFFFFC1
1A0002B6
89000065
8D1002A1
1BEB9710
ENDCHAR
STARTCHAR Gcommaaccent
ENCODING 290
SWIDTH 720 0
DWIDTH 12 0
BBX 11 16 0 -5
BITMAP
0006CBCFFC00
00BC2002DC00
07F300004C00
0DB000000A00
1F9000000000
3F70000CDDC0
2F800000BE00
0EB000009D00
09F200009D00
01DC2001CD00
0018DCCC8100
000000000000
00001C600000
00002EC00000
000002A00000
000018100000
ENDCHAR
STARTCHAR gcommaaccent
ENCODING 291
SWIDTH 484 0
DWIDTH 8 0
BBX 8 17 0 -4
BITMAP
00026000
001A0000
003E8000
001D9000
00000000
03BCEFC6
0D803F50
2F400D90
1F400D80
05A02F30
09BCB500
3F522100
0BFFFFC1
1A0002B6
89000065
8D1002A1
1BEB9710
ENDCHAR
STARTCHAR Hcircumflex
ENCODING 292
SWIDTH 777 0
DWIDTH 12 0
BBX 12 15 0 0
BITMAP
000004700000
00002DC80000
0000A3094000
000000000000
5DFFC208EFFA
01EB00004F60
00D900002F50
00D900002F50
00D900002F50
00DEBBBBCF50
00D900002F50
00D900002F50
00D900002F50
00EA00004F60
5DFFC208EFEA
ENDCHAR
STARTCHAR hcircumflex
ENCODING 293
SWIDTH 577 0
DWIDTH 9 0
BBX 9 16 0 0
BITMAP
0003710000
001DC90000
0094085000
0000000000
0000000000
4BD0000000
06E0000000
06E0000000
06E49DB100
06F501E700
06E000AA00
06E0009B00
06E0009B00
06E0009B00
07E000AC00
6EFD19FFB0
ENDCHAR
STARTCHAR Hbar
ENCODING 294
SWIDTH 788 0
DWIDTH 13 0
BBX 12 11 0 0
BITMAP
4DFFD307EFFB
00EC00003F80
00CA00001F60
4BEEBBBBCFDB
00CA00001F60
00CEBBBBCF60
00CA00001F60
00CA00001F60
00CA00001F60
00DC00003F70
4DFFC307EFFB
ENDCHAR
STARTCHAR hbar
ENCODING 295
SWIDTH 579 0
DWIDTH 9 0
BBX 9 11 0 0
BITMAP
39E0000000
7DFBB60000
06E0000000
06E3ADC100
06F600E800
06E000AA00
06E0009B00
06E0009B00
06E0009B00
06F000AC00
6EFD29FFB0
ENDCHAR
STARTCHAR Itilde
ENCODING 296
SWIDTH 357 0
DWIDTH 6 0
BBX 6 14 0 0
BITMAP
1AB545
604BA1
000000
5DFFC2
01EA00
00D900
00D900
00D900
00D900
00D900
00D900
00D900
01EA00
5DFFC2
ENDCHAR
STARTCHAR itilde
ENCODING 297
SWIDTH 285 0
DWIDTH 5 0
BBX 6 11 -1 0
BITMAP
08C335
241BA0
000000
04BE00
006E00
006E00
006E00
006E00
006E00
006F00
06EFD1
ENDCHAR
STARTCHAR Imacron
ENCODING 298
SWIDTH 357 0
DWIDTH 6 0
BBX 6 13 0 0
BITMAP
5BBBB2
000000
5DFFC2
01EA00
00D900
00D900
00D900
00D900
00D900
00D900
00D900
01EA00
5DFFC2
ENDCHAR
STARTCHAR imacron
ENCODING 299
SWIDTH 285 0
DWIDTH 5 0
BBX 6 10 -1 0
BITMAP
1BBBB1
000000
04BE00
006E00
006E00
006E00
006E00
006E00
006F00
06EFD1
ENDCHAR
STARTCHAR Ibreve
ENCODING 300
SWIDTH 357 0
DWIDTH 6 0
BBX 6 15 0 0
BITMAP
410032
4700A0
07BB40
000000
5DFFC2
01EA00
00D900
00D900
00D900
00D900
00D900
00D900
00D900
01EA00
5DFFC2
ENDCHAR
STARTCHAR ibreve
ENCODING 301
SWIDTH 285 0
DWIDTH 5 0
BBX 5 11 0 0
BITMAP
900900
5CB500
000000
4BE000
06E000
06E000
06E000
06E000
06E000
06F000
6EFD10
ENDCHAR
STARTCHAR Iogonek
ENCODING 302
SWIDTH 357 0
DWIDTH 6 0
BBX 6 15 0 -4
BITMAP
5DFFC2
01EA00
00D900
00D900
00D900
00D900
00D900
00D900
00D900
01EA00
5DFFC2
008400
059000
098020
04DA40
ENDCHAR
STARTCHAR iogonek
ENCODING 303
SWIDTH 285 0
DWIDTH 5 0
BBX 5 15 0 -4
BITMAP
06E100
05C100
000000
4BE000
06E000
06E000
06E000
06E000
06E000
06F000
6EFD10
048000
1D0000
4D0100
1CB700
ENDCHAR
STARTCHAR Idotaccent
ENCODING 304
SWIDTH 357 0
DWIDTH 6 0
BBX 6 14 0 0
BITMAP
00A700
00C900
000000
5DFFC2
01EA00
00D900
00D900
00D900
00D900
00D900
00D900
00D900
01EA00
5DFFC2
ENDCHAR
STARTCHAR dotlessi
ENCODING 305
SWIDTH 285 0
DWIDTH 5 0
BBX 5 8 0 0
BITMAP
4BE000
06E000
06E000
06E000
06E000
06E000
06F000
6EFD10
ENDCHAR
STARTCHAR IJ
ENCODING 306
SWIDTH 753 0
DWIDTH 12 0
BBX 12 11 0 0
BITMAP
5DFFC209EFE8
01EA00005F60
00D900003F40
00D900003F40
00D900003F40
00D900003F40
00D900003F40
00D900003F40
00D900203F30
01EA03F45F10
5DFFC2BEC600
ENDCHAR
STARTCHAR ij
ENCODING 307
SWIDTH 548 0
DWIDTH 9 0
BBX 8 15 0 -4
BITMAP
06E101D8
05C100B7
00000000
4BE009D7
06E000D7
06E000D7
06E000D7
06E000D7
06E000D7
06F000D7
6EFD10D7
000000D7
000000D5
000B50E1
0009EA50
ENDCHAR
STARTCHAR Jcircumflex
ENCODING 308
SWIDTH 396 0
DWIDTH 6 0
BBX 6 15 0 0
BITMAP
000740
007CE2
03A03A
000000
06DFFC
001FA0
000E80
000E80
000E80
000E80
000E80
000E80
100E80
E81F50
8EC900
ENDCHAR
STARTCHAR jcircumflex
ENCODING 309
SWIDTH 263 0
DWIDTH 4 0
BBX 7 16 -2 -4
BITMAP
00056000
003DC400
00A21A10
00000000
005BD000
0007E000
0006E000
0006E000
0006E000
0006E000
0006E000
0006E000
0006E000
0006C000
5B088000
3DC91000
ENDCHAR
STARTCHAR Kcommaaccent
ENCODING 310
SWIDTH 702 0
DWIDTH 11 0
BBX 12 16 0 -5
BITMAP
5DFFC25EFE50
01EA000BB100
00D900690000
00D906800000
00D977000000
00DDF5000000
00D98F500000
00D908F50000
00D9008F6000
01EA000BF700
5DFFC25EFFD2
000000000000
00002C500000
00003EB00000
000003800000
000028000000
ENDCHAR
STARTCHAR kcommaaccent
ENCODING 311
SWIDTH 542 0
DWIDTH 9 0
BBX 9 16 0 -5
BITMAP
3AD0000000
06E0000000
06E0000000
06E05EFD10
06E01C5000
06E1A30000
06EC600000
06E7F40000
06E08E3000
07E00AE300
6EFD1CFF70
0000000000
0005C20000
0007F60000
0000740000
0004600000
ENDCHAR
STARTCHAR kgreenlandic
ENCODING 312
SWIDTH 542 0
DWIDTH 9 0
BBX 9 8 0 0
BITMAP
4AE02DFD10
07E00A7000
06E0950000
06EA600000
06E8E30000
06E09E3000
06F009E300
6EFD2BFF80
ENDCHAR
STARTCHAR Lacute
ENCODING 313
SWIDTH 585 0
DWIDTH 9 0
BBX 9 14 0 0
BITMAP
000BC20000
0097000000
0000000000
4DFFD20000
01EB000000
00D9000000
00D9000000
00D9000000
00D9000000
00D9000000
00D9000020
00D90000A0
00E90004C0
3BFFCBCFA0
ENDCHAR
STARTCHAR lacute
ENCODING 314
SWIDTH 283 0
DWIDTH 5 0
BBX 5 15 0 0
BITMAP
01CC10
097000
000000
000000
4BD000
07E000
06E000
06E000
06E000
06E000
06E000
06E000
06E000
07E000
6EFD20
ENDCHAR
STARTCHAR Lcommaaccent
ENCODING 315
SWIDTH 585 0
DWIDTH 9 0
BBX 9 16 0 -5
BITMAP
4DFFD20000
01EB000000
00D9000000
00D9000000
00D9000000
00D9000000
00D9000000
00D9000020
00D90000A0
00E90004C0
3BFFCBCFA0
0000000000
0002C50000
0003EB0000
0000380000
0002800000
ENDCHAR
STARTCHAR lcommaaccent
ENCODING 316
SWIDTH 283 0
DWIDTH 5 0
BBX 5 16 0 -5
BITMAP
4BD000
07E000
06E000
06E000
06E000
06E000
06E000
06E000
06E000
07E000
6EFD20
000000
07B100
09F400
009200
055000
ENDCHAR
STARTCHAR Lcaron
ENCODING 317
SWIDTH 585 0
DWIDTH 9 0
BBX 9 11 0 0
BITMAP
4DFFD23F10
01EB004D00
00D9005700
00D9001100
00D9000000
00D9000000
00D9000000
00D9000020
00D90000A0
00E90004C0
3BFFCBCFA0
ENDCHAR
STARTCHAR lcaron
ENCODING 318
SWIDTH 366 0
DWIDTH 6 0
BBX 6 12 0 0
BITMAP
0000C7
4BD0D4
07E0C0
06E020
06E000
06E000
06E000
06E000
06E000
06E000
07E000
6EFD20
ENDCHAR
STARTCHAR Ldot
ENCODING 319
SWIDTH 605 0
DWIDTH 10 0
BBX 9 11 0 0
BITMAP
4DFFD20000
01EB000000
00D9000000
00D9000000
00D9001C50
00D9001E60
00D9000000
00D9000020
00D90000A0
00E90004C0
3BFFCBCFA0
ENDCHAR
STARTCHAR ldot
ENCODING 320
SWIDTH 357 0
DWIDTH 6 0
BBX 6 11 0 0
BITMAP
4BD000
07E000
06E000
06E000
06E07A
06E09C
06E000
06E000
06E000
07E000
6EFD20
ENDCHAR
STARTCHAR Lslash
ENCODING 321
SWIDTH 590 0
DWIDTH 9 0
BBX 10 11 0 0
BITMAP
3DFFD30000
00DC000000
00CA000000
00CA054000
00CC960000
01DC100000
3ADA000000
10CA000011
00CA000091
00DB0003D0
2AFFCBCFB0
ENDCHAR
STARTCHAR lslash
ENCODING 322
SWIDTH 290 0
DWIDTH 5 0
BBX 5 11 0 0
BITMAP
3AE000
05F000
05F000
05F220
05F910
2BF000
66F000
05F000
05F000
05F100
5EFD30
ENDCHAR
STARTCHAR Nacute
ENCODING 323
SWIDTH 742 0
DWIDTH 12 0
BBX 12 14 0 0
BITMAP
000003E80000
00002B300000
000000000000
6EF80004DFE5
03FF40001E30
00DEE2000C00
00B5FB000C00
00B09F800C00
00B00CF40C00
00B002EE1C00
00B0004FBC00
01B00007FF00
02D00000BF00
6EFD20001D00
ENDCHAR
STARTCHAR nacute
ENCODING 324
SWIDTH 576 0
DWIDTH 9 0
BBX 9 12 0 0
BITMAP
0000074000
00006D1000
0000B20000
0000000000
3BD49DB100
06F501D700
06E000AA00
06E0009B00
06E0009B00
06E0009B00
06F000AB00
6EFD2AFFB0
ENDCHAR
STARTCHAR Ncommaaccent
ENCODING 325
SWIDTH 742 0
DWIDTH 12 0
BBX 12 16 0 -5
BITMAP
6EF80004DFE5
03FF40001E30
00DEE2000C00
00B5FB000C00
00B09F800C00
00B00CF40C00
00B002EE1C00
00B0004FBC00
01B00007FF00
02D00000BF00
6EFD20001D00
000000000000
00001C600000
00002EC00000
000002A00000
000018100000
ENDCHAR
STARTCHAR ncommaaccent
ENCODING 326
SWIDTH 576 0
DWIDTH 9 0
BBX 9 13 0 -5
BITMAP
3BD49DB100
06F501D700
06E000AA00
06E0009B00
06E0009B00
06E0009B00
06F000AB00
6EFD2AFFB0
0000000000
0004C30000
0005F80000
0000660000
0003700000
ENDCHAR
STARTCHAR Ncaron
ENCODING 327
SWIDTH 742 0
DWIDTH 12 0
BBX 12 15 0 0
BITMAP
000150042000
0000886A0000
00000CE10000
000000000000
6EF80004DFE5
03FF40001E30
00DEE2000C00
00B5FB000C00
00B09F800C00
00B00CF40C00
00B002EE1C00
00B0004FBC00
01B00007FF00
02D00000BF00
6EFD20001D00
ENDCHAR
STARTCHAR ncaron
ENCODING 328
SWIDTH 576 0
DWIDTH 9 0
BBX 9 12 0 0
BITMAP
0023005000
000A486000
0002EA0000
0000000000
3BD49DB100
06F501D700
06E000AA00
06E0009B00
06E0009B00
06E0009B00
06F000AB00
6EFD2AFFB0
ENDCHAR
STARTCHAR napostrophe
ENCODING 329
SWIDTH 576 0
DWIDTH 9 0
BBX 12 11 -3 0
BITMAP
3E7000000000
3DB000000000
038000000000
2813BD49DB10
00006F501D70
00006E000AA0
00006E0009B0
00006E0009B0
00006E0009B0
00006F000AB0
0006EFD2AFFB
ENDCHAR
STARTCHAR Eng
ENCODING 330
SWIDTH 742 0
DWIDTH 12 0
BBX 12 15 0 -4
BITMAP
6EF80004EFE5
03FF40001E30
00DEE1000C00
00B6FB000C00
00B09F700C00
00B01DF30C00
00B003FD1C00
00B0006FAC00
01B0000AFF00
02D00001DF00
6EFD20003E00
000000000C00
000000000C00
000006C13A00
000004DDA200
ENDCHAR
STARTCHAR eng
ENCODING 331
SWIDTH 559 0
DWIDTH 9 0
BBX 8 12 0 -4
BITMAP
3BD49DB1
06F501D7
06E000AA
06E0009B
06E0009B
06E0009B
06F0009B
6EFD209B
0000009A
000000A8
000880C4
0006EB70
ENDCHAR
STARTCHAR Omacron
ENCODING 332
SWIDTH 738 0
DWIDTH 12 0
BBX 11 13 0 0
BITMAP
0005BBBB3000
000000000000
0006CBCC5000
00BC2004E900
07F300005F50
0DB000000EB0
1F9000000BE0
2F8000000AF0
1F9000000BE0
0DC000000EA0
08F200004F40
00BC1002D800
0007CBBB5000
ENDCHAR
STARTCHAR omacron
ENCODING 333
SWIDTH 514 0
DWIDTH 8 0
BBX 8 10 0 0
BITMAP
02BBBB60
00000000
019CCB30
0BA008E1
3F3001F7
6F1000D9
6F1000C9
3F3000E7
0BB005E1
01ADBB20
ENDCHAR
STARTCHAR Obreve
ENCODING 334
SWIDTH 738 0
DWIDTH 12 0
BBX 11 15 0 0
BITMAP
000410032000
0003800A1000
00007BB40000
000000000000
0006CBCC5000
00BC2004E900
07F300005F50
0DB000000EB0
1F9000000BE0
2F8000000AF0
1F9000000BE0
0DC000000EA0
08F200004F40
00BC1002D800
0007CBBB5000
ENDCHAR
STARTCHAR obreve
ENCODING 335
SWIDTH 514 0
DWIDTH 8 0
BBX 8 12 0 0
BITMAP
01400140
00A00730
004BB700
00000000
019CCB30
0BA008E1
3F3001F7
6F1000D9
6F1000C9
3F3000E7
0BB005E1
01ADBB20
ENDCHAR
STARTCHAR Ohungarumlaut
ENCODING 336
SWIDTH 738 0
DWIDTH 12 0
BBX 11 15 0 0
BITMAP
000001202100
00000CA8D200
0000673A1000
000000000000
0006CBCC5000
00BC2004E900
07F300005F50
0DB000000EB0
1F9000000BE0
2F8000000AF0
1F9000000BE0
0DC000000EA0
08F200004F40
00BC1002D800
0007CBBB5000
ENDCHAR
STARTCHAR ohungarumlaut
ENCODING 337
SWIDTH 514 0
DWIDTH 8 0
BBX 8 12 0 0
BITMAP
0006C5D2
000C6A80
002A1B00
00000000
019CCB30
0BA008E1
3F3001F7
6F1000D9
6F1000C9
3F3000E7
0BB005E1
01ADBB20
ENDCHAR
STARTCHAR OE
ENCODING 338
SWIDTH 945 0
DWIDTH 15 0
BBX 15 11 0 0
BITMAP
0007CBDFFBBCEF10
00BC200BD0000B20
07F20009D0000310
0DB00009D0008000
2F800009D001B000
3F800009FBBED000
2F900009D0009000
0EC00009D0000020
08F20009D0000280
00CC100BD0000A60
0007CBDFFBBCEF40
ENDCHAR
STARTCHAR oe
ENCODING 339
SWIDTH 807 0
DWIDTH 13 0
BBX 13 8 0 0
BITMAP
019CC914BCB200
0BA009BC109B00
3F3002F8004F20
6F1000EDBBCD40
6F1000E7000000
3F4001FB000000
0BB007FF500530
01ADCB47DCA400
ENDCHAR
STARTCHAR Racute
ENCODING 340
SWIDTH 659 0
DWIDTH 11 0
BBX 11 14 0 0
BITMAP
00004F700000
0003B3000000
000000000000
2AFDABC70000
00E9004F7000
00D9000EB000
00D9000F9000
00D9019D2000
00DDBF710000
00D90CD10000
00D903FA0000
00D9008F5000
00EB001DE200
4DFFC205FE70
ENDCHAR
STARTCHAR racute
ENCODING 341
SWIDTH 380 0
DWIDTH 6 0
BBX 6 12 0 0
BITMAP
000560
001E40
007500
000000
3AD2CB
07E879
06F100
06E000
06E000
06E000
06F100
6EFD50
ENDCHAR
STARTCHAR Rcommaaccent
ENCODING 342
SWIDTH 659 0
DWIDTH 11 0
BBX 11 16 0 -5
BITMAP
2AFDABC70000
00E9004F7000
00D9000EB000
00D9000F9000
00D9019D2000
00DDBF710000
00D90CD10000
00D903FA0000
00D9008F5000
00EB001DE200
4DFFC205FE70
000000000000
00006C200000
00008F500000
000008300000
000055000000
ENDCHAR
STARTCHAR rcommaaccent
ENCODING 343
SWIDTH 380 0
DWIDTH 6 0
BBX 6 13 0 -5
BITMAP
3AD2CB
07E879
06F100
06E000
06E000
06E000
06F100
6EFD50
000000
03C300
05F800
005600
037000
ENDCHAR
STARTCHAR Rcaron
ENCODING 344
SWIDTH 659 0
DWIDTH 11 0
BBX 11 15 0 0
BITMAP
001400410000
000A77900000
0001DD100000
000000000000
2AFDABC70000
00E9004F7000
00D9000EB000
00D9000F9000
00D9019D2000
00DDBF710000
00D90CD10000
00D903FA0000
00D9008F5000
00EB001DE200
4DFFC205FE70
ENDCHAR
STARTCHAR rcaron
ENCODING 345
SWIDTH 380 0
DWIDTH 6 0
BBX 6 12 0 0
BITMAP
050032
0684A0
00BE10
000000
3AD2CB
07E879
06F100
06E000
06E000
06E000
06F100
6EFD50
ENDCHAR
STARTCHAR Sacute
ENCODING 346
SWIDTH 504 0
DWIDTH 8 0
BBX 8 14 0 0
BITMAP
0004F700
002B3000
00000000
03BCDFE0
1E6004F0
3F3000A0
1FB10000
06FD5000
004DFB20
00007FD1
000005F7
640000F7
6C1004F3
5FECCC50
ENDCHAR
STARTCHAR sacute
ENCODING 347
SWIDTH 394 0
DWIDTH 6 0
BBX 6 12 0 0
BITMAP
000570
001E50
006600
000000
08CBA6
4D0086
4E3025
0AF910
004CE4
5200BC
59008C
5ACCB3
ENDCHAR
STARTCHAR Scircumflex
ENCODING 348
SWIDTH 504 0
DWIDTH 8 0
BBX 8 15 0 0
BITMAP
00056000
004DD400
01B11A10
00000000
03BCDFE0
1E6004F0
3F3000A0
1FB10000
06FD5000
004DFB20
00007FD1
000005F7
640000F7
6C1004F3
5FECCC50
ENDCHAR
STARTCHAR scircumflex
ENCODING 349
SWIDTH 394 0
DWIDTH 6 0
BBX 6 12 0 0
BITMAP
004700
01DB60
093092
000000
08CBA6
4D0086
4E3025
0AF910
004CE4
5200BC
59008C
5ACCB3
ENDCHAR
STARTCHAR uni015E
ENCODING 350
SWIDTH 504 0
DWIDTH 8 0
BBX 8 15 0 -4
BITMAP
03BCDFE0
1E6004F0
3F3000A0
1FB10000
06FD5000
004DFB20
00007FD1
000005F7
640000F7
6C1004F3
5FECCC50
00050000
0008A200
00008700
003AB200
ENDCHAR
STARTCHAR uni015F
ENCODING 351
SWIDTH 394 0
DWIDTH 6 0
BBX 6 12 0 -4
BITMAP
08CBA6
4D0086
4E3025
0AF910
004CE4
5200BC
59008C
5ACCB3
004100
007A40
0005A0
01AC30
ENDCHAR
STARTCHAR Scaron
ENCODING 352
SWIDTH 504 0
DWIDTH 8 0
BBX 8 15 0 0
BITMAP
01500420
00886A00
000CE100
00000000
03BCDFE0
1E6004F0
3F3000A0
1FB10000
06FD5000
004DFB20
00007FD1
000005F7
640000F7
6C1004F3
5FECCC50
ENDCHAR
STARTCHAR scaron
ENCODING 353
SWIDTH 394 0
DWIDTH 6 0
BBX 6 12 0 0
BITMAP
050032
0684A0
00AE20
000000
08CBA6
4D0086
4E3025
0AF910
004CE4
5200BC
59008C
5ACCB3
ENDCHAR
STARTCHAR uni0162
ENCODING 354
SWIDTH 603 0
DWIDTH 10 0
BBX 10 15 0 -4
BITMAP
9FCBFDBDF4
A300E80095
8000E80035
0000E80000
0000E80000
0000E80000
0000E80000
0000E80000
0000E80000
0001FA0000
006DFFC200
0000500000
00009A2000
0000096000
0004BB1000
ENDCHAR
STARTCHAR uni0163
ENCODING 355
SWIDTH 315 0
DWIDTH 5 0
BBX 5 14 0 -4
BITMAP
00A000
08C000
4DEB70
08C000
08C000
08C000
08C000
08C000
07D030
02DB50
005000
008A30
000780
02AB20
ENDCHAR
STARTCHAR Tcaron
ENCODING 356
SWIDTH 603 0
DWIDTH 10 0
BBX 10 15 0 0
BITMAP
0033005000
000B597000
0002EB0000
0000000000
9FCBFDBDF4
A300E80095
8000E80035
0000E80000
0000E80000
0000E80000
0000E80000
0000E80000
0000E80000
0001FA0000
006DFFC200
ENDCHAR
STARTCHAR tcaron
ENCODING 357
SWIDTH 353 0
DWIDTH 6 0
BBX 6 12 0 0
BITMAP
0000D6
0000E3
00A0C0
08C020
4DEB70
08C000
08C000
08C000
08C000
08C000
07D030
02DB50
ENDCHAR
STARTCHAR Tbar
ENCODING 358
SWIDTH 603 0
DWIDTH 10 0
BBX 10 11 0 0
BITMAP
9FCBFDBDF4
A300E80095
9000E80045
1000E80001
0000E80000
00BBFDB700
0000E80000
0000E80000
0000E80000
0001FA0000
005DFFC200
ENDCHAR
STARTCHAR tbar
ENCODING 359
SWIDTH 328 0
DWIDTH 5 0
BBX 5 10 0 0
BITMAP
00A000
07D000
3DEB70
07D000
4DEB70
07D000
07D000
07D000
06E030
02DB50
ENDCHAR
STARTCHAR Utilde
ENCODING 360
SWIDTH 752 0
DWIDTH 12 0
BBX 12 14 0 0
BITMAP
00006C937000
0000518C5000
000000000000
8EFFB002DFF9
03F700000C60
02F500000A40
02F500000A40
02F500000A40
02F500000A40
02F500000A30
01F600000B30
00E900000D00
007E30008800
0007CCBB7000
ENDCHAR
STARTCHAR utilde
ENCODING 361
SWIDTH 570 0
DWIDTH 9 0
BBX 9 11 0 0
BITMAP
006C938000
00618C5000
0000000000
5DC01AE800
09C000D800
08C000C800
08C000C800
08C000C800
08C000C800
05F204E800
00ADA5BC40
ENDCHAR
STARTCHAR Umacron
ENCODING 362
SWIDTH 752 0
DWIDTH 12 0
BBX 12 13 0 0
BITMAP
0000BBBB8000
000000000000
8EFFB002DFF9
03F700000C60
02F500000A40
02F500000A40
02F500000A40
02F500000A40
02F500000A30
01F600000B30
00E900000D00
007E30008800
0007CCBB7000
ENDCHAR
STARTCHAR umacron
ENCODING 363
SWIDTH 570 0
DWIDTH 9 0
BBX 9 10 0 0
BITMAP
00ABBB8000
0000000000
5DC01AE800
09C000D800
08C000C800
08C000C800
08C000C800
08C000C800
05F204E800
00ADA5BC40
ENDCHAR
STARTCHAR Ubreve
ENCODING 364
SWIDTH 752 0
DWIDTH 12 0
BBX 12 15 0 0
BITMAP
000050005000
0000A1047000
00002AB91000
000000000000
8EFFB002DFF9
03F700000C60
02F500000A40
02F500000A40
02F500000A40
02F500000A40
02F500000A30
01F600000B30
00E900000D00
007E30008800
0007CCBB7000
ENDCHAR
STARTCHAR ubreve
ENCODING 365
SWIDTH 570 0
DWIDTH 9 0
BBX 9 12 0 0
BITMAP
0050005000
0091047000
002AB90000
0000000000
5DC01AE800
09C000D800
08C000C800
08C000C800
08C000C800
08C000C800
05F204E800
00ADA5BC40
ENDCHAR
STARTCHAR Uring
ENCODING 366
SWIDTH 752 0
DWIDTH 12 0
BBX 12 14 0 0
BITMAP
00000AC70000
0000380C0000
00000AB70000
8EFFB002DFF9
03F700000C60
02F500000A40
02F500000A40
02F500000A40
02F500000A40
02F500000A30
01F600000B30
00E900000D00
007E30008800
0007CCBB7000
ENDCHAR
STARTCHAR uring
ENCODING 367
SWIDTH 570 0
DWIDTH 9 0
BBX 9 13 0 0
BITMAP
0007950000
00290B0000
00290B0000
0007950000
0000000000
5DC01AE800
09C000D800
08C000C800
08C000C800
08C000C800
08C000C800
05F204E800
00ADA5BC40
ENDCHAR
STARTCHAR Uhungarumlaut
ENCODING 368
SWIDTH 752 0
DWIDTH 12 0
BBX 12 15 0 0
BITMAP
000000211100
000005E5E700
00001B295000
000000000000
8EFFB002DFF9
03F700000C60
02F500000A40
02F500000A40
02F500000A40
02F500000A40
02F500000A30
01F600000B30
00E900000D00
007E30008800
0007CCBB7000
ENDCHAR
STARTCHAR uhungarumlaut
ENCODING 369
SWIDTH 570 0
DWIDTH 9 0
BBX 9 12 0 0
BITMAP
0003D5D500
000997B000
000B1B1000
0000000000
5DC01AE800
09C000D800
08C000C800
08C000C800
08C000C800
08C000C800
05F204E800
00ADA5BC40
ENDCHAR
STARTCHAR Uogonek
ENCODING 370
SWIDTH 753 0
DWIDTH 12 0
BBX 12 15 0 -4
BITMAP
8EFFB002DFF9
03F700000C60
02F500000A40
02F500000A40
02F500000A40
02F500000A40
02F500000A30
01F600000B30
00E900000D10
007E30008C00
0007CCCEE300
000000B81000
000006A00000
00000A702000
000005EA3000
ENDCHAR
STARTCHAR uogonek
ENCODING 371
SWIDTH 570 0
DWIDTH 9 0
BBX 9 12 0 -4
BITMAP
5DC01AE800
09C000D800
08C000C800
08C000C800
08C000C800
08C000C800
05F204E800
00ADA5BD40
0000059000
00001D0000
00003D0100
00001CC700
ENDCHAR
STARTCHAR Wcircumflex
ENCODING 372
SWIDTH 944 0
DWIDTH 15 0
BBX 17 15 -1 0
BITMAP
000000037100000000
0000001DCA00000000
000000950850000000
000000000000000000
2EFFC09FFE502DFD10
01DF0007F40003D000
006F4001E900058000
001EA000BE000A3000
0009F101DF501C0000
0004F6066DB0580000
0000DC0B17F1A20000
00007F5A02F7C00000
00001FE400BE700000
00000AD0005F200000
00000480001B000000
ENDCHAR
STARTCHAR wcircumflex
ENCODING 373
SWIDTH 749 0
DWIDTH 12 0
BBX 14 12 -1 0
BITMAP
00000055000000
000004CC300000
00001A11A10000
00000000000000
3EFD29FF707FE2
02F6009D000B30
00AC005F301B00
004F209D806500
000D8196E0A100
0008E631F69000
0002FB00AE3000
0000B6005C0000
ENDCHAR
STARTCHAR Ycircumflex
ENCODING 374
SWIDTH 647 0
DWIDTH 10 0
BBX 12 15 -1 0
BITMAP
000002820000
00000CBB0000
000085076000
000000000000
1DFFD201DFE5
00AF40002D10
001DC0009300
0004F7039000
0000AE1B1000
00002ED60000
000008F00000
000008E00000
000008E00000
000009F10000
0001CFFE7000
ENDCHAR
STARTCHAR ycircumflex
ENCODING 375
SWIDTH 483 0
DWIDTH 8 0
BBX 9 16 -1 -4
BITMAP
0000470000
0002DB6000
0009209200
0000000000
2EFD30AFC0
03F6001D00
00BC005700
004F40A200
000CA0A000
0005F66000
0000DD1000
00008A0000
0000940000
0001C00000
099B500000
0AE8000000
ENDCHAR
STARTCHAR Ydieresis
ENCODING 376
SWIDTH 647 0
DWIDTH 10 0
BBX 12 14 -1 0
BITMAP
0001B406B000
0001E607D000
000000000000
1DFFD201DFE5
00AF40002D10
001DC0009300
0004F7039000
0000AE1B1000
00002ED60000
000008F00000
000008E00000
000008E00000
000009F10000
0001CFFE7000
ENDCHAR
STARTCHAR Zacute
ENCODING 377
SWIDTH 594 0
DWIDTH 10 0
BBX 9 14 0 0
BITMAP
00004F7000
0002B30000
0000000000
0DECBBCFD0
0D10008F40
080003F900
00000DD100
00008F4000
0003F90000
000CD10000
008F400010
03FA000090
0CE10003C0
7FDBBBCFA0
ENDCHAR
STARTCHAR zacute
ENCODING 378
SWIDTH 458 0
DWIDTH 7 0
BBX 7 12 0 0
BITMAP
00007400
0005D100
000B2000
00000000
3FBABFA0
38008E20
2203F600
000DB000
008E2000
03F60060
0CB003B0
6FCABEA0
ENDCHAR
STARTCHAR Zdotaccent
ENCODING 379
SWIDTH 594 0
DWIDTH 10 0
BBX 9 14 0 0
BITMAP
0000890000
0000AB0000
0000000000
0DECBBCFD0
0D10008F40
080003F900
00000DD100
00008F4000
0003F90000
000CD10000
008F400010
03FA000090
0CE10003C0
7FDBBBCFA0
ENDCHAR
STARTCHAR zdotaccent
ENCODING 380
SWIDTH 458 0
DWIDTH 7 0
BBX 7 11 0 0
BITMAP
000B7000
000D8000
00000000
3FBABFA0
38008E20
2203F600
000DB000
008E2000
03F60060
0CB003B0
6FCABEA0
ENDCHAR
STARTCHAR Zcaron
ENCODING 381
SWIDTH 594 0
DWIDTH 10 0
BBX 9 15 0 0
BITMAP
0015004100
000976A000
0001DD1000
0000000000
0DECBBCFD0
0D10008F40
080003F900
00000DD100
00008F4000
0003F90000
000CD10000
008F400010
03FA000090
0CE10003C0
7FDBBBCFA0
ENDCHAR
STARTCHAR zcaron
ENCODING 382
SWIDTH 458 0
DWIDTH 7 0
BBX 7 12 0 0
BITMAP
02300500
00A48600
002EB000
00000000
3FBABFA0
38008E20
2203F600
000DB000
008E2000
03F60060
0CB003B0
6FCABEA0
ENDCHAR
STARTCHAR longs
ENCODING 383
SWIDTH 285 0
DWIDTH 5 0
BBX 6 11 0 0
BITMAP
006BEB
02F137
05E000
7DE000
06E000
06E000
06E000
06E000
06E000
07F100
8FFE70
ENDCHAR
STARTCHAR uni0180
ENCODING 384
SWIDTH 522 0
DWIDTH 8 0
BBX 8 11 0 0
BITMAP
4C900000
AEEBB900
0B900000
0B97BE70
0BD103F5
0B9000CA
0B9000BC
0B9000BB
0B9000D7
0BB005D1
05CDBA20
ENDCHAR
STARTCHAR uni0188
ENCODING 392
SWIDTH 446 0
DWIDTH 7 0
BBX 9 11 0 0
BITMAP
000002BE40
0000091760
00000A0000
019CDD0000
0B703F7000
3E00074000
6C00000000
7D00000000
4F20000000
0DA0027000
02BDB70000
ENDCHAR
STARTCHAR uni0190
ENCODING 400
SWIDTH 518 0
DWIDTH 8 0
BBX 8 11 0 0
BITMAP
019CCD91
0DB006F7
2F5000A5
1F600000
05D30000
006FD900
09C20000
3F500000
5F400000
2FA00047
04BDBA60
ENDCHAR
STARTCHAR uni0192
ENCODING 402
SWIDTH 301 0
DWIDTH 5 0
BBX 8 15 -2 -4
BITMAP
00006BEA
0003E037
0006E000
007DFBA0
0006E000
0006E000
0006E000
0006E000
0006E000
0006E000
0006E000
0006D000
0006C000
5C089000
2CDB1000
ENDCHAR
STARTCHAR uni0195
ENCODING 405
SWIDTH 798 0
DWIDTH 13 0
BBX 12 11 0 0
BITMAP
4BD000000000
06E000000000
06E000000000
06E49DA001E4
06F502F500BB
06E000C8002E
06E000C8000B
06E000C8000A
06E000B90009
07E0009B0044
6EFD102BCA60
ENDCHAR
STARTCHAR uni0199
ENCODING 409
SWIDTH 538 0
DWIDTH 9 0
BBX 9 11 0 0
BITMAP
004BDD4000
01E0173000
06D0000000
07D05EFC00
07D01C4000
07D1A20000
07ED500000
07D8E30000
07D09E2000
08D00BD200
7EFC1CFE70
ENDCHAR
STARTCHAR uni019A
ENCODING 410
SWIDTH 287 0
DWIDTH 5 0
BBX 5 11 0 0
BITMAP
3AE000
06E000
06E000
06E000
6DFB20
06E000
06E000
06E000
06E000
06F000
6EFD20
ENDCHAR
STARTCHAR uni019B
ENCODING 411
SWIDTH 495 0
DWIDTH 8 0
BBX 10 11 -1 0
BITMAP
05EB425000
0012E81000
0048670000
00002D0000
00009E3000
0002F68000
0009D0A000
002F606500
009D002A00
02F8000C20
2EFE308FD1
ENDCHAR
STARTCHAR uni019E
ENCODING 414
SWIDTH 559 0
DWIDTH 9 0
BBX 9 12 0 -4
BITMAP
3BD49DB100
06F501E700
06E000AA00
06E0009B00
06E0009B00
06E0009B00
06F0009B00
6EFD209B00
0000009B00
0000009B00
0000009B00
0000009FB0
ENDCHAR
STARTCHAR Ohorn
ENCODING 416
SWIDTH 737 0
DWIDTH 12 0
BBX 12 14 0 0
BITMAP
000000000161
0000000002F5
0000000001D3
0007CBDFFB60
00BC2004E800
07F200005F50
0DB000000EB0
2F9000000BE0
3F8000000BE0
2F9000000BD0
0EB000000E90
08F200004F30
00CC1002D700
0007CBBB5000
ENDCHAR
STARTCHAR ohorn
ENCODING 417
SWIDTH 516 0
DWIDTH 8 0
BBX 9 11 0 0
BITMAP
0000001500
0000003F10
0000001D00
019CDFC400
0BA008D100
3F3001F600
6F1000DA00
6F1000CA00
3F3000E700
0BB005E100
01ADBB3000
ENDCHAR
STARTCHAR uni01A5
ENCODING 421
SWIDTH 522 0
DWIDTH 8 0
BBX 8 15 0 -4
BITMAP
007AEC10
04A02910
09900000
0B97BE70
0BD104F5
0B9000CA
0B9000AC
0B9000BB
0B9000D7
0BD205E1
0BDCCB20
0B900000
0B900000
0CB00000
BFFC2000
ENDCHAR
STARTCHAR uni01AA
ENCODING 426
SWIDTH 298 0
DWIDTH 5 0
BBX 8 15 -1 -4
BITMAP
5BC50000
902E1000
A11E4000
4AAE6000
000E6000
000E6000
000E6000
000E6000
000E6000
000E6000
000E6000
000E6000
000C6000
000970B4
0002BDD2
ENDCHAR
STARTCHAR uni01AB
ENCODING 427
SWIDTH 321 0
DWIDTH 5 0
BBX 5 14 0 -4
BITMAP
00A000
08C000
4DEB70
08C000
08C000
08C000
08C000
08C000
07D030
02DBD0
0000B0
0000A0
0370A0
02DA40
ENDCHAR
STARTCHAR uni01AD
ENCODING 429
SWIDTH 315 0
DWIDTH 5 0
BBX 7 11 0 0
BITMAP
006BDD30
04D01730
09C00000
3DEB7000
08C00000
08C00000
08C00000
08C00000
08C00000
07D03000
02DB5000
ENDCHAR
STARTCHAR Uhorn
ENCODING 431
SWIDTH 762 0
DWIDTH 12 0
BBX 14 14 0 0
BITMAP
000000000005D1
000000000004F2
000000000002A0
8EFFB002DFC500
03F700000C5000
02F500000A4000
02F500000A4000
02F500000A4000
02F500000A4000
02F500000A3000
01F600000B2000
00E900000C0000
007E4000870000
0007CDBB600000
ENDCHAR
STARTCHAR uhorn
ENCODING 432
SWIDTH 574 0
DWIDTH 9 0
BBX 10 11 0 0
BITMAP
0000000060
00000001E4
00000000C2
6CB01ADD60
0AC001E800
08C000C800
08C000C800
08C000C800
08C000C800
05F203E800
00ADA5BC40
ENDCHAR
STARTCHAR uni01B5
ENCODING 437
SWIDTH 594 0
DWIDTH 10 0
BBX 9 11 0 0
BITMAP
0DFCBBCFD0
0D20007F40
090002FA00
00000BE100
00005F6000
02BCEEB900
0009F30000
005F700000
02EB000080
0BE20002C0
6FDBBBCFB0
ENDCHAR
STARTCHAR uni01BA
ENCODING 442
SWIDTH 430 0
DWIDTH 7 0
BBX 7 12 0 -4
BITMAP
7ECBEE00
7305F300
302E5000
01C80000
04ACE600
00007F20
00004F30
0001BB00
028A6000
29101200
4701CB00
0ACDC300
ENDCHAR
STARTCHAR uni01BB
ENCODING 443
SWIDTH 508 0
DWIDTH 8 0
BBX 8 11 0 0
BITMAP
029BD910
19101DA0
210008F0
000009D0
00000D70
2BBBDEB6
0002D100
001C3000
00B50015
09922394
6FFFFFF1
ENDCHAR
STARTCHAR uni01BE
ENCODING 446
SWIDTH 406 0
DWIDTH 7 0
BBX 6 10 0 0
BITMAP
00A000
07E000
4DFBA0
06E000
015BA1
0000CA
00006F
52006F
6900AB
5ACCB2
ENDCHAR
STARTCHAR uni01C0
ENCODING 448
SWIDTH 250 0
DWIDTH 4 0
BBX 2 11 1 0
BITMAP
AA
AA
AA
AA
AA
AA
AA
AA
AA
AA
AA
ENDCHAR
STARTCHAR uni01C1
ENCODING 449
SWIDTH 423 0
DWIDTH 7 0
BBX 5 11 1 0
BITMAP
AA0D60
AA0D60
AA0D60
AA0D60
AA0D60
AA0D60
AA0D60
AA0D60
AA0D60
AA0D60
AA0D60
ENDCHAR
STARTCHAR uni01C2
ENCODING 450
SWIDTH 422 0
DWIDTH 7 0
BBX 7 11 0 0
BITMAP
004F0000
004F0000
004F0000
4BCFBB10
004F0000
4BCFBB10
004F0000
004F0000
004F0000
004F0000
004F0000
ENDCHAR
STARTCHAR uni01C3
ENCODING 451
SWIDTH 245 0
DWIDTH 4 0
BBX 2 11 1 0
BITMAP
A9
CB
BA
A9
98
86
65
54
11
98
BA
ENDCHAR
STARTCHAR uni01DE
ENCODING 478
SWIDTH 718 0
DWIDTH 11 0
BBX 12 15 0 0
BITMAP
0008BBBB0000
000A703C2000
000C904E2000
000000000000
00000D300000
00004F900000
0000BBF10000
0002C3F70000
000870DE0000
001E107F5000
006A002FC000
00CDBBBEF300
03D00005FA00
0B700000DF30
CFE5000AFFE5
ENDCHAR
STARTCHAR uni01DF
ENCODING 479
SWIDTH 480 0
DWIDTH 8 0
BBX 8 13 0 0
BITMAP
07BBBB00
00000000
09803C20
0B904E20
00000000
04BBD500
0E607E00
0A203F20
00038F20
05B64F20
3F203F20
5F204F20
1BD93DB3
ENDCHAR
STARTCHAR uni01F0
ENCODING 496
SWIDTH 263 0
DWIDTH 4 0
BBX 7 16 -2 -4
BITMAP
00500410
00775900
000CD100
00000000
005BD000
0007E000
0006E000
0006E000
0006E000
0006E000
0006E000
0006E000
0006E000
0006C000
5B088000
3DC91000
ENDCHAR
STARTCHAR Aringacute
ENCODING 506
SWIDTH 718 0
DWIDTH 11 0
BBX 12 17 0 0
BITMAP
000009D30000
000079100000
000000000000
00007CA00000
0000C0840000
00007CA10000
00000D300000
00004F900000
0000BBF10000
0002C3F70000
000870DE0000
001E107F5000
006A002FC000
00CDBBBEF300
03D00005FA00
0B700000DF30
CFE5000AFFE5
ENDCHAR
STARTCHAR aringacute
ENCODING 507
SWIDTH 480 0
DWIDTH 8 0
BBX 8 15 0 0
BITMAP
0009E300
00691000
00498000
00B08300
00B08400
00498000
00000000
04BBD500
0E607E00
0A203F20
00038F20
05B64F20
3F203F20
5F204F20
1BD93DB3
ENDCHAR
STARTCHAR AEacute
ENCODING 508
SWIDTH 894 0
DWIDTH 14 0
BBX 15 14 -1 0
BITMAP
0000000004F70000
000000003B300000
0000000000000000
000003CEFBBBDF40
000000A8F1000940
00000386F1000450
00000A16F1000000
00004706F1009100
0000CCBDFCBDF100
00058006F100B100
000C1006F1007100
00770006F1000060
02E10007F1000590
4EFD10BFFBBBDF70
ENDCHAR
STARTCHAR aeacute
ENCODING 509
SWIDTH 709 0
DWIDTH 11 0
BBX 11 12 0 0
BITMAP
000005600000
00001E400000
000075000000
000000000000
04BCC39BD600
1F409F603F30
09105F100C90
0004AFBBBDA0
05C77F100000
3F204F300000
5F205FA00270
1BDA65CDB800
ENDCHAR
STARTCHAR Oslashacute
ENCODING 510
SWIDTH 737 0
DWIDTH 12 0
BBX 11 14 0 0
BITMAP
000006E50000
00004B200000
000000000000
0007CBBB3A00
00BC2004F900
08F20005CF30
0DB000291EA0
2F9001A10CD0
3F8009200BE0
2F9075000BD0
0EB470000EA0
08FA00004F40
01EC1002D800
0836CCBB5000
ENDCHAR
STARTCHAR oslashacute
ENCODING 511
SWIDTH 514 0
DWIDTH 8 0
BBX 8 12 0 0
BITMAP
00007400
0005D100
000B2000
00000000
019CCAA0
0BA00BD1
4F3057F7
6F1380DA
6F2A00CA
3FB200E7
0CA005E1
379CBB30
ENDCHAR
STARTCHAR uni0218
ENCODING 536
SWIDTH 504 0
DWIDTH 8 0
BBX 8 16 0 -5
BITMAP
03BCDFE0
1E6004F0
3F3000A0
1FB10000
06FD5000
004DFB20
00007FD1
000005F7
640000F7
6C1004F3
5FECCC50
00000000
000B8000
000DE000
0000B000
00082000
ENDCHAR
STARTCHAR uni0219
ENCODING 537
SWIDTH 394 0
DWIDTH 6 0
BBX 6 13 0 -5
BITMAP
08CBA6
4D0086
4E3025
0AF910
004CE4
5200BC
59008C
5ACCB3
000000
008A00
00BF20
000B10
007300
ENDCHAR
STARTCHAR uni021A
ENCODING 538
SWIDTH 603 0
DWIDTH 10 0
BBX 10 16 0 -5
BITMAP
9FCBFDBDF4
A300E80095
8000E80035
0000E80000
0000E80000
0000E80000
0000E80000
0000E80000
0000E80000
0001FA0000
006DFFC200
0000000000
0000B70000
0001ED0000
00001A0000
0000810000
ENDCHAR
STARTCHAR uni021B
ENCODING 539
SWIDTH 315 0
DWIDTH 5 0
BBX 5 15 0 -5
BITMAP
00A000
08C000
4DEB70
08C000
08C000
08C000
08C000
08C000
07D030
02DB50
000000
00A900
00DF00
000B00
008200
ENDCHAR
STARTCHAR uni0221
ENCODING 545
SWIDTH 674 0
DWIDTH 11 0
BBX 11 14 0 -3
BITMAP
00002AE10000
000004F10000
000004F10000
008CBCF10000
0AA007F10000
2F2004F10000
6F0004F10000
7F0004F10000
5F1004F14B70
1E8006F471A0
04DC96BEBA30
000000640000
000000900000
000001200000
ENDCHAR
STARTCHAR uni0228
ENCODING 552
SWIDTH 626 0
DWIDTH 10 0
BBX 10 15 0 -4
BITMAP
3AFDBBBDF0
00E90000B0
00D9000030
00D9000800
00D9001B00
00DEBBEC00
00D9000900
00D9000002
00D9000037
00E90000B5
3AFDBBBEF3
0000410000
00006A4000
000005A000
0001AC4000
ENDCHAR
STARTCHAR uni0229
ENCODING 553
SWIDTH 464 0
DWIDTH 7 0
BBX 7 12 0 -4
BITMAP
01ABD700
0C502F40
4E000BA0
6EBBBCB0
6D000000
4F200000
0CB00170
01ADB810
00050000
0009A100
0000A500
004BA100
ENDCHAR
STARTCHAR uni0234
ENCODING 564
SWIDTH 399 0
DWIDTH 6 0
BBX 7 14 0 -3
BITMAP
7C900000
0B900000
0B900000
0B900000
0B900000
0B900000
0B900000
0B900000
0B919C30
0AA92560
04DDB910
00900000
06400000
03000000
ENDCHAR
STARTCHAR uni0235
ENCODING 565
SWIDTH 702 0
DWIDTH 11 0
BBX 12 11 0 -3
BITMAP
3BD39DA00000
06F602F50000
06E000D70000
06E000C80000
06E000C80000
06E000C81AB1
06F000B98264
6EFD205EDB70
000000090000
000000730000
000000300000
ENDCHAR
STARTCHAR uni0236
ENCODING 566
SWIDTH 406 0
DWIDTH 7 0
BBX 7 14 0 -3
BITMAP
00400000
01B00000
09C00000
4DEB9000
08C00000
08C00000
08C00000
08C00000
08C08C40
07D74280
02CEB910
00910000
03700000
02100000
ENDCHAR
STARTCHAR uni0237
ENCODING 567
SWIDTH 263 0
DWIDTH 4 0
BBX 5 12 -2 -4
BITMAP
005BD0
0007E0
0006E0
0006E0
0006E0
0006E0
0006E0
0006E0
0006E0
0006C0
5B0880
3DC910
ENDCHAR
STARTCHAR uni0250
ENCODING 592
SWIDTH 475 0
DWIDTH 8 0
BBX 7 8 0 0
BITMAP
7D76BE60
08D108E0
08C008C0
08C39A10
08D51000
08C00760
05E10C80
009DBA10
ENDCHAR
STARTCHAR uni0251
ENCODING 593
SWIDTH 542 0
DWIDTH 9 0
BBX 9 8 0 0
BITMAP
008CB9C100
0AA008F100
2F2004F100
6E0004F100
7E0004F100
5F1004F100
1E8005F100
04DC98E810
ENDCHAR
STARTCHAR uni0252
ENCODING 594
SWIDTH 544 0
DWIDTH 9 0
BBX 9 8 0 0
BITMAP
3BD7ADB100
06E201CA00
06E0006F00
06E0004F20
06E0004F10
06E0007C00
06F302D500
069BBC5000
ENDCHAR
STARTCHAR uni0253
ENCODING 595
SWIDTH 518 0
DWIDTH 8 0
BBX 7 11 1 0
BITMAP
07BEB100
69039100
B8000000
C97BE700
CC104F40
C8000D90
C8000CB0
C8000CA0
C8000E60
CA006D10
6CDBA100
ENDCHAR
STARTCHAR uni0254
ENCODING 596
SWIDTH 454 0
DWIDTH 7 0
BBX 7 8 0 0
BITMAP
04DFC400
2A34BF20
30001E80
00000AA0
00000990
17000B60
4F503D10
08DCB200
ENDCHAR
STARTCHAR uni0255
ENCODING 597
SWIDTH 447 0
DWIDTH 7 0
BBX 7 10 0 -2
BITMAP
019BDA10
0B602F70
3E000530
6C000000
7D000000
4F22AC40
0DBA1290
02DEBA20
02800000
06200000
ENDCHAR
STARTCHAR uni0256
ENCODING 598
SWIDTH 528 0
DWIDTH 8 0
BBX 11 15 0 -4
BITMAP
00002AE10000
000004F10000
000004F10000
008CCCF10000
0AA008F10000
2F2004F10000
6F0004F10000
7F0004F10000
5F1004F10000
1E8005F10000
04DC98F10000
000003F10000
000002F10000
000000E33E10
0000004BEA00
ENDCHAR
STARTCHAR uni0257
ENCODING 599
SWIDTH 542 0
DWIDTH 9 0
BBX 11 11 0 0
BITMAP
0000004BDD20
000000E31820
000002F10000
008CCCF10000
0AA008F10000
2F2004F10000
6F0004F10000
7F0004F10000
5F1004F10000
1E8005F10000
04DC98E81000
ENDCHAR
STARTCHAR uni0258
ENCODING 600
SWIDTH 466 0
DWIDTH 7 0
BBX 7 8 0 0
BITMAP
01ACC600
0C901D50
3F3007B0
5DBBBDD0
000007D0
00000AA0
35004F40
05ACC500
ENDCHAR
STARTCHAR uni0259
ENCODING 601
SWIDTH 464 0
DWIDTH 7 0
BBX 7 8 0 0
BITMAP
04DFC400
2A43AF30
20000CA0
000007C0
5DBBBDC0
4F2008A0
0C801D40
02BCB500
ENDCHAR
STARTCHAR uni025A
ENCODING 602
SWIDTH 642 0
DWIDTH 10 0
BBX 11 8 0 0
BITMAP
03CEC3000000
1B43AE253110
41000CCB6520
000007C2C900
5DBBBDD00000
4F2008B00000
0C801D400000
02BCC5000000
ENDCHAR
STARTCHAR uni025B
ENCODING 603
SWIDTH 399 0
DWIDTH 6 0
BBX 6 8 0 0
BITMAP
07CBD7
3F205C
1E5000
03DD60
2E5000
6F0000
4F3005
08DBB4
ENDCHAR
STARTCHAR uni025C
ENCODING 604
SWIDTH 398 0
DWIDTH 6 0
BBX 6 8 0 0
BITMAP
3CCBA2
6A00B9
0001C6
02CE70
0002D6
00009C
5100B9
1ABCA1
ENDCHAR
STARTCHAR uni025D
ENCODING 605
SWIDTH 575 0
DWIDTH 9 0
BBX 10 8 0 0
BITMAP
2BCB910000
8D00B83100
1101CCC561
02CEA13C80
0002B30000
00009B0000
5100BA0000
1ABCA20000
ENDCHAR
STARTCHAR uni025E
ENCODING 606
SWIDTH 500 0
DWIDTH 8 0
BBX 8 8 0 0
BITMAP
008CBC70
0AA002F3
3F2004D1
6E05DD20
6D0005D1
3F1000F6
0AA004F4
008CCD70
ENDCHAR
STARTCHAR uni025F
ENCODING 607
SWIDTH 272 0
DWIDTH 4 0
BBX 7 12 -2 -4
BITMAP
004BE000
0006F000
0005F000
007CFB20
0005F000
0005F000
0005F000
0005F000
0005E000
0006D000
4B178000
3DC91000
ENDCHAR
STARTCHAR uni0260
ENCODING 608
SWIDTH 541 0
DWIDTH 9 0
BBX 11 15 0 -4
BITMAP
0000003BDE60
000001E30750
000003F10000
008CBBF10000
09A009F10000
2F2004F10000
6E0004F10000
7E0004F10000
5F1004F10000
1E8006F10000
04CC99F10000
000004F10000
030006E00000
1F800B900000
07DCC8000000
ENDCHAR
STARTCHAR uni0261
ENCODING 609
SWIDTH 521 0
DWIDTH 8 0
BBX 8 12 0 -4
BITMAP
008CC9B1
09A009F1
2F2004F1
6E0004F1
7E0004F1
5F1004F1
1E8006F1
04CC99F1
000004F0
030006D0
1F800B80
07DCC800
ENDCHAR
STARTCHAR uni0262
ENCODING 610
SWIDTH 535 0
DWIDTH 9 0
BBX 9 8 0 0
BITMAP
018CCEF600
0BB100A600
3F40002500
6F10000000
6F100BDD30
4F4000D700
0CC100D600
018CBC8100
ENDCHAR
STARTCHAR uni0263
ENCODING 611
SWIDTH 479 0
DWIDTH 8 0
BBX 9 12 -1 -4
BITMAP
3EFD20BFD0
03F6000D00
00BB005700
005F20B100
000E82A000
0008D74000
0002FC0000
0000CA0000
0001DF1000
00064D5000
00092B6000
0005DC1000
ENDCHAR
STARTCHAR uni0264
ENCODING 612
SWIDTH 466 0
DWIDTH 7 0
BBX 8 8 0 0
BITMAP
7CB68BB1
D41E80E4
2076E220
0190B800
04507D00
06305E00
05608B00
00ACC200
ENDCHAR
STARTCHAR uni0265
ENCODING 613
SWIDTH 553 0
DWIDTH 9 0
BBX 9 12 0 -4
BITMAP
5CB007C800
09C000C800
08C000C800
08C000C800
08C000C800
08D000C800
05F203E800
00ADA6C800
000000C800
000000C800
000000C900
000000CFA0
ENDCHAR
STARTCHAR uni0266
ENCODING 614
SWIDTH 577 0
DWIDTH 9 0
BBX 9 11 0 0
BITMAP
003BDD4000
01E0084000
05E0000000
06E49DB100
06F501E700
06E000AA00
06E0009B00
06E0009B00
06E0009B00
07E000AC00
6EFD19FFB0
ENDCHAR
STARTCHAR uni0267
ENCODING 615
SWIDTH 562 0
DWIDTH 9 0
BBX 8 15 0 -4
BITMAP
003BDD40
01E00840
05E00000
06E49DB1
06F501E7
06E000AA
06E0009B
06E0009B
06E0009B
07E0009B
6EFD109B
0000009A
000000A9
000880B4
0006EB70
ENDCHAR
STARTCHAR uni0268
ENCODING 616
SWIDTH 295 0
DWIDTH 5 0
BBX 5 11 0 0
BITMAP
05E200
04C100
000000
3BE100
05F100
04F100
5CFB20
04F100
04F100
05F100
5EFD20
ENDCHAR
STARTCHAR uni0269
ENCODING 617
SWIDTH 286 0
DWIDTH 5 0
BBX 5 8 0 0
BITMAP
5CB000
09C000
08C000
08C000
08C000
08C000
07D020
03DB50
ENDCHAR
STARTCHAR uni026A
ENCODING 618
SWIDTH 287 0
DWIDTH 5 0
BBX 5 8 0 0
BITMAP
6EFD10
06F000
06E000
06E000
06E000
06E000
06F000
6EFD10
ENDCHAR
STARTCHAR uni026B
ENCODING 619
SWIDTH 290 0
DWIDTH 5 0
BBX 5 11 0 0
BITMAP
4BE000
06E000
06E000
06E000
6DE060
66FB20
06E000
06E000
06E000
06F000
6EFD20
ENDCHAR
STARTCHAR uni026C
ENCODING 620
SWIDTH 318 0
DWIDTH 5 0
BBX 6 11 0 0
BITMAP
07D600
00E600
00E600
7CF600
D0E600
D1E881
5CFC20
00E600
00E600
00E700
0DFE80
ENDCHAR
STARTCHAR uni026D
ENCODING 621
SWIDTH 248 0
DWIDTH 4 0
BBX 6 15 0 -4
BITMAP
7C9000
0B9000
0B9000
0B9000
0B9000
0B9000
0B9000
0B9000
0B9000
0B9000
0B9000
0A9000
099000
05B097
008BE5
ENDCHAR
STARTCHAR uni026E
ENCODING 622
SWIDTH 590 0
DWIDTH 9 0
BBX 10 15 0 -4
BITMAP
3AD0000000
06E0000000
06E0000000
06FBBBBFD0
06E0005F40
06E001E800
06E00AC000
06E06F3000
06E048C810
07F0001DB0
6EFD2006F1
00000004F3
00040007E1
003F502D60
0009EBB400
ENDCHAR
STARTCHAR uni026F
ENCODING 623
SWIDTH 846 0
DWIDTH 14 0
BBX 13 8 0 0
BITMAP
5CB01AE504BE00
09C001F5007E00
08C000F5006E00
08C000F5006E00
08C000F5006E00
08C000F5006E00
06E106F801BE00
01BDA45EB76E80
ENDCHAR
STARTCHAR uni0270
ENCODING 624
SWIDTH 826 0
DWIDTH 13 0
BBX 14 12 0 -4
BITMAP
5CB01AE504BE00
09C001F5007E00
08C000F5006E00
08C000F5006E00
08C000F5006E00
08C000F5006E00
06E106F801BE00
01BDA45EB86E00
00000000005E00
00000000005E00
00000000005F00
00000000005FD2
ENDCHAR
STARTCHAR uni0271
ENCODING 625
SWIDTH 835 0
DWIDTH 13 0
BBX 13 12 0 -4
BITMAP
3BD39DC28BE500
06F601EC207E00
06E000C8004F10
06E000C8003F20
06E000C8003F20
06E000C8003F20
07F000DA003F20
6EFD2CFF903F20
00000000003F10
00000000004F00
00000003C25A00
00000002DDA200
ENDCHAR
STARTCHAR uni0272
ENCODING 626
SWIDTH 574 0
DWIDTH 9 0
BBX 11 12 -2 -4
BITMAP
003BD39DB100
0006F501E700
0006E000A900
0006E000AA00
0006E000AA00
0006E000AA00
0006E000BB00
0006E00AFFA0
0006D0000000
0006C0000000
5B0870000000
3DC900000000
ENDCHAR
STARTCHAR uni0273
ENCODING 627
SWIDTH 563 0
DWIDTH 9 0
BBX 11 12 0 -4
BITMAP
3BD49DB10000
06F501E70000
06E000AA0000
06E000AA0000
06E000AA0000
06E000AA0000
07F000AA0000
6EFD20AA0000
0000009A0000
0000008B0000
0000004C0880
00000007BE60
ENDCHAR
STARTCHAR uni0274
ENCODING 628
SWIDTH 568 0
DWIDTH 9 0
BBX 9 8 0 0
BITMAP
9FD102DFB0
09FB001C00
088F800A00
0828F50A00
0820BE2A00
08201DDA00
093002EB00
8FE3004A00
ENDCHAR
STARTCHAR uni0275
ENCODING 629
SWIDTH 514 0
DWIDTH 8 0
BBX 8 8 0 0
BITMAP
019CCB30
0B9006E1
3F2000E7
6FBBBBE9
6F2000D9
3F4000E7
0BB006E1
01ADBB20
ENDCHAR
STARTCHAR uni0276
ENCODING 630
SWIDTH 732 0
DWIDTH 12 0
BBX 12 8 0 0
BITMAP
019CCFFBBDB0
0BB008D00080
3F4007D00700
6F2007FBDC00
6F2007D00800
3F4007D00042
0BA008D000B1
019CCEFBBED0
ENDCHAR
STARTCHAR uni0277
ENCODING 631
SWIDTH 672 0
DWIDTH 11 0
BBX 11 8 0 0
BITMAP
003ACBC91000
05E40007E200
1E600000AB00
5F106F305F10
7F106F204F30
5F203E006F20
1E804C20BB00
03CB91ACA100
ENDCHAR
STARTCHAR uni0278
ENCODING 632
SWIDTH 658 0
DWIDTH 11 0
BBX 10 15 0 -4
BITMAP
0004AD0000
00006D0000
00006D0000
007CCEBC50
09C16D06F4
2F406D00CB
6F106D008E
6F106D008E
3F406D00AA
0BB06D03E3
019BBE8A30
00006D0000
00006D0000
00007E0000
0006EFD100
ENDCHAR
STARTCHAR uni0279
ENCODING 633
SWIDTH 380 0
DWIDTH 6 0
BBX 6 8 0 0
BITMAP
04DFE7
000E70
000D70
000D70
000D70
001E70
988D80
AD2CB4
ENDCHAR
STARTCHAR uni027A
ENCODING 634
SWIDTH 374 0
DWIDTH 6 0
BBX 6 11 0 0
BITMAP
008D70
000E70
000D70
000D70
000D70
000D70
000D70
000D70
001E70
988D80
AD2CB4
ENDCHAR
STARTCHAR uni027B
ENCODING 635
SWIDTH 375 0
DWIDTH 6 0
BBX 8 12 0 -4
BITMAP
04DFE700
000E8000
000D7000
000D7000
000D7000
001E7000
988D7000
AD2D7000
000C7000
000B7000
000790A5
00009CD3
ENDCHAR
STARTCHAR uni027C
ENCODING 636
SWIDTH 378 0
DWIDTH 6 0
BBX 6 12 0 -4
BITMAP
3AD2DB
08E989
06F200
06E000
06E000
06E000
06E000
06E000
06E000
06E000
07F000
6EFD50
ENDCHAR
STARTCHAR uni027D
ENCODING 637
SWIDTH 373 0
DWIDTH 6 0
BBX 6 12 0 -4
BITMAP
4BC3D9
08D888
07E100
07D000
07D000
07D000
07D000
07D000
07D000
06D000
02E06A
005BE8
ENDCHAR
STARTCHAR uni027E
ENCODING 638
SWIDTH 371 0
DWIDTH 6 0
BBX 6 8 0 0
BITMAP
005BE8
02E057
05D000
07D000
07D000
07D000
08E000
7EFD40
ENDCHAR
STARTCHAR uni027F
ENCODING 639
SWIDTH 371 0
DWIDTH 6 0
BBX 6 8 0 0
BITMAP
9EB400
841E10
000E50
000E60
000E60
000E60
000F70
05DFE7
ENDCHAR
STARTCHAR uni0280
ENCODING 640
SWIDTH 494 0
DWIDTH 8 0
BBX 9 8 0 0
BITMAP
3BF9AA1000
06E00B9000
06E009B000
06E02E6000
06FDE40000
06E1DB0000
06F03FA000
6EFC16FD20
ENDCHAR
STARTCHAR uni0281
ENCODING 641
SWIDTH 494 0
DWIDTH 8 0
BBX 9 8 0 0
BITMAP
6EFC14FD20
06F00DC000
06E07F3000
06E2E70000
06FDE50000
06E01C8000
06E00AB000
3CFBCB3000
ENDCHAR
STARTCHAR uni0282
ENCODING 642
SWIDTH 395 0
DWIDTH 6 0
BBX 6 12 0 -4
BITMAP
08AAA6
4D0076
4F5025
0BFA20
006DE4
4201CC
58008C
5CAAB3
560000
460000
281900
07BB00
ENDCHAR
STARTCHAR uni0283
ENCODING 643
SWIDTH 253 0
DWIDTH 4 0
BBX 8 15 -2 -4
BITMAP
00007CE6
0004C089
0008A000
0009A000
000AA000
000AA000
000AA000
000AA000
000AA000
000AA000
000AA000
000AA000
000A9000
780B6000
5DCA0000
ENDCHAR
STARTCHAR uni0284
ENCODING 644
SWIDTH 286 0
DWIDTH 5 0
BBX 8 15 -2 -4
BITMAP
00004BE9
0000E247
0004F000
0006F000
0006F000
0006F000
0006F000
0006F000
0006F000
0006F000
007DFB30
0006E000
0006C000
29187000
2CC90000
ENDCHAR
STARTCHAR uni0285
ENCODING 645
SWIDTH 361 0
DWIDTH 6 0
BBX 8 12 0 -4
BITMAP
7EB50000
A50E1000
000D5000
000D6000
000D7000
000D7000
000D7000
000D7000
000D7000
000C7000
000980C5
0001BCD2
ENDCHAR
STARTCHAR uni0286
ENCODING 646
SWIDTH 253 0
DWIDTH 4 0
BBX 8 15 -2 -4
BITMAP
00008CE6
0005C078
0008A000
0009A000
000AA000
000AA000
000AA000
000AA000
000AA000
000AA000
000AA000
07BEA000
480AC900
550C5100
1BC90000
ENDCHAR
STARTCHAR uni0287
ENCODING 647
SWIDTH 315 0
DWIDTH 5 0
BBX 5 11 0 -3
BITMAP
4BD200
30D800
00C800
00C800
00C800
00C800
00C800
6BED40
00CA00
00B100
004000
ENDCHAR
STARTCHAR uni0288
ENCODING 648
SWIDTH 309 0
DWIDTH 5 0
BBX 6 14 0 -4
BITMAP
00A000
07D000
3DEB70
07D000
07D000
07D000
07D000
07D000
07D000
07D000
07D000
05D000
01E06A
005BE8
ENDCHAR
STARTCHAR uni0289
ENCODING 649
SWIDTH 580 0
DWIDTH 9 0
BBX 9 8 0 0
BITMAP
4CD009E900
07D000C900
07D000B900
6DFBBBEE80
07D000B900
06E000B900
04F303E900
00AEA6AD50
ENDCHAR
STARTCHAR uni028A
ENCODING 650
SWIDTH 548 0
DWIDTH 9 0
BBX 9 8 0 0
BITMAP
2CF609FB00
01B001A000
097000A500
1F40007D00
4F30006F10
3F40008E00
0CB002D800
019CCC7000
ENDCHAR
STARTCHAR uni028B
ENCODING 651
SWIDTH 530 0
DWIDTH 8 0
BBX 8 8 0 0
BITMAP
5DC005D1
09C001E7
08C0006A
08C0000B
08C00009
07D00026
04F20180
008DBA20
ENDCHAR
STARTCHAR uni028C
ENCODING 652
SWIDTH 495 0
DWIDTH 8 0
BBX 9 8 -1 0
BITMAP
0000A80000
0001EE0000
00076F5000
000B0BB000
004805F200
00A200E700
02C0009D10
2EF804EFD0
ENDCHAR
STARTCHAR uni028D
ENCODING 653
SWIDTH 764 0
DWIDTH 12 0
BBX 14 8 -1 0
BITMAP
0000B6005C0000
0002EC00AF3000
00076F228D9000
000B0D8827E100
004807DA01F600
009202F700AC00
01C000CB005F40
1EF806FFA1DFE5
ENDCHAR
STARTCHAR uni028E
ENCODING 654
SWIDTH 492 0
DWIDTH 8 0
BBX 9 11 -1 0
BITMAP
000001AE80
000009AB70
00002C0000
0000960000
0001E60000
0006CD0000
000B2F6000
003909D000
009402F700
01C0009E10
1DF804EFD0
ENDCHAR
STARTCHAR uni028F
ENCODING 655
SWIDTH 454 0
DWIDTH 7 0
BBX 9 8 -1 0
BITMAP
3EFC00CF60
03E6006500
006E219000
000BA82000
0002F80000
0000E60000
0000E70000
001DFE7000
ENDCHAR
STARTCHAR uni0290
ENCODING 656
SWIDTH 458 0
DWIDTH 7 0
BBX 10 12 0 -4
BITMAP
3FCBCFA000
38008E2000
2203F60000
000CB00000
008E200000
03F6007000
0CB002B000
6FCBCEA000
000001A000
000000A000
000000A072
0000005AD2
ENDCHAR
STARTCHAR uni0291
ENCODING 657
SWIDTH 458 0
DWIDTH 7 0
BBX 8 11 0 -3
BITMAP
3FCBCFA0
38008E20
2203F600
000CB000
008E2000
03F63BA0
0CB29092
6FCDCA70
00370000
00910000
00400000
ENDCHAR
STARTCHAR uni0292
ENCODING 658
SWIDTH 443 0
DWIDTH 7 0
BBX 7 12 0 -4
BITMAP
5FCBCF80
5600AD10
3105F400
001E8000
00AD1000
008BB400
00006F40
00000CB0
00000AC0
23000CA0
8E105E20
2CDB9200
ENDCHAR
STARTCHAR uni0293
ENCODING 659
SWIDTH 443 0
DWIDTH 7 0
BBX 7 15 0 -7
BITMAP
5FCBCF80
57009E10
4204F500
000DB000
007E2000
00DD6000
0002BD20
00001E90
00000BB0
3BA10CA0
75394F40
19BDD500
0000A100
00003700
00000300
ENDCHAR
STARTCHAR uni0294
ENCODING 660
SWIDTH 383 0
DWIDTH 6 0
BBX 7 11 0 0
BITMAP
19CCB200
7D009C00
35005F10
00006F00
0000B900
003A8000
06E10000
06E00000
06E00000
07F00000
7EFD4000
ENDCHAR
STARTCHAR uni0295
ENCODING 661
SWIDTH 383 0
DWIDTH 6 0
BBX 6 11 0 0
BITMAP
19CCB2
9C00B9
D70044
D80000
7D0000
07A300
000C80
000C80
000C80
000D90
02CFF9
ENDCHAR
STARTCHAR uni0296
ENCODING 662
SWIDTH 408 0
DWIDTH 7 0
BBX 6 11 0 0
BITMAP
3AE100
04F100
04F100
04F100
03F200
003A80
0000C9
00006F
23005F
7C008B
1A77A2
ENDCHAR
STARTCHAR uni0297
ENCODING 663
SWIDTH 437 0
DWIDTH 7 0
BBX 7 11 0 -3
BITMAP
008BDA10
07A03F70
1E300750
4E000000
6D000000
7C000000
6D000000
4F000000
1E400010
08C10460
007CB600
ENDCHAR
STARTCHAR uni0298
ENCODING 664
SWIDTH 736 0
DWIDTH 12 0
BBX 12 11 0 0
BITMAP
0007CBCB5000
01CA1003DA00
0AC000002E70
2F50000009D0
6F101DA005F2
7F001EB004F4
6F10010005F2
2F50000009E0
0AC000002E70
01C91003DA00
0007CCCB6000
ENDCHAR
STARTCHAR uni0299
ENCODING 665
SWIDTH 485 0
DWIDTH 8 0
BBX 8 8 0 0
BITMAP
4DFBCB20
06E00BB0
06E00CA0
06FCEA10
06E01B80
06E004F3
06E007F1
5DFBCC50
ENDCHAR
STARTCHAR uni029A
ENCODING 666
SWIDTH 500 0
DWIDTH 8 0
BBX 8 8 0 0
BITMAP
07CBC800
3F200AA0
1E5002F3
03DD50E6
2E5000D6
6F0001F3
4F400AA0
07DCC800
ENDCHAR
STARTCHAR uni029B
ENCODING 667
SWIDTH 536 0
DWIDTH 9 0
BBX 11 11 0 0
BITMAP
00000007CC00
000000191B10
000000470000
008CCEF70000
0AB100970000
3F4000250000
6F1000000000
6F200ADD3000
4F4000D70000
0CC100D70000
018CBC810000
ENDCHAR
STARTCHAR uni029C
ENCODING 668
SWIDTH 599 0
DWIDTH 10 0
BBX 10 8 0 0
BITMAP
5EFD16EFD1
06F0006F00
06E0005E00
06FBBBDE00
06E0005E00
06E0005E00
06F0006F00
5EFD16EFD1
ENDCHAR
STARTCHAR uni029D
ENCODING 669
SWIDTH 263 0
DWIDTH 4 0
BBX 7 15 -2 -4
BITMAP
0007D100
0006C100
00000000
004BD000
0007E000
0006E000
0006E000
0006E000
0006E000
0006E000
0006E000
04BDE000
1B07DA20
29098110
09BB1000
ENDCHAR
STARTCHAR uni029E
ENCODING 670
SWIDTH 542 0
DWIDTH 9 0
BBX 9 12 0 -4
BITMAP
CFF75EFD20
06F504F200
008E34F100
0009E6F100
0000BCF100
000584F100
008904F100
4EFD14F100
000004F100
000004F100
000004F200
000004FD40
ENDCHAR
STARTCHAR uni029F
ENCODING 671
SWIDTH 440 0
DWIDTH 7 0
BBX 7 8 0 0
BITMAP
8FFC0000
09D00000
08C00000
08C00000
08C00000
08C00030
08C00190
5DF99D80
ENDCHAR
STARTCHAR uni02A0
ENCODING 672
SWIDTH 541 0
DWIDTH 9 0
BBX 11 15 0 -4
BITMAP
0000003ADE60
000000D30750
000003F10000
008CCCF10000
09A009F10000
2F2004F10000
6E0004F10000
7E0004F10000
5F1004F10000
1E8006F10000
04CC99F10000
000004F10000
000004F10000
000005F20000
00009EFD1000
ENDCHAR
STARTCHAR uni02A1
ENCODING 673
SWIDTH 393 0
DWIDTH 6 0
BBX 7 11 0 0
BITMAP
09BCC300
6E008D00
25004F20
00005F10
0000C800
01695000
05F00000
6CFBA000
05F00000
06F10000
6EFD5000
ENDCHAR
STARTCHAR uni02A2
ENCODING 674
SWIDTH 393 0
DWIDTH 6 0
BBX 6 11 0 0
BITMAP
08CBC3
8C00AB
C90034
C90000
4E2000
039720
000B90
06BEE9
000B90
000CA0
01CFFA
ENDCHAR
STARTCHAR uni02A3
ENCODING 675
SWIDTH 830 0
DWIDTH 13 0
BBX 13 11 0 0
BITMAP
00002AE1000000
000004F1000000
000004F1000000
008BBDFBBBBFA0
0A9007F1008F30
2F2004F103F700
6F0004F10CC000
7F0004F16E2000
5F2004F3E60040
1E8005FBB003A0
04DC98FFCBBE90
ENDCHAR
STARTCHAR uni02A4
ENCODING 676
SWIDTH 838 0
DWIDTH 13 0
BBX 14 15 0 -4
BITMAP
00002AE1000000
000004F1000000
000004F1000000
008CCDFCBBBFD0
0AA007F1005F60
2F2004F101EB00
6F0004F109E200
7F0004F13F6000
5F1004F18E8300
1E8005F2006F60
04DC98E81009E0
000000000006F1
000000030007E0
0000004F201C60
0000001AB89400
ENDCHAR
STARTCHAR uni02A5
ENCODING 677
SWIDTH 829 0
DWIDTH 13 0
BBX 13 14 0 -3
BITMAP
00002AE1000000
000004F1000000
000004F1000000
008CCDFCBBCFA0
0AA006F1008F30
2F2004F103F700
6F0004F10CC000
7F0004F16E2000
5F1004F3E64BA0
1E8006FBB380A0
04DC98FFCEBA70
00000000560000
00000000A00000
00000000300000
ENDCHAR
STARTCHAR uni02A6
ENCODING 678
SWIDTH 614 0
DWIDTH 10 0
BBX 10 11 0 0
BITMAP
0040000000
01B0000000
07C0000000
2DEBDFCCB0
08C0C602D0
08C0BA0070
08C03DD500
08C0018EA0
08C00003F4
05F50004F3
006CCBCB40
ENDCHAR
STARTCHAR uni02A7
ENCODING 679
SWIDTH 513 0
DWIDTH 8 0
BBX 10 15 0 -4
BITMAP
0000007CE9
005004E037
05C007D000
3DEBBDD000
08C007D000
08C007D000
08C007D000
08C007D000
08C007D000
07D037D000
02DB57D000
000007C000
000007B000
006C098000
003DCB1000
ENDCHAR
STARTCHAR uni02A8
ENCODING 680
SWIDTH 687 0
DWIDTH 11 0
BBX 11 10 0 0
BITMAP
009000000000
06C000000000
2DEB72ACD900
08C00C404F50
08C05C000410
08C08A000000
08C09B000000
08C06E16BB20
07E01ED40460
02DB85BDB910
ENDCHAR
STARTCHAR uni02A9
ENCODING 681
SWIDTH 866 0
DWIDTH 14 0
BBX 13 15 0 -4
BITMAP
006BEB00000000
02F03800000000
05E00000000000
6CFBBBED49DA00
06E0007E401E60
06E0007D000B80
06E0007D000B90
06E0007D000B90
06E0007D000B90
07F1008E000B90
8FFE77EFD10B90
00000000000B90
00000000000B70
00000000970D20
000000007EA600
ENDCHAR
STARTCHAR uni02AA
ENCODING 682
SWIDTH 595 0
DWIDTH 10 0
BBX 9 11 0 0
BITMAP
6C90000000
0B90000000
0B90000000
0B904CBA90
0B91F205A0
0B91F60070
0B906FB300
0B9002AF60
0B900007F0
09C00008E0
019CBBC920
ENDCHAR
STARTCHAR uni02AB
ENCODING 683
SWIDTH 580 0
DWIDTH 9 0
BBX 9 11 0 0
BITMAP
3AD0000000
06E0000000
06E0000000
06FAAABF70
06E0009D10
06E003F500
06E00CA000
06E07E2000
06E2E70060
06EAC00590
4CFFCABF80
ENDCHAR
STARTCHAR uni02AC
ENCODING 684
SWIDTH 599 0
DWIDTH 10 0
BBX 10 11 0 0
BITMAP
BF96FD08F5
0C509A0270
05D08E3810
00CA28B600
0037019000
BD96DD08D5
1E30A80190
09909D0630
03E17D4800
00CB28B600
006B02F100
ENDCHAR
STARTCHAR uni02AD
ENCODING 685
SWIDTH 479 0
DWIDTH 8 0
BBX 6 11 1 0
BITMAP
DBBBD8
D00058
D00058
D00058
D00058
000000
CBBBC7
D00058
D00058
D00058
D00058
ENDCHAR
STARTCHAR uni02AE
ENCODING 686
SWIDTH 595 0
DWIDTH 10 0
BBX 11 12 -1 -4
BITMAP
4EB60018D400
480E3004F400
000C6001F400
000C8001F400
000C8001F400
000B9001F400
0008D006F400
0002CC94F400
00000001F400
00000001F400
00000001F400
00000001FE60
ENDCHAR
STARTCHAR uni02AF
ENCODING 687
SWIDTH 600 0
DWIDTH 10 0
BBX 13 12 -1 -4
BITMAP
4EB60018D40000
480E3004F40000
000C6001F40000
000C8001F40000
000C8001F40000
000B9001F40000
0008D006F40000
0002CC94F40000
00000001F40000
00000000F40000
00000000B52C20
000000002ADC10
ENDCHAR
STARTCHAR uni02B0
ENCODING 688
SWIDTH 488 0
DWIDTH 8 0
BBX 8 8 0 4
BITMAP
4D800000
0A800000
0A9ADB00
0AB10E50
0A800B70
0A800A70
0A800A70
4DC34EC3
ENDCHAR
STARTCHAR uni02B1
ENCODING 689
SWIDTH 488 0
DWIDTH 8 0
BBX 8 9 0 4
BITMAP
0048A400
04905600
09800000
0A9ADB00
0AB10E50
0A800B70
0A800A70
0A800A70
4DC34EC3
ENDCHAR
STARTCHAR uni02B2
ENCODING 690
SWIDTH 222 0
DWIDTH 4 0
BBX 5 11 -2 1
BITMAP
000A80
000430
004D80
000980
000980
000980
000980
000980
000980
070A50
1CB900
ENDCHAR
STARTCHAR uni02B3
ENCODING 691
SWIDTH 325 0
DWIDTH 5 0
BBX 5 6 0 4
BITMAP
4D8AD0
0AC250
0A8000
0A8000
0A8000
4DC500
ENDCHAR
STARTCHAR uni02B4
ENCODING 692
SWIDTH 325 0
DWIDTH 5 0
BBX 5 6 0 4
BITMAP
019F90
001F10
001F10
001F10
246F10
6E4F90
ENDCHAR
STARTCHAR uni02B5
ENCODING 693
SWIDTH 325 0
DWIDTH 5 0
BBX 7 8 0 2
BITMAP
019F9100
001F1000
001F1000
001F1000
246F1000
6E4F1000
000C2220
00038A30
ENDCHAR
STARTCHAR uni02B6
ENCODING 694
SWIDTH 443 0
DWIDTH 7 0
BBX 7 6 0 4
BITMAP
3DC34E70
0983D400
09CC9000
09808B00
09806E00
3DC8C500
ENDCHAR
STARTCHAR uni02B7
ENCODING 695
SWIDTH 653 0
DWIDTH 10 0
BBX 11 6 0 4
BITMAP
9F61BF408D30
0D502F206500
07B06C80A000
01F394E27000
00AB60DB2000
004E108B0000
ENDCHAR
STARTCHAR uni02B8
ENCODING 696
SWIDTH 427 0
DWIDTH 7 0
BBX 7 9 0 1
BITMAP
AF904E70
0D600A00
07D05500
01E48000
008A7000
002F2000
000B0000
22740000
8E800000
ENDCHAR
STARTCHAR uni02B9
ENCODING 697
SWIDTH 296 0
DWIDTH 5 0
BBX 3 5 1 7
BITMAP
0980
1F60
4D00
9500
A000
ENDCHAR
STARTCHAR uni02BA
ENCODING 698
SWIDTH 456 0
DWIDTH 7 0
BBX 6 5 1 7
BITMAP
0982E2
1F67E0
4D0B60
951D00
A04600
ENDCHAR
STARTCHAR uni02BB
ENCODING 699
SWIDTH 245 0
DWIDTH 4 0
BBX 4 4 0 8
BITMAP
0380
0B00
1EC1
0BD1
ENDCHAR
STARTCHAR uni02BC
ENCODING 700
SWIDTH 244 0
DWIDTH 4 0
BBX 3 5 0 7
BITMAP
1C80
2EE0
00B0
0830
0100
ENDCHAR
STARTCHAR uni02BD
ENCODING 701
SWIDTH 244 0
DWIDTH 4 0
BBX 4 5 0 7
BITMAP
09C0
1FE1
0C00
0480
0010
ENDCHAR
STARTCHAR uni02BE
ENCODING 702
SWIDTH 203 0
DWIDTH 3 0
BBX 3 4 0 8
BITMAP
6B30
02B0
02B0
6B30
ENDCHAR
STARTCHAR uni02BF
ENCODING 703
SWIDTH 203 0
DWIDTH 3 0
BBX 3 4 0 8
BITMAP
1B90
8600
8600
1B90
ENDCHAR
STARTCHAR uni02C0
ENCODING 704
SWIDTH 364 0
DWIDTH 6 0
BBX 6 6 0 6
BITMAP
078830
3C02E1
0001F3
0008D0
03E710
04E000
ENDCHAR
STARTCHAR uni02C1
ENCODING 705
SWIDTH 364 0
DWIDTH 6 0
BBX 6 6 0 6
BITMAP
048960
3E12D1
6D0000
2E6000
028E10
002F10
ENDCHAR
STARTCHAR uni02C2
ENCODING 706
SWIDTH 324 0
DWIDTH 5 0
BBX 5 6 0 7
BITMAP
000010
001980
06C600
4E4000
03B910
000580
ENDCHAR
STARTCHAR uni02C3
ENCODING 707
SWIDTH 324 0
DWIDTH 5 0
BBX 5 6 0 7
BITMAP
100000
5B2000
04C700
002E70
07C400
570000
ENDCHAR
STARTCHAR uni02C4
ENCODING 708
SWIDTH 324 0
DWIDTH 5 0
BBX 6 4 0 8
BITMAP
01D200
089B00
2C0A50
B301D1
ENDCHAR
STARTCHAR uni02C5
ENCODING 709
SWIDTH 324 0
DWIDTH 5 0
BBX 6 4 0 8
BITMAP
B301D1
2C0A50
08AB00
01D200
ENDCHAR
STARTCHAR circumflex
ENCODING 710
SWIDTH 342 0
DWIDTH 5 0
BBX 5 3 0 9
BITMAP
007300
07BD10
390390
ENDCHAR
STARTCHAR caron
ENCODING 711
SWIDTH 342 0
DWIDTH 5 0
BBX 5 3 0 9
BITMAP
330050
0B3940
03E900
ENDCHAR
STARTCHAR uni02C8
ENCODING 712
SWIDTH 284 0
DWIDTH 5 0
BBX 2 4 1 8
BITMAP
19
19
19
19
ENDCHAR
STARTCHAR uni02C9
ENCODING 713
SWIDTH 350 0
DWIDTH 6 0
BBX 6 1 0 9
BITMAP
6BBBB1
ENDCHAR
STARTCHAR uni02CA
ENCODING 714
SWIDTH 222 0
DWIDTH 4 0
BBX 3 3 0 9
BITMAP
0470
0D70
4800
ENDCHAR
STARTCHAR uni02CB
ENCODING 715
SWIDTH 222 0
DWIDTH 4 0
BBX 3 3 0 9
BITMAP
4700
1D60
02B0
ENDCHAR
STARTCHAR uni02CC
ENCODING 716
SWIDTH 284 0
DWIDTH 5 0
BBX 2 4 1 -3
BITMAP
19
19
19
19
ENDCHAR
STARTCHAR uni02CD
ENCODING 717
SWIDTH 342 0
DWIDTH 5 0
BBX 6 1 0 -3
BITMAP
9BBBB3
ENDCHAR
STARTCHAR uni02CE
ENCODING 718
SWIDTH 222 0
DWIDTH 4 0
BBX 3 3 0 -2
BITMAP
4700
1D60
02B0
ENDCHAR
STARTCHAR uni02CF
ENCODING 719
SWIDTH 223 0
DWIDTH 4 0
BBX 3 3 0 -2
BITMAP
0470
0D70
4800
ENDCHAR
STARTCHAR uni02D0
ENCODING 720
SWIDTH 341 0
DWIDTH 5 0
BBX 3 8 1 0
BITMAP
5DB0
2F90
0C40
0000
0000
0A30
1F80
6FD0
ENDCHAR
STARTCHAR uni02D1
ENCODING 721
SWIDTH 341 0
DWIDTH 5 0
BBX 3 3 1 5
BITMAP
5DB0
2F90
0C40
ENDCHAR
STARTCHAR uni02D2
ENCODING 722
SWIDTH 341 0
DWIDTH 5 0
BBX 4 5 1 1
BITMAP
9B50
01D2
00A5
01D2
9B40
ENDCHAR
STARTCHAR uni02D3
ENCODING 723
SWIDTH 341 0
DWIDTH 5 0
BBX 4 5 1 1
BITMAP
1AB3
A600
D100
A600
1AB3
ENDCHAR
STARTCHAR uni02D4
ENCODING 724
SWIDTH 341 0
DWIDTH 5 0
BBX 5 4 0 3
BITMAP
002000
009100
009100
2ACA60
ENDCHAR
STARTCHAR uni02D5
ENCODING 725
SWIDTH 341 0
DWIDTH 5 0
BBX 5 4 0 2
BITMAP
2BCB70
009100
009100
003000
ENDCHAR
STARTCHAR uni02D6
ENCODING 726
SWIDTH 341 0
DWIDTH 5 0
BBX 4 3 1 3
BITMAP
0910
ADB3
0910
ENDCHAR
STARTCHAR uni02D7
ENCODING 727
SWIDTH 341 0
DWIDTH 5 0
BBX 4 1 1 4
BITMAP
ABB3
ENDCHAR
STARTCHAR breve
ENCODING 728
SWIDTH 353 0
DWIDTH 6 0
BBX 6 3 0 9
BITMAP
400041
4601A0
07BB30
ENDCHAR
STARTCHAR dotaccent
ENCODING 729
SWIDTH 194 0
DWIDTH 3 0
BBX 3 2 0 9
BITMAP
2C30
3E40
ENDCHAR
STARTCHAR ring
ENCODING 730
SWIDTH 265 0
DWIDTH 4 0
BBX 4 4 0 9
BITMAP
1992
651A
651A
1992
ENDCHAR
STARTCHAR ogonek
ENCODING 731
SWIDTH 277 0
DWIDTH 4 0
BBX 4 4 0 -4
BITMAP
0240
2B00
7A03
3CC4
ENDCHAR
STARTCHAR tilde
ENCODING 732
SWIDTH 381 0
DWIDTH 6 0
BBX 6 2 0 9
BITMAP
1AC636
513BB1
ENDCHAR
STARTCHAR hungarumlaut
ENCODING 733
SWIDTH 350 0
DWIDTH 6 0
BBX 6 3 0 9
BITMAP
08B6C1
0E4D50
573900
ENDCHAR
STARTCHAR uni02DE
ENCODING 734
SWIDTH 205 0
DWIDTH 3 0
BBX 4 3 -1 3
BITMAP
0310
5C37
04C8
ENDCHAR
STARTCHAR uni02DF
ENCODING 735
SWIDTH 302 0
DWIDTH 5 0
BBX 5 4 0 8
BITMAP
360720
1BA900
07E500
391B20
ENDCHAR
STARTCHAR uni02E0
ENCODING 736
SWIDTH 413 0
DWIDTH 7 0
BBX 7 9 0 1
BITMAP
AF704E50
0D601900
08C07300
02F39000
00BB5000
005F1000
007D5000
00879000
008A5000
ENDCHAR
STARTCHAR uni02E1
ENCODING 737
SWIDTH 244 0
DWIDTH 4 0
BBX 4 8 0 4
BITMAP
4C80
0A80
0A80
0A80
0A80
0A80
0A80
4DC3
ENDCHAR
STARTCHAR uni02E2
ENCODING 738
SWIDTH 337 0
DWIDTH 5 0
BBX 5 6 0 4
BITMAP
1A8980
6A0180
2EC400
218E90
7304E0
7A8A60
ENDCHAR
STARTCHAR uni02E3
ENCODING 739
SWIDTH 445 0
DWIDTH 7 0
BBX 7 6 0 4
BITMAP
3DE36D40
03E37200
006D5000
006CA000
0381D700
5E50BF70
ENDCHAR
STARTCHAR uni02E4
ENCODING 740
SWIDTH 364 0
DWIDTH 6 0
BBX 6 8 0 4
BITMAP
0597C5
2F1069
5E0000
1E5000
02A940
000A80
000A80
006DC4
ENDCHAR
STARTCHAR uni02E5
ENCODING 741
SWIDTH 423 0
DWIDTH 7 0
BBX 7 12 0 -1
BITMAP
2BBBBD10
00000B20
00000B20
00000B20
00000B20
00000B20
00000B20
00000B20
00000B20
00000B20
00000B20
00000410
ENDCHAR
STARTCHAR uni02E6
ENCODING 742
SWIDTH 414 0
DWIDTH 7 0
BBX 6 13 0 -1
BITMAP
000002
00000C
00000C
00000C
4BBBBE
00000C
00000C
00000C
00000C
00000C
00000C
00000C
000004
ENDCHAR
STARTCHAR uni02E7
ENCODING 743
SWIDTH 414 0
DWIDTH 7 0
BBX 6 12 0 0
BITMAP
000002
00000C
00000C
00000C
00000C
00000C
4BBBBE
00000C
00000C
00000C
00000C
00000B
ENDCHAR
STARTCHAR uni02E8
ENCODING 744
SWIDTH 414 0
DWIDTH 7 0
BBX 6 12 0 0
BITMAP
000002
00000C
00000C
00000C
00000C
00000C
00000C
00000C
4BBBBE
00000C
00000C
00000B
ENDCHAR
STARTCHAR uni02E9
ENCODING 745
SWIDTH 414 0
DWIDTH 7 0
BBX 6 12 0 0
BITMAP
000002
00000C
00000C
00000C
00000C
00000C
00000C
00000C
00000C
00000C
00000C
4BBBBD
ENDCHAR
STARTCHAR uni02EC
ENCODING 748
SWIDTH 341 0
DWIDTH 5 0
BBX 5 4 0 -2
BITMAP
450170
1E2970
06CC00
00C400
ENDCHAR
STARTCHAR uni02ED
ENCODING 749
SWIDTH 380 0
DWIDTH 6 0
BBX 6 3 0 9
BITMAP
4BBBB5
000000
4BBBB5
ENDCHAR
STARTCHAR uni02F7
ENCODING 759
SWIDTH 381 0
DWIDTH 6 0
BBX 6 2 0 -3
BITMAP
1AC636
513BB1
ENDCHAR
STARTCHAR uni0300
ENCODING 768
SWIDTH 0 0
DWIDTH 0 0
BBX 4 3 -6 9
BITMAP
3810
0B80
01B1
ENDCHAR
STARTCHAR uni0301
ENCODING 769
SWIDTH 0 0
DWIDTH 0 0
BBX 3 3 -5 9
BITMAP
0470
0D70
5800
ENDCHAR
STARTCHAR uni0302
ENCODING 770
SWIDTH 0 0
DWIDTH 0 0
BBX 5 3 -6 9
BITMAP
037000
1CA800
840840
ENDCHAR
STARTCHAR uni0303
ENCODING 771
SWIDTH 0 0
DWIDTH 0 0
BBX 6 2 -7 9
BITMAP
06C837
1519C4
ENDCHAR
STARTCHAR uni0304
ENCODING 772
SWIDTH 0 0
DWIDTH 0 0
BBX 5 1 -6 9
BITMAP
BBBB70
ENDCHAR
STARTCHAR uni0305
ENCODING 773
SWIDTH 0 0
DWIDTH 0 0
BBX 7 1 -7 9
BITMAP
5BBBBBB0
ENDCHAR
STARTCHAR uni0306
ENCODING 774
SWIDTH 0 0
DWIDTH 0 0
BBX 5 3 -6 9
BITMAP
500050
A10560
3AB800
ENDCHAR
STARTCHAR uni0307
ENCODING 775
SWIDTH 0 0
DWIDTH 0 0
BBX 3 2 -5 9
BITMAP
5C10
6E10
ENDCHAR
STARTCHAR uni0308
ENCODING 776
SWIDTH 0 0
DWIDTH 0 0
BBX 6 2 -7 9
BITMAP
2C3089
2E409B
ENDCHAR
STARTCHAR uni0309
ENCODING 777
SWIDTH 0 0
DWIDTH 0 0
BBX 3 4 -5 9
BITMAP
6850
70E0
02B0
0910
ENDCHAR
STARTCHAR uni030A
ENCODING 778
SWIDTH 0 0
DWIDTH 0 0
BBX 4 4 -6 9
BITMAP
0894
480B
480B
0894
ENDCHAR
STARTCHAR uni030B
ENCODING 779
SWIDTH 0 0
DWIDTH 0 0
BBX 6 3 -6 9
BITMAP
04D5D4
0A88A0
1B0B10
ENDCHAR
STARTCHAR uni030C
ENCODING 780
SWIDTH 0 0
DWIDTH 0 0
BBX 5 3 -6 9
BITMAP
500230
4A3B10
08F300
ENDCHAR
STARTCHAR uni030D
ENCODING 781
SWIDTH 0 0
DWIDTH 0 0
BBX 2 3 -5 8
BITMAP
2C
2C
2C
ENDCHAR
STARTCHAR uni030E
ENCODING 782
SWIDTH 0 0
DWIDTH 0 0
BBX 4 3 -6 8
BITMAP
490E
490E
490E
ENDCHAR
STARTCHAR uni030F
ENCODING 783
SWIDTH 0 0
DWIDTH 0 0
BBX 5 3 -7 9
BITMAP
9A7C00
2E3D40
048390
ENDCHAR
STARTCHAR uni0310
ENCODING 784
SWIDTH 0 0
DWIDTH 0 0
BBX 5 4 -6 9
BITMAP
04B100
66E160
A10550
2AB800
ENDCHAR
STARTCHAR uni0311
ENCODING 785
SWIDTH 0 0
DWIDTH 0 0
BBX 5 3 -6 8
BITMAP
3BB800
A10650
300030
ENDCHAR
STARTCHAR uni0312
ENCODING 786
SWIDTH 0 0
DWIDTH 0 0
BBX 3 4 -5 9
BITMAP
0610
8400
CC20
8E20
ENDCHAR
STARTCHAR uni0313
ENCODING 787
SWIDTH 0 0
DWIDTH 0 0
BBX 3 4 -5 8
BITMAP
6C20
8F60
0830
5500
ENDCHAR
STARTCHAR uni0314
ENCODING 788
SWIDTH 0 0
DWIDTH 0 0
BBX 3 4 -5 8
BITMAP
6C20
BE30
9300
1820
ENDCHAR
STARTCHAR uni0315
ENCODING 789
SWIDTH 0 0
DWIDTH 0 0
BBX 2 4 -4 8
BITMAP
B8
C5
C0
20
ENDCHAR
STARTCHAR uni0316
ENCODING 790
SWIDTH 0 0
DWIDTH 0 0
BBX 4 3 -6 -3
BITMAP
3810
1B80
01B1
ENDCHAR
STARTCHAR uni0317
ENCODING 791
SWIDTH 0 0
DWIDTH 0 0
BBX 4 3 -5 -3
BITMAP
0382
0A90
2A00
ENDCHAR
STARTCHAR uni0318
ENCODING 792
SWIDTH 0 0
DWIDTH 0 0
BBX 3 3 -5 -4
BITMAP
0370
9C70
0370
ENDCHAR
STARTCHAR uni0319
ENCODING 793
SWIDTH 0 0
DWIDTH 0 0
BBX 3 3 -5 -4
BITMAP
A000
CB50
A000
ENDCHAR
STARTCHAR uni031A
ENCODING 794
SWIDTH 0 0
DWIDTH 0 0
BBX 5 4 -6 8
BITMAP
5BBD10
000D10
000D10
000500
ENDCHAR
STARTCHAR uni031B
ENCODING 795
SWIDTH 0 0
DWIDTH 0 0
BBX 3 4 -3 7
BITMAP
0120
07C0
03B0
7820
ENDCHAR
STARTCHAR uni031C
ENCODING 796
SWIDTH 0 0
DWIDTH 0 0
BBX 3 4 -5 -4
BITMAP
4B20
B100
B100
4B20
ENDCHAR
STARTCHAR uni031D
ENCODING 797
SWIDTH 0 0
DWIDTH 0 0
BBX 4 3 -6 -4
BITMAP
0070
00A0
2AB9
ENDCHAR
STARTCHAR uni031E
ENCODING 798
SWIDTH 0 0
DWIDTH 0 0
BBX 4 3 -6 -4
BITMAP
3BDA
00A0
0080
ENDCHAR
STARTCHAR uni031F
ENCODING 799
SWIDTH 0 0
DWIDTH 0 0
BBX 4 3 -6 -4
BITMAP
0090
29D8
0090
ENDCHAR
STARTCHAR uni0320
ENCODING 800
SWIDTH 0 0
DWIDTH 0 0
BBX 4 1 -6 -3
BITMAP
2998
ENDCHAR
STARTCHAR uni0321
ENCODING 801
SWIDTH 0 0
DWIDTH 0 0
BBX 5 5 -7 -4
BITMAP
000750
000C80
000C60
B80D10
6CA400
ENDCHAR
STARTCHAR uni0322
ENCODING 802
SWIDTH 0 0
DWIDTH 0 0
BBX 5 5 -4 -4
BITMAP
750000
B80000
990000
4B0B80
06BC40
ENDCHAR
STARTCHAR uni0323
ENCODING 803
SWIDTH 0 0
DWIDTH 0 0
BBX 3 2 -5 -3
BITMAP
5C10
6E10
ENDCHAR
STARTCHAR uni0324
ENCODING 804
SWIDTH 0 0
DWIDTH 0 0
BBX 6 2 -7 -3
BITMAP
2C3079
3E409B
ENDCHAR
STARTCHAR uni0325
ENCODING 805
SWIDTH 0 0
DWIDTH 0 0
BBX 4 4 -6 -4
BITMAP
0894
480B
480B
0894
ENDCHAR
STARTCHAR uni0326
ENCODING 806
SWIDTH 0 0
DWIDTH 0 0
BBX 3 4 -5 -5
BITMAP
6C20
8F60
0830
5500
ENDCHAR
STARTCHAR uni0327
ENCODING 807
SWIDTH 0 0
DWIDTH 0 0
BBX 3 4 -5 -4
BITMAP
2300
4A60
02D0
9C60
ENDCHAR
STARTCHAR uni0328
ENCODING 808
SWIDTH 0 0
DWIDTH 0 0
BBX 5 4 -6 -4
BITMAP
015000
0B1000
4E0210
1BD700
ENDCHAR
STARTCHAR uni0329
ENCODING 809
SWIDTH 0 0
DWIDTH 0 0
BBX 2 3 -5 -4
BITMAP
2A
2C
2C
ENDCHAR
STARTCHAR uni032A
ENCODING 810
SWIDTH 0 0
DWIDTH 0 0
BBX 5 3 -6 -4
BITMAP
9BBC40
A00540
300210
ENDCHAR
STARTCHAR uni032B
ENCODING 811
SWIDTH 0 0
DWIDTH 0 0
BBX 6 3 -7 -3
BITMAP
010101
281A0A
09B8C5
ENDCHAR
STARTCHAR uni032C
ENCODING 812
SWIDTH 0 0
DWIDTH 0 0
BBX 5 3 -6 -3
BITMAP
500230
4A3B10
08F300
ENDCHAR
STARTCHAR uni032D
ENCODING 813
SWIDTH 0 0
DWIDTH 0 0
BBX 5 3 -6 -3
BITMAP
037000
1CB800
840840
ENDCHAR
STARTCHAR uni032E
ENCODING 814
SWIDTH 0 0
DWIDTH 0 0
BBX 5 3 -6 -3
BITMAP
500050
A10560
3AB800
ENDCHAR
STARTCHAR uni032F
ENCODING 815
SWIDTH 0 0
DWIDTH 0 0
BBX 5 3 -6 -4
BITMAP
3BB900
A10460
300030
ENDCHAR
STARTCHAR uni0330
ENCODING 816
SWIDTH 0 0
DWIDTH 0 0
BBX 6 2 -7 -3
BITMAP
08C737
332AC3
ENDCHAR
STARTCHAR uni0331
ENCODING 817
SWIDTH 0 0
DWIDTH 0 0
BBX 5 1 -6 -2
BITMAP
BBBB70
ENDCHAR
STARTCHAR uni0332
ENCODING 818
SWIDTH 0 0
DWIDTH 0 0
BBX 9 1 -8 -2
BITMAP
9BBBBBBB50
ENDCHAR
STARTCHAR uni0333
ENCODING 819
SWIDTH 0 0
DWIDTH 0 0
BBX 9 3 -8 -4
BITMAP
9BBBBBBB50
0000000000
9BBBBBBB50
ENDCHAR
STARTCHAR uni0334
ENCODING 820
SWIDTH 0 0
DWIDTH 0 0
BBX 6 2 -7 3
BITMAP
08C738
3419C4
ENDCHAR
STARTCHAR uni0335
ENCODING 821
SWIDTH 0 0
DWIDTH 0 0
BBX 6 1 -7 4
BITMAP
2BBBB9
ENDCHAR
STARTCHAR uni0336
ENCODING 822
SWIDTH 0 0
DWIDTH 0 0
BBX 9 1 -8 4
BITMAP
9BBBBBBB50
ENDCHAR
STARTCHAR uni0337
ENCODING 823
SWIDTH 0 0
DWIDTH 0 0
BBX 5 4 -6 4
BITMAP
000330
007800
2A4000
610000
ENDCHAR
STARTCHAR uni0338
ENCODING 824
SWIDTH 0 0
DWIDTH 0 0
BBX 7 14 -7 -3
BITMAP
00000490
00000A30
00002C00
00008500
0000C000
00058000
000B2000
003A0000
00940000
01C00000
07700000
0C100000
49000000
A3000000
ENDCHAR
STARTCHAR uni0339
ENCODING 825
SWIDTH 0 0
DWIDTH 0 0
BBX 3 4 -5 -4
BITMAP
7A10
0560
0560
7A10
ENDCHAR
STARTCHAR uni033A
ENCODING 826
SWIDTH 0 0
DWIDTH 0 0
BBX 5 3 -6 -3
BITMAP
200110
A00540
8AAB30
ENDCHAR
STARTCHAR uni033B
ENCODING 827
SWIDTH 0 0
DWIDTH 0 0
BBX 4 3 -6 -4
BITMAP
1CBA
280A
1CBA
ENDCHAR
STARTCHAR uni033C
ENCODING 828
SWIDTH 0 0
DWIDTH 0 0
BBX 6 2 -7 -3
BITMAP
1BA6B7
002901
ENDCHAR
STARTCHAR uni033D
ENCODING 829
SWIDTH 0 0
DWIDTH 0 0
BBX 4 4 -6 8
BITMAP
1616
07C3
0A97
0202
ENDCHAR
STARTCHAR uni033E
ENCODING 830
SWIDTH 0 0
DWIDTH 0 0
BBX 3 6 -5 8
BITMAP
0410
5900
6A00
1E10
0C20
4500
ENDCHAR
STARTCHAR uni033F
ENCODING 831
SWIDTH 0 0
DWIDTH 0 0
BBX 7 3 -7 8
BITMAP
9BBBBB60
00000000
9BBBBB60
ENDCHAR
STARTCHAR uni0346
ENCODING 838
SWIDTH 0 0
DWIDTH 0 0
BBX 5 3 -6 8
BITMAP
DBBC80
E00490
500130
ENDCHAR
STARTCHAR uni0347
ENCODING 839
SWIDTH 0 0
DWIDTH 0 0
BBX 6 3 -7 -4
BITMAP
3BBBBA
000000
3BBBBA
ENDCHAR
STARTCHAR uni034C
ENCODING 844
SWIDTH 0 0
DWIDTH 0 0
BBX 6 4 -7 9
BITMAP
06C606
1519C4
06C837
1519C4
ENDCHAR
STARTCHAR uni034D
ENCODING 845
SWIDTH 0 0
DWIDTH 0 0
BBX 9 5 -8 -5
BITMAP
0010000000
0540008200
4FDBBBED10
0650008200
0010001000
ENDCHAR
STARTCHAR uni0359
ENCODING 857
SWIDTH 0 0
DWIDTH 0 0
BBX 5 5 -6 -6
BITMAP
02B000
C59970
19C600
C59970
02B000
ENDCHAR
STARTCHAR uni035C
ENCODING 860
SWIDTH 0 0
DWIDTH 0 0
BBX 12 3 -6 -4
BITMAP
410000000014
2B51000015B2
017BCBBCB710
ENDCHAR
STARTCHAR uni0360
ENCODING 864
SWIDTH 0 0
DWIDTH 0 0
BBX 8 2 -4 9
BITMAP
5BC93006
60049CB5
ENDCHAR
STARTCHAR uni0361
ENCODING 865
SWIDTH 0 0
DWIDTH 0 0
BBX 8 3 -4 8
BITMAP
07BBBB60
95000068
30000003
ENDCHAR
STARTCHAR uni0362
ENCODING 866
SWIDTH 0 0
DWIDTH 0 0
BBX 13 3 -6 -4
BITMAP
00000000007200
BBBBBBBBBBDE20
00000000008300
ENDCHAR
STARTCHAR uni037E
ENCODING 894
SWIDTH 261 0
DWIDTH 4 0
BBX 3 11 1 -3
BITMAP
9D00
3400
0000
0000
0000
0000
2400
BF40
0930
4900
2000
ENDCHAR
STARTCHAR tonos
ENCODING 900
SWIDTH 165 0
DWIDTH 3 0
BBX 3 3 0 9
BITMAP
5D10
6B00
7500
ENDCHAR
STARTCHAR dieresistonos
ENCODING 901
SWIDTH 426 0
DWIDTH 7 0
BBX 7 3 0 9
BITMAP
012D4100
6F4E4F30
13480300
ENDCHAR
STARTCHAR Alphatonos
ENCODING 902
SWIDTH 718 0
DWIDTH 11 0
BBX 12 11 0 0
BITMAP
0E600D300000
1E104F900000
3900BBF10000
0002C3F70000
000870DE0000
001E107F5000
006A002FC000
00CDBBBEF300
03D00005FA00
0B700000DF30
CFE5000AFFE5
ENDCHAR
STARTCHAR anoteleia
ENCODING 903
SWIDTH 261 0
DWIDTH 4 0
BBX 2 2 1 6
BITMAP
9D
34
ENDCHAR
STARTCHAR Epsilontonos
ENCODING 904
SWIDTH 745 0
DWIDTH 12 0
BBX 13 11 -1 0
BITMAP
0E64BFDBBBED00
1E100F80000B00
39000F80000400
00000F80008000
00000F8002A000
00000FDBCEA000
00000F80019000
00000F80000020
00000F80000450
00000F80001C30
0004BFDBBBEF10
ENDCHAR
STARTCHAR Etatonos
ENCODING 905
SWIDTH 896 0
DWIDTH 14 0
BBX 15 11 -1 0
BITMAP
0E66EFFC109EFE90
1E101F900006F500
39000E800004F300
00000E800004F300
00000E800004F300
00000EDBBBBCF300
00000E800004F300
00000E800004F300
00000E800004F300
00001F900005F500
0006DFFC109EFE90
ENDCHAR
STARTCHAR Iotatonos
ENCODING 906
SWIDTH 478 0
DWIDTH 8 0
BBX 9 11 -1 0
BITMAP
0E66DFFC10
1E101F9000
39000E8000
00000E8000
00000E8000
00000E8000
00000E8000
00000E8000
00000E8000
00001F9000
0006DFFC10
ENDCHAR
STARTCHAR Omicrontonos
ENCODING 908
SWIDTH 806 0
DWIDTH 13 0
BBX 14 11 -1 0
BITMAP
0E6006CBCC6000
1E10AD2003DA00
3906F400004F60
000CD000000DC0
000FA000000AF0
001F90000009F1
000FB000000AF0
000CD000000CB0
0006F400002F50
0000AD2002C900
000006CBBB6000
ENDCHAR
STARTCHAR Upsilontonos
ENCODING 910
SWIDTH 787 0
DWIDTH 13 0
BBX 14 11 -1 0
BITMAP
5E1BFFE500AFF8
6B007F80000D30
74000AE2006700
000002EA01B000
0000007F484000
0000000CDA0000
00000005F30000
00000004F30000
00000004F30000
00000006F50000
000000AEFEA000
ENDCHAR
STARTCHAR Omegatonos
ENCODING 911
SWIDTH 830 0
DWIDTH 13 0
BBX 14 11 -1 0
BITMAP
0E6006BEEC7100
1E10AFC87BFC10
3906FA00008F80
000BF200000EE0
000DE000000CF0
000BD000000BE0
0008F100000EA0
0002E600005F30
00425D1001C616
004B59C10BB5A6
002FFFF20FFFF4
ENDCHAR
STARTCHAR iotadieresistonos
ENCODING 912
SWIDTH 259 0
DWIDTH 4 0
BBX 6 12 -1 0
BITMAP
007E00
B9989B
339233
000000
00D800
00D700
00E500
00E300
00E100
00E100
00D651
007E80
ENDCHAR
STARTCHAR Alpha
ENCODING 913
SWIDTH 718 0
DWIDTH 11 0
BBX 12 11 0 0
BITMAP
00000D300000
00004F900000
0000BBF10000
0002C3F70000
000870DE0000
001E107F5000
006A002FC000
00CDBBBEF300
03D00005FA00
0B700000DF30
CFE5000AFFE5
ENDCHAR
STARTCHAR Beta
ENCODING 914
SWIDTH 618 0
DWIDTH 10 0
BBX 10 11 0 0
BITMAP
4CFECDD800
00E9005F80
00D9000DB0
00D9000D90
00D9005B10
00DEBEE710
00D9004EC0
00D90007F4
00D90006F4
00E9001CD1
4CFEBCD920
ENDCHAR
STARTCHAR Gamma
ENCODING 915
SWIDTH 569 0
DWIDTH 9 0
BBX 9 11 0 0
BITMAP
2AFDBBCFA0
00E90003B0
00D9000080
00D9000000
00D9000000
00D9000000
00D9000000
00D9000000
00E9000000
28FE720000
5FFFF40000
ENDCHAR
STARTCHAR Delta
ENCODING 916
SWIDTH 667 0
DWIDTH 11 0
BBX 10 11 0 0
BITMAP
00002D0000
00009F5000
0001BDB000
000767F200
000C01F800
005800AE10
00B2005F60
03A0000EC0
0A400008F3
2E555557FA
7FFFFFFFFF
ENDCHAR
STARTCHAR Epsilon
ENCODING 917
SWIDTH 626 0
DWIDTH 10 0
BBX 10 11 0 0
BITMAP
3AFDBBBDF0
00E90000B0
00D9000030
00D9000800
00D9001B00
00DEBBEC00
00D9000900
00D9000002
00D9000037
00E90000B5
3AFDBBBEF3
ENDCHAR
STARTCHAR Zeta
ENCODING 918
SWIDTH 594 0
DWIDTH 10 0
BBX 9 11 0 0
BITMAP
0DECBBCFD0
0D10008F40
080003F900
00000DD100
00008F4000
0003F90000
000CD10000
008F400010
03FA000090
0CE10003C0
7FDBBBCFA0
ENDCHAR
STARTCHAR Eta
ENCODING 919
SWIDTH 777 0
DWIDTH 12 0
BBX 12 11 0 0
BITMAP
5DFFC208EFFA
01EB00004F60
00D900002F50
00D900002F50
00D900002F50
00DEBBBBCF50
00D900002F50
00D900002F50
00D900002F50
00EA00004F60
5DFFC208EFEA
ENDCHAR
STARTCHAR Theta
ENCODING 920
SWIDTH 738 0
DWIDTH 12 0
BBX 11 11 0 0
BITMAP
0007CEEB5000
00BFB67CF800
07F70000AF40
0DD000002FA0
2FA182290DE0
3F91FFFD0CF0
2FA194490DE0
0DD000002FB0
08F700009F50
00BFA67BF900
0007CEEC6000
ENDCHAR
STARTCHAR Iota
ENCODING 921
SWIDTH 357 0
DWIDTH 6 0
BBX 6 11 0 0
BITMAP
5DFFC2
01EA00
00D900
00D900
00D900
00D900
00D900
00D900
00D900
01EA00
5DFFC2
ENDCHAR
STARTCHAR Kappa
ENCODING 922
SWIDTH 702 0
DWIDTH 11 0
BBX 12 11 0 0
BITMAP
5DFFC25EFE50
01EA000BB100
00D900690000
00D906800000
00D977000000
00DDF5000000
00D98F500000
00D908F50000
00D9008F6000
01EA000BF700
5DFFC25EFFD2
ENDCHAR
STARTCHAR Lambda
ENCODING 923
SWIDTH 710 0
DWIDTH 11 0
BBX 12 11 0 0
BITMAP
00001E200000
00006F800000
0000B9E10000
000482F70000
000B20BD0000
002A004F6000
0094000DC000
01C00007F400
07700001FC00
7EB30007FFA2
EFF6000FFFF4
ENDCHAR
STARTCHAR Mu
ENCODING 924
SWIDTH 895 0
DWIDTH 14 0
BBX 14 11 0 0
BITMAP
6EFE000000AFE7
02FF500001FF40
00CEC00007BF30
00B9F3000D5F30
00B3F9004A4F30
00B0BE10A44F30
00B05F62C04F30
00B00DC7604F30
01B007FE104F30
02D001F9005F40
6EFD209308EFE7
ENDCHAR
STARTCHAR Nu
ENCODING 925
SWIDTH 742 0
DWIDTH 12 0
BBX 12 11 0 0
BITMAP
6EF80004DFE5
03FF40001E30
00DEE2000C00
00B5FB000C00
00B09F800C00
00B00CF40C00
00B002EE1C00
00B0004FBC00
01B00007FF00
02D00000BF00
6EFD20001D00
ENDCHAR
STARTCHAR Xi
ENCODING 926
SWIDTH 648 0
DWIDTH 10 0
BBX 10 11 0 0
BITMAP
0EFFFFFFF4
0D766666B5
0500000023
0071000800
0076223B00
007FFFFC00
0077445A00
1100000001
3600000018
2D766666B8
1FFFFFFFF7
ENDCHAR
STARTCHAR Omicron
ENCODING 927
SWIDTH 738 0
DWIDTH 12 0
BBX 11 11 0 0
BITMAP
0006CBCC5000
00BC2004E900
07F300005F50
0DB000000EB0
1F9000000BE0
2F8000000AF0
1F9000000BE0
0DC000000EA0
08F200004F40
00BC1002D800
0007CBBB5000
ENDCHAR
STARTCHAR Pi
ENCODING 928
SWIDTH 759 0
DWIDTH 12 0
BBX 12 11 0 0
BITMAP
6FFFFFFFFFF9
38FB6666AF93
00D900007F00
00D900007F00
00D900007F00
00D900007F00
00D900007F00
00D900007F00
00D900007F00
28FE7106DF93
6FFFF10EFFF9
ENDCHAR
STARTCHAR Rho
ENCODING 929
SWIDTH 569 0
DWIDTH 9 0
BBX 9 11 0 0
BITMAP
29FDABC600
00E9005F60
00D9000EA0
00D9000F80
00D9007E20
00DDAA7100
00D9000000
00D9000000
00D9000000
00EB000000
3DFFC20000
ENDCHAR
STARTCHAR Sigma
ENCODING 931
SWIDTH 604 0
DWIDTH 10 0
BBX 10 11 0 0
BITMAP
7FFFFFFF90
1DE6667CA0
02E90001A0
004F700020
0007F50000
0000B90000
0003B10000
002C100021
01B3000091
0AA66669E0
6FFFFFFFC0
ENDCHAR
STARTCHAR Tau
ENCODING 932
SWIDTH 603 0
DWIDTH 10 0
BBX 10 11 0 0
BITMAP
9FCBFDBDF4
A300E80095
8000E80035
0000E80000
0000E80000
0000E80000
0000E80000
0000E80000
0000E80000
0001FA0000
006DFFC200
ENDCHAR
STARTCHAR Upsilon
ENCODING 933
SWIDTH 647 0
DWIDTH 10 0
BBX 12 11 -1 0
BITMAP
1DFFD201DFE5
00AF40002D10
001DC0009300
0004F7039000
0000AE1B1000
00002ED60000
000008F00000
000008E00000
000008E00000
000009F10000
0001CFFE7000
ENDCHAR
STARTCHAR Phi
ENCODING 934
SWIDTH 718 0
DWIDTH 11 0
BBX 11 11 0 0
BITMAP
0009FFFF0000
0005AFD80000
03CB7FB9E800
1E900F704F80
5F400F700CD0
6F300F700BD0
4F600F700DB0
0BE30F707E30
006AAFCA8200
00048FC60000
0009FFFF0000
ENDCHAR
STARTCHAR Chi
ENCODING 935
SWIDTH 664 0
DWIDTH 11 0
BBX 11 11 0 0
BITMAP
9FFF803DFE50
03FD0007B100
007F501C1000
000CD1A30000
0002EC600000
00009F400000
0003ABD10000
001C22FA0000
00A5007F5000
08A0001FE200
CFE600BFFE70
ENDCHAR
STARTCHAR Psi
ENCODING 936
SWIDTH 720 0
DWIDTH 12 0
BBX 12 11 0 0
BITMAP
DA18FFFF14D6
7F739FD70ED3
0E900F800F70
0E800E800F70
0E900E801F70
0DC00E805F60
07F93E95DE10
008EFFFFC300
00013F920000
00037FC60000
0008FFFF1000
ENDCHAR
STARTCHAR Omega
ENCODING 937
SWIDTH 777 0
DWIDTH 12 0
BBX 12 11 0 0
BITMAP
0004BEFD8100
008FD87AFD20
03FC10005FB0
09F400000CF1
0BF1000009F3
09F1000009F2
06F300000BC0
00D900002F50
243D2000A907
1C68D208C598
0FFFF50DFFF6
ENDCHAR
STARTCHAR Iotadieresis
ENCODING 938
SWIDTH 357 0
DWIDTH 6 0
BBX 6 14 0 0
BITMAP
7901C4
9C02E5
000000
5DFFC2
01EA00
00D900
00D900
00D900
00D900
00D900
00D900
00D900
01EA00
5DFFC2
ENDCHAR
STARTCHAR Upsilondieresis
ENCODING 939
SWIDTH 647 0
DWIDTH 10 0
BBX 12 14 -1 0
BITMAP
0001B406B000
0001E607D000
000000000000
1DFFD201DFE5
00AF40002D10
001DC0009300
0004F7039000
0000AE1B1000
00002ED60000
000008F00000
000008E00000
000008E00000
000009F10000
0001CFFE7000
ENDCHAR
STARTCHAR alphatonos
ENCODING 940
SWIDTH 561 0
DWIDTH 9 0
BBX 9 12 0 0
BITMAP
0000E60000
0001E10000
0003900000
0000000000
01AED34F40
0B946B9B00
3A0007E300
650005A000
6400088000
57001AA000
1E64B2E560
06ED30CD30
ENDCHAR
STARTCHAR epsilontonos
ENCODING 941
SWIDTH 381 0
DWIDTH 6 0
BBX 6 12 0 0
BITMAP
0005E1
0007A0
000840
000000
04BEE7
1E9686
1C0000
077A20
0A4610
4B0001
3F86A8
06DEC3
ENDCHAR
STARTCHAR etatonos
ENCODING 942
SWIDTH 510 0
DWIDTH 8 0
BBX 9 16 -1 -4
BITMAP
000009C000
00000A7000
00000B1000
0000000000
06E60BE500
1A9B799C00
001C900D00
000F400B10
002E000B20
005D000C20
007C000D20
00AC000F10
0000002F00
0000004F00
0000007E00
0000006600
ENDCHAR
STARTCHAR iotatonos
ENCODING 943
SWIDTH 259 0
DWIDTH 4 0
BBX 4 12 1 0
BITMAP
4F20
5C00
6500
0000
D800
D700
E500
E300
E100
E100
D651
7E80
ENDCHAR
STARTCHAR upsilondieresistonos
ENCODING 944
SWIDTH 491 0
DWIDTH 8 0
BBX 9 12 -1 0
BITMAP
0000D80000
02E4F4E500
0051B05100
0000000000
06E8029100
19BB005900
0079001E00
0086000F20
0093001F10
0093006D00
007B69F500
001BFD6000
ENDCHAR
STARTCHAR alpha
ENCODING 945
SWIDTH 561 0
DWIDTH 9 0
BBX 9 8 0 0
BITMAP
01AED34F40
0B946B9B00
3A0007E300
650005A000
6400088000
57001AA000
1E64B2E560
06ED30CD30
ENDCHAR
STARTCHAR beta
ENCODING 946
SWIDTH 530 0
DWIDTH 8 0
BBX 8 16 0 -4
BITMAP
0006DEA0
005D77E5
00D20067
04900074
07612670
0949DB10
0B3111B1
0D200068
0D40003C
0E90005C
0FA968E8
1F38ED80
2F300000
3F400000
4F400000
25000000
ENDCHAR
STARTCHAR gamma
ENCODING 947
SWIDTH 466 0
DWIDTH 7 0
BBX 8 12 0 -4
BITMAP
6E8008F1
98F10D90
00A53F20
00668A00
0047C300
0029C000
001E5000
001E0000
005C0000
00AC0000
00DA0000
00B60000
ENDCHAR
STARTCHAR delta
ENCODING 948
SWIDTH 479 0
DWIDTH 8 0
BBX 8 12 0 0
BITMAP
009ED700
02D69F90
00B10450
003D4000
0029F700
04ECAF40
1C3008C0
560002F1
740001F1
670005D0
2E869F50
05DFC500
ENDCHAR
STARTCHAR epsilon
ENCODING 949
SWIDTH 381 0
DWIDTH 6 0
BBX 6 8 0 0
BITMAP
04BEE7
1E9686
1C0000
077A20
0A4610
4B0001
3F86A8
06DEC3
ENDCHAR
STARTCHAR zeta
ENCODING 950
SWIDTH 386 0
DWIDTH 6 0
BBX 7 16 0 -4
BITMAP
00470000
00C41970
006CCE60
002E8100
01D70000
09900000
1D100000
46000000
63000000
66000000
2FA62000
06EFFA00
00036E30
00000910
0058A700
007B5000
ENDCHAR
STARTCHAR eta
ENCODING 951
SWIDTH 510 0
DWIDTH 8 0
BBX 9 12 -1 -4
BITMAP
06E60BE500
1A9B799C00
001C900D00
000F400B10
002E000B20
005D000C20
007C000D20
00AC000F10
0000002F00
0000004F00
0000007E00
0000006600
ENDCHAR
STARTCHAR theta
ENCODING 952
SWIDTH 514 0
DWIDTH 8 0
BBX 8 12 0 0
BITMAP
004DE900
02E87D80
084001D0
0A000093
1A222275
2FFFFFF7
3B444487
2A000076
0D0000A3
0B6002D0
04F87D70
006DE800
ENDCHAR
STARTCHAR iota
ENCODING 953
SWIDTH 259 0
DWIDTH 4 0
BBX 4 8 1 0
BITMAP
D800
D700
E500
E300
E100
E100
D651
7E80
ENDCHAR
STARTCHAR kappa
ENCODING 954
SWIDTH 495 0
DWIDTH 8 0
BBX 9 8 -1 0
BITMAP
06E9003C50
1AAF04ED20
002E2E6000
001BB50000
002E970000
003F1C1000
005D08C670
008C01CE40
ENDCHAR
STARTCHAR lambda
ENCODING 955
SWIDTH 506 0
DWIDTH 8 0
BBX 9 13 0 0
BITMAP
0001000000
02EE200000
075B700000
0002A00000
0000B00000
0002F00000
000AD20000
002E740000
00A8570000
02F2490000
0AC02E0000
2F600EA820
9F1006E700
ENDCHAR
STARTCHAR mu
ENCODING 956
SWIDTH 552 0
DWIDTH 9 0
BBX 9 12 0 -4
BITMAP
0C9002F300
0C7003F100
0C5003E000
0C3004B000
0C20089000
0C401BB000
0EC4B5E560
1E7E80BD30
3E00000000
4F00000000
4F20000000
2400000000
ENDCHAR
STARTCHAR nu
ENCODING 957
SWIDTH 453 0
DWIDTH 7 0
BBX 8 9 -1 -1
BITMAP
07E700B5
29AE008C
001F108D
000C10BA
000A12F3
00091AA0
00096D10
000AD200
00022000
ENDCHAR
STARTCHAR xi
ENCODING 958
SWIDTH 390 0
DWIDTH 6 0
BBX 7 17 0 -4
BITMAP
00100000
04800000
08A18D20
00AFC810
05D30000
0B300000
09400000
01BCF700
08424100
55000000
76000000
4FA52000
07EFF900
00158E50
00000550
00367A10
004E9100
ENDCHAR
STARTCHAR omicron
ENCODING 959
SWIDTH 475 0
DWIDTH 8 0
BBX 7 8 0 0
BITMAP
019EE900
0AC77D70
3C0002D0
660000B0
650000B0
5A0002C0
1EB78E50
03CFD600
ENDCHAR
STARTCHAR pi
ENCODING 960
SWIDTH 591 0
DWIDTH 9 0
BBX 10 8 0 0
BITMAP
08DFFFFFF1
686C66C660
200A00B000
001A01B000
006704B000
00C405C000
04F105F770
0CC001DD30
ENDCHAR
STARTCHAR rho
ENCODING 961
SWIDTH 515 0
DWIDTH 8 0
BBX 8 12 0 -4
BITMAP
003BED50
01EA68E2
07800067
0B200029
0D200039
0E700095
0FA97BD0
0F3CEB20
0F300000
0F400000
1F600000
06100000
ENDCHAR
STARTCHAR uni03C2
ENCODING 962
SWIDTH 377 0
DWIDTH 6 0
BBX 6 12 0 -4
BITMAP
019EE9
0BA776
380000
640000
650000
3E4000
0CFB40
01AFF7
00017E
00000A
003697
005D70
ENDCHAR
STARTCHAR sigma
ENCODING 963
SWIDTH 545 0
DWIDTH 9 0
BBX 9 8 0 0
BITMAP
018EFFFFA0
0AD86A8630
2C1001A000
560000C100
660000C300
4B0002F100
0EB68EA000
03CFD80000
ENDCHAR
STARTCHAR tau
ENCODING 964
SWIDTH 392 0
DWIDTH 6 0
BBX 7 8 0 0
BITMAP
2BEFFF50
A76C6610
10390000
00570000
00860000
00970000
009D7500
004EC100
ENDCHAR
STARTCHAR upsilon
ENCODING 965
SWIDTH 491 0
DWIDTH 8 0
BBX 9 8 -1 0
BITMAP
06E8029100
19BB005900
0079001E00
0086000F20
0093001F10
0093006D00
007B69F500
001BFD6000
ENDCHAR
STARTCHAR phi
ENCODING 966
SWIDTH 603 0
DWIDTH 10 0
BBX 10 13 0 -4
BITMAP
0003100000
02CF17EC20
0CA33E7AA0
3A009600C0
6500C200B1
5500D100C0
2D20D108A0
08FBEBED10
005AFB6100
0001F20000
0002F30000
0003F40000
0001200000
ENDCHAR
STARTCHAR chi
ENCODING 967
SWIDTH 462 0
DWIDTH 7 0
BBX 9 12 -1 -4
BITMAP
08E5001FA0
2A8E109E10
100942F600
000389B000
0000CE2000
0000D60000
0007F40000
002E770000
00AA1B0000
05F20C2000
1EA008C650
8F2002DD10
ENDCHAR
STARTCHAR psi
ENCODING 968
SWIDTH 620 0
DWIDTH 10 0
BBX 11 16 -1 -4
BITMAP
000003700000
000006E00000
000005C00000
000005B00000
05E905A09200
19BC05A03B00
006A06900E10
007606900E30
009306801F20
008506808D00
004E8ABCF400
0006DFEB3000
000009800000
00000A900000
00000CA00000
000005200000
ENDCHAR
STARTCHAR omega
ENCODING 969
SWIDTH 660 0
DWIDTH 11 0
BBX 10 8 0 0
BITMAP
007A000650
09E60000C3
2D105E1069
56007F003D
65006C002F
490048005D
0D97BA78E8
04DE42DE90
ENDCHAR
STARTCHAR iotadieresis
ENCODING 970
SWIDTH 259 0
DWIDTH 4 0
BBX 6 11 -1 0
BITMAP
7D11D7
240042
000000
00D800
00D700
00E500
00E300
00E100
00E100
00D651
007E80
ENDCHAR
STARTCHAR upsilondieresis
ENCODING 971
SWIDTH 491 0
DWIDTH 8 0
BBX 9 11 -1 0
BITMAP
00D805E200
0042015000
0000000000
06E8029100
19BB005900
0079001E00
0086000F20
0093001F10
0093006D00
007B69F500
001BFD6000
ENDCHAR
STARTCHAR omicrontonos
ENCODING 972
SWIDTH 475 0
DWIDTH 8 0
BBX 7 12 0 0
BITMAP
0000E700
0001F100
0002A000
00000000
019EE900
0AC77D70
3C0002D0
660000B0
650000B0
5A0002C0
1EB78E50
03CFD600
ENDCHAR
STARTCHAR upsilontonos
ENCODING 973
SWIDTH 491 0
DWIDTH 8 0
BBX 9 12 -1 0
BITMAP
00005E1000
00006B0000
0000740000
0000000000
06E8029100
19BB005900
0079001E00
0086000F20
0093001F10
0093006D00
007B69F500
001BFD6000
ENDCHAR
STARTCHAR omegatonos
ENCODING 974
SWIDTH 660 0
DWIDTH 11 0
BBX 10 12 0 0
BITMAP
00000E7000
00000F2000
00001A0000
0000000000
007A000650
09E60000C3
2D105E1069
56007F003D
65006C002F
490048005D
0D97BA78E8
04DE42DE90
ENDCHAR
STARTCHAR uni03D0
ENCODING 976
SWIDTH 438 0
DWIDTH 7 0
BBX 7 12 0 0
BITMAP
0007EC10
007C7970
01C00080
07C40470
0C3EFE10
1E016200
2E9FF800
2FC75B30
0F300260
0C800270
05F87D30
008EE700
ENDCHAR
STARTCHAR uni03D1
ENCODING 977
SWIDTH 541 0
DWIDTH 9 0
BBX 9 12 0 0
BITMAP
003CE80000
00C97D6000
02A003C000
028000B100
00A0008300
0069327B10
0016EFFE10
2EE2137700
76F3006600
00C200C300
009A6BC000
003CFC2000
ENDCHAR
STARTCHAR uni03D2
ENCODING 978
SWIDTH 616 0
DWIDTH 10 0
BBX 10 11 0 0
BITMAP
2CEB102CE6
67BF80C9CC
000AC4A088
0003F93000
0000FD0000
0000DB0000
0000D90000
0000D90000
0000DA0000
0038FE7200
007FFFF400
ENDCHAR
STARTCHAR uni03D5
ENCODING 981
SWIDTH 575 0
DWIDTH 9 0
BBX 9 15 0 -4
BITMAP
0000AC0000
0000AA0000
0000B90000
0004CA2000
02CFFFF700
0C93C56E30
4A00D30680
6500D20290
6600E10480
2E40F03D30
07FDFDF600
0039F72000
0004E00000
0006D00000
0008D00000
ENDCHAR
STARTCHAR uni03D6
ENCODING 982
SWIDTH 821 0
DWIDTH 13 0
BBX 14 8 0 0
BITMAP
2AEFFFFFFFFFF1
A77F866666E660
1076006600B400
00A000CA008700
00B000C7008900
00A300A300B700
005D78AB6AF200
0008EB16ED5000
ENDCHAR
STARTCHAR uni03D8
ENCODING 984
SWIDTH 627 0
DWIDTH 10 0
BBX 10 11 0 0
BITMAP
005CEEC600
08FC77CF90
2FB0000BF3
5F500005F6
6F400004F6
3F500005F3
0BB0000AB0
01AB66AA10
0001CC1000
0000CB0000
0029FF9200
ENDCHAR
STARTCHAR uni03D9
ENCODING 985
SWIDTH 475 0
DWIDTH 8 0
BBX 7 12 0 -4
BITMAP
019EE900
0BC77D70
3B0002D0
650000B0
650000B0
4A0003B0
0DDABE30
018E9300
000D2000
000F3000
002F5000
00140000
ENDCHAR
STARTCHAR uni03DA
ENCODING 986
SWIDTH 578 0
DWIDTH 9 0
BBX 9 11 0 0
BITMAP
005CEFFF70
07FB77BF70
2FA0000B70
5F40000470
6F40000000
4F90000000
0CF9421000
01AFFF8000
00013E8000
00000F9000
0004BFE810
ENDCHAR
STARTCHAR uni03DB
ENCODING 987
SWIDTH 490 0
DWIDTH 8 0
BBX 8 12 0 -4
BITMAP
005BEFFC
08C87665
29000000
64000000
65000000
4E300000
0CFA3000
02AFF400
00029B00
00000A00
0056A400
009C4000
ENDCHAR
STARTCHAR uni03DC
ENCODING 988
SWIDTH 588 0
DWIDTH 9 0
BBX 10 11 0 0
BITMAP
3AFDBBBDF2
00E90000A2
00D9000031
00D9000900
00D9002B00
00DEBBEB00
00D9001A00
00D9000000
00D9000000
00EA000000
5DFFC30000
ENDCHAR
STARTCHAR uni03DD
ENCODING 989
SWIDTH 386 0
DWIDTH 6 0
BBX 8 13 -2 -5
BITMAP
000BFFFF
000B9665
000A5000
000A5000
000A5010
000ADEF0
000A4330
000B2000
000C0000
001B0000
42A70000
6FD10000
03100000
ENDCHAR
STARTCHAR uni03DE
ENCODING 990
SWIDTH 525 0
DWIDTH 8 0
BBX 8 11 0 0
BITMAP
00FFF700
007FA300
00480000
01A00000
09422222
5FFFFFFD
244444B3
00000470
00002B00
0007EB30
000FFF70
ENDCHAR
STARTCHAR uni03DF
ENCODING 991
SWIDTH 434 0
DWIDTH 7 0
BBX 8 11 -1 0
BITMAP
0BE30000
47C70000
00760000
00730000
00902780
00CDFF70
03C84730
00000B00
00000D00
00000F78
00000BD3
ENDCHAR
STARTCHAR uni03E0
ENCODING 992
SWIDTH 697 0
DWIDTH 11 0
BBX 12 11 0 0
BITMAP
0003F8000000
0000AE100000
00005F900000
0000ACF20000
0003A3F90000
000B21EF2000
0049096FA000
00C22C09F200
05909502FA00
0D22C018FF91
690A502FFFF3
ENDCHAR
STARTCHAR uni03E1
ENCODING 993
SWIDTH 458 0
DWIDTH 7 0
BBX 8 15 -1 -4
BITMAP
3E700000
1AFC1000
005EC100
0002E900
00004F30
016AC9A0
05F811E1
001000B5
0005ADB8
000BB259
0000004A
00000049
00000057
00000073
00000070
ENDCHAR
STARTCHAR uni03F0
ENCODING 1008
SWIDTH 504 0
DWIDTH 8 0
BBX 9 8 0 0
BITMAP
4E7001DC00
88E008E200
00C13F5000
00A1D90000
008AD50000
00DE570000
07F41E6720
3F9007EA00
ENDCHAR
STARTCHAR uni03F1
ENCODING 1009
SWIDTH 467 0
DWIDTH 7 0
BBX 7 12 0 -4
BITMAP
006DFA10
04D77D70
0B2002B0
0C0000B0
2D0001B0
2F834A90
0CAFFC10
0B633000
02DB4000
0006D200
0066A200
00AC4000
ENDCHAR
STARTCHAR uni03F4
ENCODING 1012
SWIDTH 737 0
DWIDTH 12 0
BBX 11 11 0 0
BITMAP
0007CEEB5000
00BFA78CF900
07F60000AF50
0DC000001FB0
2F9222222CD0
3FFFFFFFFFE0
2FA444444DD0
0EB000000EA0
08F500007F40
00CFA77BF800
0007CEEB5000
ENDCHAR
STARTCHAR uni03F5
ENCODING 1013
SWIDTH 380 0
DWIDTH 6 0
BBX 6 8 0 0
BITMAP
01AEE7
0A8684
372220
5FFFA0
694420
4B0001
0DA6B8
02CFC3
ENDCHAR
STARTCHAR uni03F6
ENCODING 1014
SWIDTH 382 0
DWIDTH 6 0
BBX 6 8 0 0
BITMAP
5DEB20
3867C0
022264
09FFF7
014487
100095
7B69E1
2CFC30
ENDCHAR
STARTCHAR uni0400
ENCODING 1024
SWIDTH 626 0
DWIDTH 10 0
BBX 10 14 0 0
BITMAP
0005E60000
00002B4000
0000000000
3AFDBBBDF0
00E90000B0
00D9000030
00D9000800
00D9001B00
00DEBBEC00
00D9000900
00D9000002
00D9000037
00E90000B5
3AFDBBBEF3
ENDCHAR
STARTCHAR uni0401
ENCODING 1025
SWIDTH 626 0
DWIDTH 10 0
BBX 10 14 0 0
BITMAP
004C10A700
005E10C900
0000000000
3AFDBBBDF0
00E90000B0
00D9000030
00D9000800
00D9001B00
00DEBBEC00
00D9000900
00D9000002
00D9000037
00E90000B5
3AFDBBBEF3
ENDCHAR
STARTCHAR uni0402
ENCODING 1026
SWIDTH 731 0
DWIDTH 12 0
BBX 12 11 0 0
BITMAP
8FCBFDBCF700
9500E8006800
9000E8001800
2000E8000200
0000E8000000
0000EB9BC910
0000E9002DC0
0000E80006F2
0000E80005F2
0000F85807D0
004BF85E9A20
ENDCHAR
STARTCHAR uni0403
ENCODING 1027
SWIDTH 548 0
DWIDTH 9 0
BBX 9 14 0 0
BITMAP
00005E6000
0003B20000
0000000000
2AFDBBDF50
00E9000960
00D9000360
00D9000020
00D9000000
00D9000000
00D9000000
00D9000000
00D9000000
01EB000000
4DFFD30000
ENDCHAR
STARTCHAR uni0404
ENCODING 1028
SWIDTH 668 0
DWIDTH 11 0
BBX 10 11 0 0
BITMAP
0007CBDFFB
01CB1003DB
08E100005B
0EA000000A
2F70000000
3FDBBBB700
2F70000000
0E90000000
08E1000002
01CB100068
0018CCBA50
ENDCHAR
STARTCHAR uni0405
ENCODING 1029
SWIDTH 504 0
DWIDTH 8 0
BBX 8 11 0 0
BITMAP
03BCDFE0
1E6004F0
3F3000A0
1FB10000
06FD5000
004DFB20
00007FD1
000005F7
640000F7
6C1004F3
5FECCC50
ENDCHAR
STARTCHAR uni0406
ENCODING 1030
SWIDTH 357 0
DWIDTH 6 0
BBX 6 11 0 0
BITMAP
5DFFC2
01EA00
00D900
00D900
00D900
00D900
00D900
00D900
00D900
01EA00
5DFFC2
ENDCHAR
STARTCHAR uni0407
ENCODING 1031
SWIDTH 357 0
DWIDTH 6 0
BBX 6 14 0 0
BITMAP
7901C4
9C02E5
000000
5DFFC2
01EA00
00D900
00D900
00D900
00D900
00D900
00D900
00D900
01EA00
5DFFC2
ENDCHAR
STARTCHAR uni0408
ENCODING 1032
SWIDTH 396 0
DWIDTH 6 0
BBX 6 11 0 0
BITMAP
06DFFC
001FA0
000E80
000E80
000E80
000E80
000E80
000E80
100E80
E81F50
8EC900
ENDCHAR
STARTCHAR uni0409
ENCODING 1033
SWIDTH 924 0
DWIDTH 15 0
BBX 16 11 -1 0
BITMAP
0006CEBBEFA20000
00003900CB000000
00004800CA000000
00005600CA000000
00007400CA000000
00009200CEBCC810
0000B000CA004EC0
0001B000CA0007F3
00066000CA0007F3
2C9D1000DA002DC0
2DE4001AFEBBC810
ENDCHAR
STARTCHAR uni040A
ENCODING 1034
SWIDTH 1013 0
DWIDTH 16 0
BBX 16 11 0 0
BITMAP
5DFFC20BFFE80000
01EB00007F400000
00D900005F200000
00D900005F200000
00D900005F200000
00DEBBBBDFCCCA40
00D900005F201AF4
00D900005F2001FA
00D900005F2001FA
00EA00007F2008F4
5DFFC209EFCBCB40
ENDCHAR
STARTCHAR uni040B
ENCODING 1035
SWIDTH 761 0
DWIDTH 12 0
BBX 12 11 0 0
BITMAP
8FCBFDBCF700
9500E8006800
9000E8001800
2000E8000200
0000E8000000
0000EB9BC910
0000EA003E80
0000E8000CB0
0000E8000CB0
0001FA000DC0
006DFFB0CFFB
ENDCHAR
STARTCHAR uni040C
ENCODING 1036
SWIDTH 658 0
DWIDTH 11 0
BBX 11 14 0 0
BITMAP
000007E50000
00004A200000
000000000000
3DFFC102DE40
00EB000A4820
00D900290000
00D900640000
00D901B00000
00DECE800000
00D908F30000
00D900DC0000
00D9005F6000
00EB000CE200
3DFFC204FE90
ENDCHAR
STARTCHAR uni040D
ENCODING 1037
SWIDTH 780 0
DWIDTH 12 0
BBX 12 14 0 0
BITMAP
0004E7000000
00001A500000
000000000000
5DFFC208EFFB
00EB00003F70
00D900009F50
00D900068F50
00D900482F50
00D902A02F50
00D91B102F50
00D9A2002F50
00DE40002F50
00EA00003F70
5DFFC208EFFB
ENDCHAR
STARTCHAR uni040E
ENCODING 1038
SWIDTH 625 0
DWIDTH 10 0
BBX 12 15 -1 0
BITMAP
000062035000
0004F206E000
00007BBA4000
000000000000
1DFFD102EFE3
00AF10003D10
002F60007600
0009E100B000
0001E7057000
00008E1B1000
00001EA80000
000007F10000
000004800000
006C7C100000
006ED3000000
ENDCHAR
STARTCHAR uni040F
ENCODING 1039
SWIDTH 759 0
DWIDTH 12 0
BBX 12 15 0 -4
BITMAP
5DFFC10AFFE7
01EA00009F20
00D900007F00
00D900007F00
00D900007F00
00D900007F00
00D900007F00
00D900007F00
00D900007F00
00E900007F10
3AFEBBBBDFB5
000004700000
000008A00000
00000AD00000
000009B00000
ENDCHAR
STARTCHAR uni0410
ENCODING 1040
SWIDTH 718 0
DWIDTH 11 0
BBX 12 11 0 0
BITMAP
00000D300000
00004F900000
0000BBF10000
0002C3F70000
000870DE0000
001E107F5000
006A002FC000
00CDBBBEF300
03D00005FA00
0B700000DF30
CFE5000AFFE5
ENDCHAR
STARTCHAR uni0411
ENCODING 1041
SWIDTH 617 0
DWIDTH 10 0
BBX 10 11 0 0
BITMAP
2AFDBBCF80
00E9000780
00D9000180
00D9000020
00D9000000
00DDBCC810
00D9005EB0
00D90008F2
00D90007F2
00E9002DB0
3BFEBCC710
ENDCHAR
STARTCHAR uni0412
ENCODING 1042
SWIDTH 618 0
DWIDTH 10 0
BBX 10 11 0 0
BITMAP
4CFECDD800
00E9005F80
00D9000DB0
00D9000D90
00D9005B10
00DEBEE710
00D9004EC0
00D90007F4
00D90006F4
00E9001CD1
4CFEBCD920
ENDCHAR
STARTCHAR uni0413
ENCODING 1043
SWIDTH 548 0
DWIDTH 9 0
BBX 9 11 0 0
BITMAP
2AFDBBDF50
00E9000960
00D9000360
00D9000020
00D9000000
00D9000000
00D9000000
00D9000000
00D9000000
01EB000000
4DFFD30000
ENDCHAR
STARTCHAR uni0414
ENCODING 1044
SWIDTH 663 0
DWIDTH 11 0
BBX 10 15 0 -4
BITMAP
019FBBBFE8
000C100F70
000C000F70
000C000F70
001B000F70
0049000F70
0075000F70
00C1000F70
03B0000F70
0B40000F80
DFBBBBBFEB
F60000007E
E00000000D
A00000000A
2000000002
ENDCHAR
STARTCHAR uni0415
ENCODING 1045
SWIDTH 626 0
DWIDTH 10 0
BBX 10 11 0 0
BITMAP
3AFDBBBDF0
00E90000B0
00D9000030
00D9000800
00D9001B00
00DEBBEC00
00D9000900
00D9000002
00D9000037
00E90000B5
3AFDBBBEF3
ENDCHAR
STARTCHAR uni0416
ENCODING 1046
SWIDTH 937 0
DWIDTH 15 0
BBX 17 11 -1 0
BITMAP
08E9009EFE9009E700
04675005F500576400
0000A003F300A00000
0000A103F301A00000
00005703F307500000
00000DDCFCDD000000
00009E23F32E900000
0003F603F307F30000
000CD003F300DC0000
006F5005F4005F6000
1CFC009EFE900CFC10
ENDCHAR
STARTCHAR uni0417
ENCODING 1047
SWIDTH 545 0
DWIDTH 9 0
BBX 9 11 0 0
BITMAP
0B9CCD8000
0F7005F700
0D0000EA00
080000E700
0000187000
001CFD7100
000006FB00
0000009F20
0000008F20
291003DA00
029BCC7000
ENDCHAR
STARTCHAR uni0418
ENCODING 1048
SWIDTH 780 0
DWIDTH 12 0
BBX 12 11 0 0
BITMAP
5DFFC208EFFB
00EB00003F70
00D900009F50
00D900068F50
00D900482F50
00D902A02F50
00D91B102F50
00D9A2002F50
00DE40002F50
00EA00003F70
5DFFC208EFFB
ENDCHAR
STARTCHAR uni0419
ENCODING 1049
SWIDTH 780 0
DWIDTH 12 0
BBX 12 15 0 0
BITMAP
000160043000
0006F20AD000
0004E108B000
00005BB91000
5DFFC208EFFB
00EB00003F70
00D900009F50
00D900068F50
00D900482F50
00D902A02F50
00D91B102F50
00D9A2002F50
00DE40002F50
00EA00003F70
5DFFC208EFFB
ENDCHAR
STARTCHAR uni041A
ENCODING 1050
SWIDTH 658 0
DWIDTH 11 0
BBX 11 11 0 0
BITMAP
3DFFC102DE40
00EB000A4820
00D900290000
00D900640000
00D901B00000
00DECE800000
00D908F30000
00D900DC0000
00D9005F6000
00EB000CE200
3DFFC204FE90
ENDCHAR
STARTCHAR uni041B
ENCODING 1051
SWIDTH 684 0
DWIDTH 11 0
BBX 12 11 -1 0
BITMAP
0006CDBBEF93
00003900AD00
00004800AC00
00005600AC00
00007400AC00
00009200AC00
0000B000AC00
0001A000AC00
00066000AC00
2C9D1000CD00
2DE4002CFFD4
ENDCHAR
STARTCHAR uni041C
ENCODING 1052
SWIDTH 895 0
DWIDTH 14 0
BBX 14 11 0 0
BITMAP
6EFE000000AFE7
02FF500001FF40
00CEC00007BF30
00B9F3000D5F30
00B3F9004A4F30
00B0BE10A44F30
00B05F62C04F30
00B00DC7604F30
01B007FE104F30
02D001F9005F40
6EFD209308EFE7
ENDCHAR
STARTCHAR uni041D
ENCODING 1053
SWIDTH 777 0
DWIDTH 12 0
BBX 12 11 0 0
BITMAP
5DFFC208EFFA
01EB00004F60
00D900002F50
00D900002F50
00D900002F50
00DEBBBBCF50
00D900002F50
00D900002F50
00D900002F50
00EA00004F60
5DFFC208EFEA
ENDCHAR
STARTCHAR uni041E
ENCODING 1054
SWIDTH 738 0
DWIDTH 12 0
BBX 11 11 0 0
BITMAP
0006CBCC5000
00BC2004E900
07F300005F50
0DB000000EB0
1F9000000BE0
2F8000000AF0
1F9000000BE0
0DC000000EA0
08F200004F40
00BC1002D800
0007CBBB5000
ENDCHAR
STARTCHAR uni041F
ENCODING 1055
SWIDTH 759 0
DWIDTH 12 0
BBX 12 11 0 0
BITMAP
6FFFFFFFFFF9
38FB6666AF93
00D900007F00
00D900007F00
00D900007F00
00D900007F00
00D900007F00
00D900007F00
00D900007F00
28FE7106DF93
6FFFF10EFFF9
ENDCHAR
STARTCHAR uni0420
ENCODING 1056
SWIDTH 569 0
DWIDTH 9 0
BBX 9 11 0 0
BITMAP
29FDABC600
00E9005F60
00D9000EA0
00D9000F80
00D9007E20
00DDAA7100
00D9000000
00D9000000
00D9000000
00EB000000
3DFFC20000
ENDCHAR
STARTCHAR uni0421
ENCODING 1057
SWIDTH 670 0
DWIDTH 11 0
BBX 10 11 0 0
BITMAP
0006BBCFFB
00AC2002DB
07F300004B
0DB000000A
1F90000000
3F70000000
2F80000000
0DB0000000
08F2000002
01CD300059
0017DCBA60
ENDCHAR
STARTCHAR uni0422
ENCODING 1058
SWIDTH 603 0
DWIDTH 10 0
BBX 10 11 0 0
BITMAP
9FCBFDBDF4
A300E80095
8000E80035
0000E80000
0000E80000
0000E80000
0000E80000
0000E80000
0000E80000
0001FA0000
006DFFC200
ENDCHAR
STARTCHAR uni0423
ENCODING 1059
SWIDTH 625 0
DWIDTH 10 0
BBX 12 11 -1 0
BITMAP
1DFFD102EFE3
00AF10003D10
002F60007600
0009E100B000
0001E7057000
00008E1B1000
00001EA80000
000007F10000
000004800000
006C7C100000
006ED3000000
ENDCHAR
STARTCHAR uni0424
ENCODING 1060
SWIDTH 725 0
DWIDTH 12 0
BBX 11 11 0 0
BITMAP
0006DFFC1000
00013FA20000
02AD8EBAE700
0DB00D704F80
5F400D700AE0
6F200D7008F0
4F500D700AD0
0BC10D703F50
018C9EB9B400
00001F900000
0005DFFC1000
ENDCHAR
STARTCHAR uni0425
ENCODING 1061
SWIDTH 664 0
DWIDTH 11 0
BBX 11 11 0 0
BITMAP
9FFF803DFE50
03FD0007B100
007F501C1000
000CD1A30000
0002EC600000
00009F400000
0003ABD10000
001C22FA0000
00A5007F5000
08A0001FE200
CFE600BFFE70
ENDCHAR
STARTCHAR uni0426
ENCODING 1062
SWIDTH 756 0
DWIDTH 12 0
BBX 12 15 0 -4
BITMAP
5DFFC10CFFD6
01EB0000AF10
00D900008E00
00D900008E00
00D900008E00
00D900008E00
00D900008E00
00D900008E00
00D900008E00
00E900008F00
4BFEBBBBDFD5
0000000001D6
000000000076
000000000046
000000000011
ENDCHAR
STARTCHAR uni0427
ENCODING 1063
SWIDTH 650 0
DWIDTH 10 0
BBX 10 11 0 0
BITMAP
AFFD17EFEA
0BE0005F60
0AD0003F40
0AD0003F40
09D0003F40
06F4005F40
008CBA8F40
0000003F40
0000003F40
0000004F60
00000AEFEA
ENDCHAR
STARTCHAR uni0428
ENCODING 1064
SWIDTH 1053 0
DWIDTH 17 0
BBX 17 11 0 0
BITMAP
5DFFB08EFE61DFFD30
00EA0006F4000CC000
00D80004F2000BB000
00D80004F2000BB000
00D80004F2000BB000
00D80004F2000BB000
00D80004F2000BB000
00D80004F2000BB000
00D80004F2000BB000
00E80004F2000BB000
3AFDBBBCFCBBBEF920
ENDCHAR
STARTCHAR uni0429
ENCODING 1065
SWIDTH 1044 0
DWIDTH 17 0
BBX 17 15 0 -4
BITMAP
5DFFB0AFFE53DFFC10
00EA0008F2001EA000
00D80006F1000D8000
00D80006F1000D8000
00D80006F1000D8000
00D80006F1000D8000
00D80006F1000D8000
00D80006F1000D8000
00D80006F1000D8000
00E80006F1000D9000
4BFDBBBDFBBBBFFB10
000000000000005F00
000000000000000D00
000000000000000A00
000000000000000200
ENDCHAR
STARTCHAR uni042A
ENCODING 1066
SWIDTH 723 0
DWIDTH 12 0
BBX 12 11 0 0
BITMAP
9FCBEF920000
A300DA000000
9000D9000000
2000D9000000
0000D9000000
0000DEBCB700
0000D9005FA0
0000D9000AF1
0000D9000AF0
0000E9003E90
002BFEBCC700
ENDCHAR
STARTCHAR uni042B
ENCODING 1067
SWIDTH 887 0
DWIDTH 14 0
BBX 14 11 0 0
BITMAP
5DFFC2000CFFE7
00EB0000008F20
00D90000006F10
00D90000006F10
00D90000006F10
00DDBDB6006F10
00D9007F706F10
00D9000CC06F10
00D9000CD06F10
00E9004F708F30
4DFEBCC60CFFE7
ENDCHAR
STARTCHAR uni042C
ENCODING 1068
SWIDTH 606 0
DWIDTH 10 0
BBX 10 11 0 0
BITMAP
5DFFC20000
01EB000000
00D9000000
00D9000000
00D9000000
00DDBCC710
00D9005EB0
00D90008F2
00D90008F2
00E9002DB0
3BFEBCC710
ENDCHAR
STARTCHAR uni042D
ENCODING 1069
SWIDTH 667 0
DWIDTH 11 0
BBX 10 11 0 0
BITMAP
0FFECCC600
0FA1004E90
0E100006F5
19000001FA
00000000DC
000BBBBBED
00000000CB
00000000E7
11000005E2
1A30003D60
018BBCB400
ENDCHAR
STARTCHAR uni042E
ENCODING 1070
SWIDTH 1042 0
DWIDTH 17 0
BBX 16 11 0 0
BITMAP
5DFFC2005CBCB500
01EB0008D3004E80
00D9004F400006F3
00D900AD000001F9
00D900DA000000CC
00DDBBFA000000CD
00D900EB000000CC
00D900BD000000E8
00D9006F400005F2
00EA000AD2002D70
5DFFC2006CBBB400
ENDCHAR
STARTCHAR uni042F
ENCODING 1071
SWIDTH 654 0
DWIDTH 10 0
BBX 11 11 -1 0
BITMAP
0003ABAAFD60
002E9002F600
006F4002F500
005F5002F500
000BD202F500
00007FDAF500
0000CD12F500
0006F502F500
000DC002F500
008F5004F700
1DFD008EFE90
ENDCHAR
STARTCHAR uni0430
ENCODING 1072
SWIDTH 480 0
DWIDTH 8 0
BBX 8 8 0 0
BITMAP
04BBD500
0E607E00
0A203F20
00038F20
05B64F20
3F203F20
5F204F20
1BD93DB3
ENDCHAR
STARTCHAR uni0431
ENCODING 1073
SWIDTH 520 0
DWIDTH 8 0
BBX 8 12 0 0
BITMAP
00000276
0018DFC1
02ED8400
0B600000
2B4BCD50
4AB005F2
5E5000D9
5F3000BB
4F3000BB
1F6000D8
08C105E2
008DBB30
ENDCHAR
STARTCHAR uni0432
ENCODING 1074
SWIDTH 505 0
DWIDTH 8 0
BBX 8 8 0 0
BITMAP
4DFBCC50
06F006F2
06F003F3
06F008C0
06FBDD40
06F004F5
06F002F6
4DFBCD91
ENDCHAR
STARTCHAR uni0433
ENCODING 1075
SWIDTH 429 0
DWIDTH 7 0
BBX 7 8 0 0
BITMAP
3CF9AE70
06F00580
06F00170
06F00000
06F00000
06F00000
06F10000
5EFD3000
ENDCHAR
STARTCHAR uni0434
ENCODING 1076
SWIDTH 530 0
DWIDTH 8 0
BBX 9 11 0 -3
BITMAP
06DCBDF900
006409C000
006309C000
009109C000
00A009C000
029009C000
0B3009C000
DEBBBDFC10
F300003F10
B000000B00
2000000200
ENDCHAR
STARTCHAR uni0435
ENCODING 1077
SWIDTH 464 0
DWIDTH 7 0
BBX 7 8 0 0
BITMAP
01ABD700
0C502F40
4E000BA0
6EBBBCB0
6D000000
4F200000
0CB00170
01ADB810
ENDCHAR
STARTCHAR uni0436
ENCODING 1078
SWIDTH 754 0
DWIDTH 12 0
BBX 14 8 -1 0
BITMAP
08E507FF904E90
045900AB009550
0006409A027000
0001909A082000
0001DDEECE1000
000AD19A0CB000
007F30AA03F800
1CF807FF807FC1
ENDCHAR
STARTCHAR uni0437
ENCODING 1079
SWIDTH 435 0
DWIDTH 7 0
BBX 7 8 0 0
BITMAP
4ABCC500
4A008E00
34008D00
008EB200
00009A00
00003F40
53007F20
08BCC400
ENDCHAR
STARTCHAR uni0438
ENCODING 1080
SWIDTH 609 0
DWIDTH 10 0
BBX 10 8 0 0
BITMAP
5EFD03DFD2
06F0005F20
06F002CF20
06F0294F20
06F1914F20
06F9104F20
06F1004F20
6EFD03EFD2
ENDCHAR
STARTCHAR uni0439
ENCODING 1081
SWIDTH 609 0
DWIDTH 10 0
BBX 10 12 0 0
BITMAP
0034006100
00CB01F700
00A900D600
0019BB6000
5EFD03DFD2
06F0005F20
06F002CF20
06F0294F20
06F1914F20
06F9104F20
06F1004F20
6EFD03EFD2
ENDCHAR
STARTCHAR uni043A
ENCODING 1082
SWIDTH 521 0
DWIDTH 8 0
BBX 9 8 0 0
BITMAP
6EFD11DD10
06F1084700
06F0090000
06F0460000
06FCF40000
06F09E2000
06F01DC100
6EFC14FD50
ENDCHAR
STARTCHAR uni043B
ENCODING 1083
SWIDTH 553 0
DWIDTH 9 0
BBX 10 8 -1 0
BITMAP
0018E9AFB2
0000B02F30
0000A02F30
0002902F30
0005602F30
0009202F30
096B002F40
1DD303DFD4
ENDCHAR
STARTCHAR uni043C
ENCODING 1084
SWIDTH 697 0
DWIDTH 11 0
BBX 11 8 0 0
BITMAP
8FF50003FF80
09FB0009E800
089F301BC800
083E9075C800
0838E1C0C800
0831FC70C800
09409E10D800
8FE4290BFE80
ENDCHAR
STARTCHAR uni043D
ENCODING 1085
SWIDTH 605 0
DWIDTH 10 0
BBX 10 8 0 0
BITMAP
6EFD14EFD2
06F0005F10
06F0005F10
06FBBBCF10
06F0005F10
06F0005F10
06F0005F10
6EFD14EFD2
ENDCHAR
STARTCHAR uni043E
ENCODING 1086
SWIDTH 514 0
DWIDTH 8 0
BBX 8 8 0 0
BITMAP
019CCB30
0BA008E1
3F3001F7
6F1000D9
6F1000C9
3F3000E7
0BB005E1
01ADBB20
ENDCHAR
STARTCHAR uni043F
ENCODING 1087
SWIDTH 591 0
DWIDTH 9 0
BBX 9 8 0 0
BITMAP
4CF999CF80
06F0008D00
06F0008C00
06F0008C00
06F0008C00
06F0008C00
06F0008D00
6EFD17EFC0
ENDCHAR
STARTCHAR uni0440
ENCODING 1088
SWIDTH 537 0
DWIDTH 9 0
BBX 8 12 0 -4
BITMAP
3BC5AEA1
07E401E8
07D0009D
07D0007F
07D0007E
07D000AB
07E302E4
07EBCC40
07D00000
07D00000
08E00000
8FFD5000
ENDCHAR
STARTCHAR uni0441
ENCODING 1089
SWIDTH 446 0
DWIDTH 7 0
BBX 7 8 0 0
BITMAP
019CDA10
0B703F70
3E000740
6C000000
7D000000
4F200000
0DA00270
02BDB700
ENDCHAR
STARTCHAR uni0442
ENCODING 1090
SWIDTH 456 0
DWIDTH 7 0
BBX 8 8 0 0
BITMAP
CEBFCDF1
B10F50A2
600F5042
000F5000
000F5000
000F5000
001F6000
03DFE700
ENDCHAR
STARTCHAR uni0443
ENCODING 1091
SWIDTH 483 0
DWIDTH 8 0
BBX 9 12 -1 -4
BITMAP
2EFD30AFC0
03F6001D00
00BC005700
004F40A200
000CA0A000
0005F66000
0000DD1000
00008A0000
0000940000
0001C00000
099B500000
0AE8000000
ENDCHAR
STARTCHAR uni0444
ENCODING 1092
SWIDTH 710 0
DWIDTH 11 0
BBX 11 16 0 -4
BITMAP
000016200000
00018F400000
00000E400000
00000E400000
02CB8E8AD700
0C803F802F30
3F300E400C90
5F100E400BB0
5F100E400BA0
3F300E400C80
0D803F802F20
03CB8E9BD500
00000E400000
00000E400000
00001F600000
0002DFE70000
ENDCHAR
STARTCHAR uni0445
ENCODING 1093
SWIDTH 479 0
DWIDTH 8 0
BBX 8 8 0 0
BITMAP
AFF72EF5
09E10A30
00C95600
003E9000
002CE200
01B1BC00
0A302F80
DF807FF9
ENDCHAR
STARTCHAR uni0446
ENCODING 1094
SWIDTH 590 0
DWIDTH 9 0
BBX 9 11 0 -3
BITMAP
6EFD18FFA0
06F0009C00
06F0009B00
06F0009B00
06F0009B00
06F0009B00
06F0009B00
5DFCBBFFC0
00000003F0
00000000B0
0000000020
ENDCHAR
STARTCHAR uni0447
ENCODING 1095
SWIDTH 535 0
DWIDTH 9 0
BBX 9 8 0 0
BITMAP
CFE46EFD10
0F6007E000
0E6007E000
0D9008E000
04BCAAE000
000007E000
000007E000
00006EFD10
ENDCHAR
STARTCHAR uni0448
ENCODING 1096
SWIDTH 812 0
DWIDTH 13 0
BBX 13 8 0 0
BITMAP
6EFB1DFD1BFE60
06E003F300E600
06E002F200E500
06E002F200E500
06E002F200E500
06E002F200E500
06E003F200E600
6EFCBDFDBCFE60
ENDCHAR
STARTCHAR uni0449
ENCODING 1097
SWIDTH 814 0
DWIDTH 13 0
BBX 13 11 0 -3
BITMAP
6EFB2DFD1CFE50
06E003F200F500
06E003F200F500
06E003F200F500
06E003F200F500
06E003F200F500
06E003F200F500
5DFCBDFDBCFE70
00000000000990
00000000000290
00000000000020
ENDCHAR
STARTCHAR uni044A
ENCODING 1098
SWIDTH 568 0
DWIDTH 9 0
BBX 9 8 0 0
BITMAP
BC9FB30000
A11F500000
501F500000
001FB9A600
001F503F60
001F500DA0
001F501E60
019FB9C800
ENDCHAR
STARTCHAR uni044B
ENCODING 1099
SWIDTH 728 0
DWIDTH 12 0
BBX 12 8 0 0
BITMAP
5EFD1005EFD1
06F000005F10
06F000005F00
06FCCA305F00
06F00AE15F00
06F004F35F00
06F008E05F10
6EFBCB35EFD1
ENDCHAR
STARTCHAR uni044C
ENCODING 1100
SWIDTH 489 0
DWIDTH 8 0
BBX 8 8 0 0
BITMAP
5EFD1000
06F00000
06F00000
06FBCB40
06F008F3
06F002F6
06F006F2
4DFBCC50
ENDCHAR
STARTCHAR uni044D
ENCODING 1101
SWIDTH 467 0
DWIDTH 7 0
BBX 7 8 0 0
BITMAP
4ABBC500
4A001E50
43000AB0
008BBDD0
00000AD0
00000CA0
45004F40
05ACC500
ENDCHAR
STARTCHAR uni044E
ENCODING 1102
SWIDTH 774 0
DWIDTH 12 0
BBX 12 8 0 0
BITMAP
6EFD107CCC50
06F008D105F3
06E00E7000C9
06FBCF5000AC
06E00F6000AC
06E00C8000B9
06F005E202E2
6EFD107DBB40
ENDCHAR
STARTCHAR uni044F
ENCODING 1103
SWIDTH 518 0
DWIDTH 8 0
BBX 9 8 -1 0
BITMAP
003BCBEF90
00DA00AA00
00F700AA00
00AD20AA00
0007FDEA00
000BC1AA00
007F40BB00
1CFA0AFFA0
ENDCHAR
STARTCHAR uni0450
ENCODING 1104
SWIDTH 464 0
DWIDTH 7 0
BBX 7 12 0 0
BITMAP
00650000
004E1000
00058000
00000000
01ABD700
0C502F40
4E000BA0
6EBBBCB0
6D000000
4F200000
0CB00170
01ADB810
ENDCHAR
STARTCHAR uni0451
ENCODING 1105
SWIDTH 464 0
DWIDTH 7 0
BBX 7 11 0 0
BITMAP
07A01C40
09C02E50
00000000
01ABD700
0C502F40
4E000BA0
6EBBBCB0
6D000000
4F200000
0CB00170
01ADB810
ENDCHAR
STARTCHAR uni0452
ENCODING 1106
SWIDTH 563 0
DWIDTH 9 0
BBX 8 16 0 -4
BITMAP
03700000
5CF00000
06F00000
7DFBB600
06F39DC1
06F600D7
06F0009B
06F0008C
06F0007D
06F0007D
06F1007C
6EFD208A
00000098
000000B4
001B31D0
001CEA30
ENDCHAR
STARTCHAR uni0453
ENCODING 1107
SWIDTH 429 0
DWIDTH 7 0
BBX 7 12 0 0
BITMAP
00038100
000B8000
003A0000
00000000
3CF9AE70
06F00580
06F00170
06F00000
06F00000
06F00000
06F10000
5EFD3000
ENDCHAR
STARTCHAR uni0454
ENCODING 1108
SWIDTH 460 0
DWIDTH 7 0
BBX 7 8 0 0
BITMAP
019BCC30
0B800BB0
3F200010
6FBBB300
6F100000
4F300000
0CA00180
02ADB910
ENDCHAR
STARTCHAR uni0455
ENCODING 1109
SWIDTH 394 0
DWIDTH 6 0
BBX 6 8 0 0
BITMAP
08CBA6
4D0086
4E3025
0AF910
004CE4
5200BC
59008C
5ACCB3
ENDCHAR
STARTCHAR uni0456
ENCODING 1110
SWIDTH 285 0
DWIDTH 5 0
BBX 5 11 0 0
BITMAP
06E100
05C100
000000
4BE000
06E000
06E000
06E000
06E000
06E000
06F000
6EFD10
ENDCHAR
STARTCHAR uni0457
ENCODING 1111
SWIDTH 285 0
DWIDTH 5 0
BBX 6 11 -1 0
BITMAP
4E32E4
3C22C3
000000
04BE00
006E00
006E00
006E00
006E00
006E00
006F00
06EFD1
ENDCHAR
STARTCHAR uni0458
ENCODING 1112
SWIDTH 263 0
DWIDTH 4 0
BBX 6 15 -2 -4
BITMAP
0007D1
0006C1
000000
005BD0
0007E0
0006E0
0006E0
0006E0
0006E0
0006E0
0006E0
0006E0
0006C0
5B0880
3DC910
ENDCHAR
STARTCHAR uni0459
ENCODING 1113
SWIDTH 742 0
DWIDTH 12 0
BBX 13 8 -1 0
BITMAP
0018E9BF910000
0000B04F100000
0000A04F100000
0002904FCCB500
0005604F107F30
0009204F101F60
096B004F104F30
1DD303BFAAC500
ENDCHAR
STARTCHAR uni045A
ENCODING 1114
SWIDTH 790 0
DWIDTH 13 0
BBX 13 8 0 0
BITMAP
6EFD15EFD10000
06F0006F000000
06E0006F000000
06FBBBDFBCB400
06E0006F008F20
06E0006F003F50
06F0006F007F20
6EFD15EFBCC400
ENDCHAR
STARTCHAR uni045B
ENCODING 1115
SWIDTH 579 0
DWIDTH 9 0
BBX 9 11 0 0
BITMAP
39E0000000
7DFBB60000
06E0000000
06E3ADC100
06F600E800
06E000AA00
06E0009B00
06E0009B00
06E0009B00
06F000AC00
6EFD29FFB0
ENDCHAR
STARTCHAR uni045C
ENCODING 1116
SWIDTH 521 0
DWIDTH 8 0
BBX 9 12 0 0
BITMAP
0000660000
0002E40000
0008500000
0000000000
6EFD11DD10
06F1084700
06F0090000
06F0460000
06FCF40000
06F09E2000
06F01DC100
6EFC14FD50
ENDCHAR
STARTCHAR uni045D
ENCODING 1117
SWIDTH 609 0
DWIDTH 10 0
BBX 10 12 0 0
BITMAP
0017300000
0008C00000
0000930000
0000000000
5EFD03DFD2
06F0005F20
06F002CF20
06F0294F20
06F1914F20
06F9104F20
06F1004F20
6EFD03EFD2
ENDCHAR
STARTCHAR uni045E
ENCODING 1118
SWIDTH 483 0
DWIDTH 8 0
BBX 9 15 -1 -4
BITMAP
005E10B900
007D009B00
0007BB9200
2EFD30AFC0
03F6000D00
00BC004700
005F309200
000D90A000
0007E46000
0001EC1000
00009A0000
0000750000
0000B00000
0568700000
0AE9000000
ENDCHAR
STARTCHAR uni045F
ENCODING 1119
SWIDTH 587 0
DWIDTH 9 0
BBX 9 11 0 -3
BITMAP
6EFD18FFB0
06F0009C00
06F0008C00
06F0008C00
06F0008C00
06F0008C00
06F0009C00
5DFCBBFF90
0000A10000
0000F60000
0001E50000
ENDCHAR
STARTCHAR uni0462
ENCODING 1122
SWIDTH 727 0
DWIDTH 12 0
BBX 11 12 0 0
BITMAP
008DDDB00000
0004F8000000
9DCCFDBCDD10
A401F6001C20
9001F6000720
0001F6000000
0001FCBDB600
0001F6017F70
0001F6000CD0
0001F6000CE0
0003F6004F80
005CFDBCC600
ENDCHAR
STARTCHAR uni0463
ENCODING 1123
SWIDTH 561 0
DWIDTH 9 0
BBX 9 12 0 0
BITMAP
0026100000
029F300000
002F300000
002F300000
CDCFCCF100
B12F309200
302F302100
002FCCC600
002F304F60
002F300D90
002F303F50
02BFCCD700
ENDCHAR
STARTCHAR uni046A
ENCODING 1130
SWIDTH 881 0
DWIDTH 14 0
BBX 16 11 -1 0
BITMAP
0006FEBBBBBF3000
0000AE2000590000
00001DC002C10000
000003F80B300000
0000007FA7000000
00001ACEFCA20000
0001DC1AB0BE1000
0007F40AB02F9000
001EB00AB00AF200
009F400BC003FB00
3DFC00BFFC00BFD4
ENDCHAR
STARTCHAR uni046B
ENCODING 1131
SWIDTH 667 0
DWIDTH 11 0
BBX 12 8 -1 0
BITMAP
003FEBBBD900
0007E200A100
0000AC084000
00001DB90000
0005DAF9C200
002E65F0BB00
00AD05F03F50
29F62BF80BE7
ENDCHAR
STARTCHAR uni0472
ENCODING 1138
SWIDTH 737 0
DWIDTH 12 0
BBX 11 11 0 0
BITMAP
0006CBBB5000
00BB1003D900
07E100004F50
0DA000000DB0
2F87CB500BD0
3F8016CC6AE0
2F8000000BD0
0EC000000EA0
08F200005F40
00CC2003E800
0007CCBB5000
ENDCHAR
STARTCHAR uni0473
ENCODING 1139
SWIDTH 514 0
DWIDTH 8 0
BBX 8 8 0 0
BITMAP
019CCB30
0BA007E1
3F3000E7
6F6C50D9
6F13B9C9
3F3000E7
0BA005D1
01ADBA20
ENDCHAR
STARTCHAR uni0474
ENCODING 1140
SWIDTH 705 0
DWIDTH 11 0
BBX 13 11 -1 0
BITMAP
2DFFD10000AE70
01DF2000077740
006F60000B0000
000EC000470000
0008F300A20000
0002F901B00000
0000AE15600000
00004F6A100000
00000DCA000000
000007F5000000
000001E1000000
ENDCHAR
STARTCHAR uni0475
ENCODING 1141
SWIDTH 520 0
DWIDTH 8 0
BBX 10 8 -1 0
BITMAP
2EFD2007E8
02F7002A54
00AC008200
004F20B000
000D837000
0008E82000
0002FB0000
0000B60000
ENDCHAR
STARTCHAR uni0490
ENCODING 1168
SWIDTH 525 0
DWIDTH 8 0
BBX 9 14 0 0
BITMAP
0000000220
0000000640
0000002C40
2AFDBBBB20
00E9000000
00D9000000
00D9000000
00D9000000
00D9000000
00D9000000
00D9000000
00D9000000
01EB000000
4DFFD30000
ENDCHAR
STARTCHAR uni0491
ENCODING 1169
SWIDTH 404 0
DWIDTH 6 0
BBX 7 10 0 0
BITMAP
00000360
00001A50
3CF99930
06F00000
06F00000
06F00000
06F00000
06F00000
06F10000
5EFD3000
ENDCHAR
STARTCHAR uni1D00
ENCODING 7424
SWIDTH 511 0
DWIDTH 8 0
BBX 10 8 -1 0
BITMAP
00009A0000
0001DF2000
00075E8000
000B0AE000
004805F600
00BCBBFC00
03B0008F40
3EE401DFF5
ENDCHAR
STARTCHAR uni1D07
ENCODING 7431
SWIDTH 495 0
DWIDTH 8 0
BBX 8 8 0 0
BITMAP
3CF99AE0
06E00070
06E00600
06E00900
06F9AE00
06E00023
06E00084
3CF99BF2
ENDCHAR
STARTCHAR uni1D1C
ENCODING 7452
SWIDTH 584 0
DWIDTH 9 0
BBX 10 8 0 0
BITMAP
9FFC00CFD1
09D0000C00
08C0000B00
08C0000B00
08C0000B00
07D0000A00
04F2003800
006CBB9100
ENDCHAR
STARTCHAR uni1D81
ENCODING 7553
SWIDTH 539 0
DWIDTH 9 0
BBX 9 15 0 -4
BITMAP
00002AE100
000004F100
000004F100
008CCCF100
0AA008F100
2F2004F100
6F0004F100
7F0004F100
5F1004F100
1E8005F200
04DC98E920
0000000730
0000000830
00001B0A10
00000CC800
ENDCHAR
STARTCHAR uni1D84
ENCODING 7556
SWIDTH 542 0
DWIDTH 9 0
BBX 9 15 0 -4
BITMAP
3AD0000000
06E0000000
06E0000000
06E05EFD10
06E01C5000
06E1A30000
06EC600000
06E7F40000
06E08E3000
07E00AE300
6EFD1CFF70
0000000190
0000000180
0000073360
000007C910
ENDCHAR
STARTCHAR uni1D85
ENCODING 7557
SWIDTH 283 0
DWIDTH 5 0
BBX 5 15 0 -4
BITMAP
4BD000
07E000
06E000
06E000
06E000
06E000
06E000
06E000
06E000
07E000
6EFD20
000820
000810
180900
1CA600
ENDCHAR
STARTCHAR uni1D8A
ENCODING 7562
SWIDTH 395 0
DWIDTH 6 0
BBX 6 12 0 -4
BITMAP
08AAA6
4D0076
4F5025
0BFB20
006DF5
5201CC
58008B
5BAAC7
000047
000046
008164
009C90
ENDCHAR
STARTCHAR uni1D8D
ENCODING 7565
SWIDTH 479 0
DWIDTH 8 0
BBX 8 12 0 -4
BITMAP
AFF72EF5
09E10A30
00C95600
003E9000
002CE200
01B1BC00
0A302F80
DF807FF9
0000000B
0000000A
00006427
00006D91
ENDCHAR
STARTCHAR uni1D8E
ENCODING 7566
SWIDTH 458 0
DWIDTH 7 0
BBX 7 12 0 -4
BITMAP
3FCBCFA0
38008E20
2203F600
000CB000
008E2000
03F60070
0CB002B0
6FCBCEA0
000001A0
00000190
00073360
0007DA10
ENDCHAR
STARTCHAR uni1D98
ENCODING 7576
SWIDTH 368 0
DWIDTH 6 0
BBX 8 15 0 -4
BITMAP
00009AE5
00079075
000B8000
000C8000
000C8000
000C8000
000C8000
000C8000
000C8000
740C6000
CD9A1000
B0000000
A0000000
91550000
2AD50000
ENDCHAR
STARTCHAR uni1D9B
ENCODING 7579
SWIDTH 462 0
DWIDTH 7 0
BBX 7 6 0 4
BITMAP
6E8BEB10
0D701C90
0D4007C0
0D4007B0
0D600B50
0BA9A600
ENDCHAR
STARTCHAR uni1DA3
ENCODING 7587
SWIDTH 488 0
DWIDTH 8 0
BBX 8 9 0 1
BITMAP
4EC35EC2
0A700B70
0A700B70
0A800B70
09B01D70
02DC8B70
00000B70
00000B70
00000BC3
ENDCHAR
STARTCHAR uni1E00
ENCODING 7680
SWIDTH 718 0
DWIDTH 11 0
BBX 12 15 0 -4
BITMAP
00000D300000
00004F900000
0000BBF10000
0002C3F70000
000870DE0000
001E107F5000
006A002FC000
00CDBBBEF300
03D00005FA00
0B700000DF30
CFE5000AFFE5
000079500000
000390B00000
000390B00000
000079500000
ENDCHAR
STARTCHAR uni1E01
ENCODING 7681
SWIDTH 480 0
DWIDTH 8 0
BBX 8 12 0 -4
BITMAP
04BBD500
0E607E00
0A203F20
00038F20
05B64F20
3F203F20
5F204F20
1BD93DB3
00498000
00B08300
00B08400
00498000
ENDCHAR
STARTCHAR uni1E02
ENCODING 7682
SWIDTH 618 0
DWIDTH 10 0
BBX 10 14 0 0
BITMAP
0000B50000
0001E60000
0000000000
4CFECDD800
00E9005F80
00D9000DB0
00D9000D90
00D9005B10
00DEBEE710
00D9004EC0
00D90007F4
00D90006F4
00E9001CD1
4CFEBCD920
ENDCHAR
STARTCHAR uni1E03
ENCODING 7683
SWIDTH 522 0
DWIDTH 8 0
BBX 8 15 0 0
BITMAP
00089000
0009B000
00000000
00000000
6D900000
0B900000
0B900000
0B97BE70
0BD103F5
0B9000CA
0B9000BC
0B9000BB
0B9000D7
0BB005D1
05CDBA20
ENDCHAR
STARTCHAR uni1E04
ENCODING 7684
SWIDTH 618 0
DWIDTH 10 0
BBX 10 14 0 -3
BITMAP
4CFECDD800
00E9005F80
00D9000DB0
00D9000D90
00D9005B10
00DEBEE710
00D9004EC0
00D90007F4
00D90006F4
00E9001CD1
4CFEBCD920
0000000000
0000B50000
0001E60000
ENDCHAR
STARTCHAR uni1E05
ENCODING 7685
SWIDTH 522 0
DWIDTH 8 0
BBX 8 14 0 -3
BITMAP
6D900000
0B900000
0B900000
0B97BE70
0BD103F5
0B9000CA
0B9000BC
0B9000BB
0B9000D7
0BB005D1
05CDBA20
00000000
00089000
000AB000
ENDCHAR
STARTCHAR uni1E06
ENCODING 7686
SWIDTH 618 0
DWIDTH 10 0
BBX 10 13 0 -2
BITMAP
4CFECDD800
00E9005F80
00D9000DB0
00D9000D90
00D9005B10
00DEBEE710
00D9004EC0
00D90007F4
00D90006F4
00E9001CD1
4CFEBCD920
0000000000
007BBBB100
ENDCHAR
STARTCHAR uni1E07
ENCODING 7687
SWIDTH 522 0
DWIDTH 8 0
BBX 8 13 0 -2
BITMAP
6D900000
0B900000
0B900000
0B97BE70
0BD103F5
0B9000CA
0B9000BC
0B9000BB
0B9000D7
0BB005D1
05CDBA20
00000000
03BBBB40
ENDCHAR
STARTCHAR uni1E08
ENCODING 7688
SWIDTH 670 0
DWIDTH 11 0
BBX 10 18 0 -4
BITMAP
000004E700
00002B3000
0000000000
0006BBCFFB
00AC2002DB
07F300004B
0DB000000A
1F90000000
3F70000000
2F80000000
0DB0000000
08F2000002
01CD300059
0017DCBA60
0000050000
00001A9000
000000C300
00006B9000
ENDCHAR
STARTCHAR uni1E09
ENCODING 7689
SWIDTH 446 0
DWIDTH 7 0
BBX 7 16 0 -4
BITMAP
00007400
0005D100
000B2000
00000000
019BDA10
0B703F70
3E000740
6C000000
6D000000
4F200000
0DA00270
03CEA800
00070000
000AC300
00008700
003BC200
ENDCHAR
STARTCHAR uni1E0A
ENCODING 7690
SWIDTH 730 0
DWIDTH 12 0
BBX 11 14 0 0
BITMAP
00002C200000
00003E300000
000000000000
4BFEBCDA3000
00E90019F700
00D900009F30
00D900002F90
00D900000DC0
00D900000CD0
00D900000DB0
00D900001F90
00D900007F30
00E90017F600
4CFEBCD93000
ENDCHAR
STARTCHAR uni1E0B
ENCODING 7691
SWIDTH 539 0
DWIDTH 9 0
BBX 9 15 0 0
BITMAP
0004B10000
0006E10000
0000000000
0000000000
00002AE100
000004F100
000004F100
008CCCF100
0AA008F100
2F2004F100
6F0004F100
7F0004F100
5F1004F100
1E8005F200
04DC98E810
ENDCHAR
STARTCHAR uni1E0C
ENCODING 7692
SWIDTH 730 0
DWIDTH 12 0
BBX 11 14 0 -3
BITMAP
4BFEBCDA3000
00E90019F700
00D900009F30
00D900002F90
00D900000DC0
00D900000CD0
00D900000DB0
00D900001F90
00D900007F30
00E90017F600
4CFEBCD93000
000000000000
00007A000000
00008D000000
ENDCHAR
STARTCHAR uni1E0D
ENCODING 7693
SWIDTH 539 0
DWIDTH 9 0
BBX 9 14 0 -3
BITMAP
00002AE100
000004F100
000004F100
008CCCF100
0AA008F100
2F2004F100
6F0004F100
7F0004F100
5F1004F100
1E8005F200
04DC98E810
0000000000
0005B10000
0006E10000
ENDCHAR
STARTCHAR uni1E0E
ENCODING 7694
SWIDTH 730 0
DWIDTH 12 0
BBX 11 13 0 -2
BITMAP
4BFEBCDA3000
00E90019F700
00D900009F30
00D900002F90
00D900000DC0
00D900000CD0
00D900000DB0
00D900001F90
00D900007F30
00E90017F600
4CFEBCD93000
000000000000
002BBBB50000
ENDCHAR
STARTCHAR uni1E0F
ENCODING 7695
SWIDTH 539 0
DWIDTH 9 0
BBX 9 13 0 -2
BITMAP
00002AE100
000004F100
000004F100
008CCCF100
0AA008F100
2F2004F100
6F0004F100
7F0004F100
5F1004F100
1E8005F200
04DC98E810
0000000000
00BBBB7000
ENDCHAR
STARTCHAR uni1E10
ENCODING 7696
SWIDTH 730 0
DWIDTH 12 0
BBX 11 16 0 -5
BITMAP
4BFEBCDA3000
00E90019F700
00D900009F30
00D900002F90
00D900000DC0
00D900000CD0
00D900000DB0
00D900001F90
00D900007F30
00E90017F600
4CFEBCD93000
000000000000
00008B000000
0000AF300000
00000A100000
000064000000
ENDCHAR
STARTCHAR uni1E11
ENCODING 7697
SWIDTH 539 0
DWIDTH 9 0
BBX 9 16 0 -5
BITMAP
00002AE100
000004F100
000004F100
008CCCF100
0AA008F100
2F2004F100
6F0004F100
7F0004F100
5F1004F100
1E8005F200
04DC98E810
0000000000
0006C20000
0008F50000
0000830000
0005500000
ENDCHAR
STARTCHAR uni1E12
ENCODING 7698
SWIDTH 730 0
DWIDTH 12 0
BBX 11 14 0 -3
BITMAP
4BFEBCDA3000
00E90019F700
00D900009F30
00D900002F90
00D900000DC0
00D900000CD0
00D900000DB0
00D900001F90
00D900007F30
00E90017F600
4CFEBCD93000
000046000000
0002DB500000
000A20A20000
ENDCHAR
STARTCHAR uni1E13
ENCODING 7699
SWIDTH 539 0
DWIDTH 9 0
BBX 9 14 0 -3
BITMAP
00002AE100
000004F100
000004F100
008CCCF100
0AA008F100
2F2004F100
6F0004F100
7F0004F100
5F1004F100
1E8005F200
04DC98E810
0003700000
001CB80000
0084083000
ENDCHAR
STARTCHAR uni1E14
ENCODING 7700
SWIDTH 626 0
DWIDTH 10 0
BBX 10 16 0 0
BITMAP
0005E60000
00002B4000
0000000000
003BBBB500
0000000000
3AFDBBBDF0
00E90000B0
00D9000030
00D9000800
00D9001B00
00DEBBEC00
00D9000900
00D9000002
00D9000037
00E90000B5
3AFDBBBEF3
ENDCHAR
STARTCHAR uni1E15
ENCODING 7701
SWIDTH 464 0
DWIDTH 7 0
BBX 7 14 0 0
BITMAP
00650000
004E1000
00058000
00000000
05BBBB20
00000000
01ABD700
0C502F40
4E000BA0
6EBBBCB0
6D000000
4F200000
0CB00170
01ADB810
ENDCHAR
STARTCHAR uni1E16
ENCODING 7702
SWIDTH 626 0
DWIDTH 10 0
BBX 10 16 0 0
BITMAP
00003E8000
0002B40000
0000000000
003BBBB500
0000000000
3AFDBBBDF0
00E90000B0
00D9000030
00D9000800
00D9001B00
00DEBBEC00
00D9000900
00D9000002
00D9000037
00E90000B5
3AFDBBBEF3
ENDCHAR
STARTCHAR uni1E17
ENCODING 7703
SWIDTH 464 0
DWIDTH 7 0
BBX 7 14 0 0
BITMAP
00007400
0005D200
000A2000
00000000
05BBBB20
00000000
01ABD700
0C502F40
4E000BA0
6EBBBCB0
6D000000
4F200000
0CB00170
01ADB810
ENDCHAR
STARTCHAR uni1E18
ENCODING 7704
SWIDTH 626 0
DWIDTH 10 0
BBX 10 14 0 -3
BITMAP
3AFDBBBDF0
00E90000B0
00D9000030
00D9000800
00D9001B00
00DEBBEC00
00D9000900
00D9000002
00D9000037
00E90000B5
3AFDBBBEF3
0000460000
0002DC5000
000A21A100
ENDCHAR
STARTCHAR uni1E19
ENCODING 7705
SWIDTH 464 0
DWIDTH 7 0
BBX 7 11 0 -3
BITMAP
01ABD700
0C502F40
4E000BA0
6EBBBCB0
6D000000
4F200000
0CB00170
01ADB810
00064000
005CD200
02A12A00
ENDCHAR
STARTCHAR uni1E1A
ENCODING 7706
SWIDTH 626 0
DWIDTH 10 0
BBX 10 14 0 -3
BITMAP
3AFDBBBDF0
00E90000B0
00D9000030
00D9000800
00D9001B00
00DEBBEC00
00D9000900
00D9000002
00D9000037
00E90000B5
3AFDBBBEF3
0000000000
001AC63600
00513BB100
ENDCHAR
STARTCHAR uni1E1B
ENCODING 7707
SWIDTH 464 0
DWIDTH 7 0
BBX 7 11 0 -3
BITMAP
01ABD700
0C502F40
4E000BA0
6EBBBCB0
6D000000
4F200000
0CB00170
01ADB810
00000000
02BA4630
0605C900
ENDCHAR
STARTCHAR uni1E1C
ENCODING 7708
SWIDTH 626 0
DWIDTH 10 0
BBX 10 19 0 -4
BITMAP
0023001400
001A008300
0004BB7000
0000000000
3AFDBBBDF0
00E90000B0
00D9000030
00D9000800
00D9001B00
00DEBBEC00
00D9000900
00D9000002
00D9000037
00E90000B5
3AFDBBBEF3
0000410000
00006A4000
000005A000
0001AC4000
ENDCHAR
STARTCHAR uni1E1D
ENCODING 7709
SWIDTH 464 0
DWIDTH 7 0
BBX 7 16 0 -4
BITMAP
04100410
04700A00
007BB400
00000000
01ABD700
0C502F40
4E000BA0
6EBBBCB0
6D000000
4F200000
0CB00170
01ADB810
00050000
0009A100
0000A500
004BA100
ENDCHAR
STARTCHAR uni1E1E
ENCODING 7710
SWIDTH 588 0
DWIDTH 9 0
BBX 10 14 0 0
BITMAP
00006B0000
00007D0000
0000000000
3AFDBBBDF2
00E90000A2
00D9000031
00D9000900
00D9002B00
00DEBBEB00
00D9001A00
00D9000000
00D9000000
00EA000000
5DFFC30000
ENDCHAR
STARTCHAR uni1E1F
ENCODING 7711
SWIDTH 307 0
DWIDTH 5 0
BBX 6 15 0 0
BITMAP
04C100
05E200
000000
000000
006BEB
02F037
05E000
7DFBA0
06E000
06E000
06E000
06E000
06E000
07F100
8FFE70
ENDCHAR
STARTCHAR uni1E20
ENCODING 7712
SWIDTH 720 0
DWIDTH 12 0
BBX 11 13 0 0
BITMAP
0004BBBB4000
000000000000
0006CBCFFC00
00BC2002DC00
07F300004C00
0DB000000A00
1F9000000000
3F70000CDDC0
2F800000BE00
0EB000009D00
09F200009D00
01DC2001CD00
0018DCCC8100
ENDCHAR
STARTCHAR uni1E21
ENCODING 7713
SWIDTH 484 0
DWIDTH 8 0
BBX 8 14 0 -4
BITMAP
05BBBB20
00000000
03BCEFC6
0D803F50
2F400D90
1F400D80
05A02F30
09BCB500
3F522100
0BFFFFC1
1A0002B6
89000065
8D1002A1
1BEB9710
ENDCHAR
STARTCHAR uni1E22
ENCODING 7714
SWIDTH 777 0
DWIDTH 12 0
BBX 12 14 0 0
BITMAP
000005B00000
000007D10000
000000000000
5DFFC208EFFA
01EB00004F60
00D900002F50
00D900002F50
00D900002F50
00DEBBBBCF50
00D900002F50
00D900002F50
00D900002F50
00EA00004F60
5DFFC208EFEA
ENDCHAR
STARTCHAR uni1E23
ENCODING 7715
SWIDTH 577 0
DWIDTH 9 0
BBX 9 15 0 0
BITMAP
0001B50000
0001E60000
0000000000
0000000000
4BD0000000
06E0000000
06E0000000
06E49DB100
06F501E700
06E000AA00
06E0009B00
06E0009B00
06E0009B00
07E000AC00
6EFD19FFB0
ENDCHAR
STARTCHAR uni1E24
ENCODING 7716
SWIDTH 777 0
DWIDTH 12 0
BBX 12 14 0 -3
BITMAP
5DFFC208EFFA
01EB00004F60
00D900002F50
00D900002F50
00D900002F50
00DEBBBBCF50
00D900002F50
00D900002F50
00D900002F50
00EA00004F60
5DFFC208EFEA
000000000000
000005B00000
000007D10000
ENDCHAR
STARTCHAR uni1E25
ENCODING 7717
SWIDTH 577 0
DWIDTH 9 0
BBX 9 14 0 -3
BITMAP
4BD0000000
06E0000000
06E0000000
06E49DB100
06F501E700
06E000AA00
06E0009B00
06E0009B00
06E0009B00
07E000AC00
6EFD19FFB0
0000000000
0001B50000
0001E60000
ENDCHAR
STARTCHAR uni1E26
ENCODING 7718
SWIDTH 777 0
DWIDTH 12 0
BBX 12 14 0 0
BITMAP
0003C2088000
0004E30AA000
000000000000
5DFFC208EFFA
01EB00004F60
00D900002F50
00D900002F50
00D900002F50
00DEBBBBCF50
00D900002F50
00D900002F50
00D900002F50
00EA00004F60
5DFFC208EFEA
ENDCHAR
STARTCHAR uni1E27
ENCODING 7719
SWIDTH 577 0
DWIDTH 9 0
BBX 9 15 0 0
BITMAP
009703C200
00C904E300
0000000000
0000000000
4BD0000000
06E0000000
06E0000000
06E49DB100
06F501E700
06E000AA00
06E0009B00
06E0009B00
06E0009B00
07E000AC00
6EFD19FFB0
ENDCHAR
STARTCHAR uni1E28
ENCODING 7720
SWIDTH 777 0
DWIDTH 12 0
BBX 12 15 0 -4
BITMAP
5DFFC208EFFA
01EB00004F60
00D900002F50
00D900002F50
00D900002F50
00DEBBBBCF50
00D900002F50
00D900002F50
00D900002F50
00EA00004F60
5DFFC208EFEA
005000000000
009A10000000
000A50000000
04BA10000000
ENDCHAR
STARTCHAR uni1E29
ENCODING 7721
SWIDTH 577 0
DWIDTH 9 0
BBX 9 15 0 -4
BITMAP
4BD0000000
06E0000000
06E0000000
06E49DB100
06F501E700
06E000AA00
06E0009B00
06E0009B00
06E0009B00
07E000AC00
6EFD19FFB0
0420000000
06A5000000
004B000000
19C4000000
ENDCHAR
STARTCHAR uni1E2A
ENCODING 7722
SWIDTH 777 0
DWIDTH 12 0
BBX 12 14 0 -3
BITMAP
5DFFC208EFFA
01EB00004F60
00D900002F50
00D900002F50
00D900002F50
00DEBBBBCF50
00D900002F50
00D900002F50
00D900002F50
00EA00004F60
5DFFC208EFEA
000140005000
0000A1064000
00003BB80000
ENDCHAR
STARTCHAR uni1E2B
ENCODING 7723
SWIDTH 577 0
DWIDTH 9 0
BBX 9 14 0 -3
BITMAP
4BD0000000
06E0000000
06E0000000
06E49DB100
06F501E700
06E000AA00
06E0009B00
06E0009B00
06E0009B00
07E000AC00
6EFD19FFB0
0050005000
0064019000
0009BA2000
ENDCHAR
STARTCHAR uni1E2C
ENCODING 7724
SWIDTH 357 0
DWIDTH 6 0
BBX 6 14 0 -3
BITMAP
5DFFC2
01EA00
00D900
00D900
00D900
00D900
00D900
00D900
00D900
01EA00
5DFFC2
000000
2BB453
605C90
ENDCHAR
STARTCHAR uni1E2D
ENCODING 7725
SWIDTH 285 0
DWIDTH 5 0
BBX 6 14 -1 -3
BITMAP
006E10
005C10
000000
04BE00
006E00
006E00
006E00
006E00
006E00
006F00
06EFD1
000000
08C737
332AC3
ENDCHAR
STARTCHAR uni1E2E
ENCODING 7726
SWIDTH 357 0
DWIDTH 6 0
BBX 6 16 0 0
BITMAP
006E50
04B200
7A01C4
9C01E5
000000
5DFFC2
01EA00
00D900
00D900
00D900
00D900
00D900
00D900
00D900
01EA00
5DFFC2
ENDCHAR
STARTCHAR uni1E2F
ENCODING 7727
SWIDTH 285 0
DWIDTH 5 0
BBX 6 15 -1 0
BITMAP
000650
003E30
009400
000000
4E32E4
3C22C3
000000
04BE00
006E00
006E00
006E00
006E00
006E00
006F00
06EFD1
ENDCHAR
STARTCHAR uni1E30
ENCODING 7728
SWIDTH 702 0
DWIDTH 11 0
BBX 12 14 0 0
BITMAP
000009D30000
000079100000
000000000000
5DFFC25EFE50
01EA000BB100
00D900690000
00D906800000
00D977000000
00DDF5000000
00D98F500000
00D908F50000
00D9008F6000
01EA000BF700
5DFFC25EFFD2
ENDCHAR
STARTCHAR uni1E31
ENCODING 7729
SWIDTH 542 0
DWIDTH 9 0
BBX 9 15 0 0
BITMAP
0001DB1000
000A600000
0000000000
0000000000
3AD0000000
06E0000000
06E0000000
06E05EFD10
06E01C5000
06E1A30000
06EC600000
06E7F40000
06E08E3000
07E00AE300
6EFD1CFF70
ENDCHAR
STARTCHAR uni1E32
ENCODING 7730
SWIDTH 702 0
DWIDTH 11 0
BBX 12 14 0 -3
BITMAP
5DFFC25EFE50
01EA000BB100
00D900690000
00D906800000
00D977000000
00DDF5000000
00D98F500000
00D908F50000
00D9008F6000
01EA000BF700
5DFFC25EFFD2
000000000000
00001C400000
00002E500000
ENDCHAR
STARTCHAR uni1E33
ENCODING 7731
SWIDTH 542 0
DWIDTH 9 0
BBX 9 14 0 -3
BITMAP
3AD0000000
06E0000000
06E0000000
06E05EFD10
06E01C5000
06E1A30000
06EC600000
06E7F40000
06E08E3000
07E00AE300
6EFD1CFF70
0000000000
0004C10000
0005E20000
ENDCHAR
STARTCHAR uni1E34
ENCODING 7732
SWIDTH 702 0
DWIDTH 11 0
BBX 12 13 0 -2
BITMAP
5DFFC25EFE50
01EA000BB100
00D900690000
00D906800000
00D977000000
00DDF5000000
00D98F500000
00D908F50000
00D9008F6000
01EA000BF700
5DFFC25EFFD2
000000000000
0008BBBB0000
ENDCHAR
STARTCHAR uni1E35
ENCODING 7733
SWIDTH 542 0
DWIDTH 9 0
BBX 9 13 0 -2
BITMAP
3AD0000000
06E0000000
06E0000000
06E05EFD10
06E01C5000
06E1A30000
06EC600000
06E7F40000
06E08E3000
07E00AE300
6EFD1CFF70
0000000000
00BBBB8000
ENDCHAR
STARTCHAR uni1E36
ENCODING 7734
SWIDTH 585 0
DWIDTH 9 0
BBX 9 14 0 -3
BITMAP
4DFFD20000
01EB000000
00D9000000
00D9000000
00D9000000
00D9000000
00D9000000
00D9000020
00D90000A0
00E90004C0
3BFFCBCFA0
0000000000
0001C40000
0001E60000
ENDCHAR
STARTCHAR uni1E37
ENCODING 7735
SWIDTH 283 0
DWIDTH 5 0
BBX 5 14 0 -3
BITMAP
4BD000
07E000
06E000
06E000
06E000
06E000
06E000
06E000
06E000
07E000
6EFD20
000000
05B000
07D100
ENDCHAR
STARTCHAR uni1E38
ENCODING 7736
SWIDTH 585 0
DWIDTH 9 0
BBX 9 16 0 -3
BITMAP
5BBBB30000
0000000000
4DFFD20000
01EB000000
00D9000000
00D9000000
00D9000000
00D9000000
00D9000000
00D9000020
00D90000A0
00E90004C0
3BFFCBCFA0
0000000000
0001C40000
0001E60000
ENDCHAR
STARTCHAR uni1E39
ENCODING 7737
SWIDTH 283 0
DWIDTH 5 0
BBX 6 17 -1 -3
BITMAP
1BBBB7
000000
000000
04BD00
007E00
006E00
006E00
006E00
006E00
006E00
006E00
006E00
007E00
06EFD2
000000
005B00
007D10
ENDCHAR
STARTCHAR uni1E3A
ENCODING 7738
SWIDTH 585 0
DWIDTH 9 0
BBX 9 13 0 -2
BITMAP
4DFFD20000
01EB000000
00D9000000
00D9000000
00D9000000
00D9000000
00D9000000
00D9000020
00D90000A0
00E90004C0
3BFFCBCFA0
0000000000
007BBBB000
ENDCHAR
STARTCHAR uni1E3B
ENCODING 7739
SWIDTH 283 0
DWIDTH 5 0
BBX 6 13 -1 -2
BITMAP
04BD00
007E00
006E00
006E00
006E00
006E00
006E00
006E00
006E00
007E00
06EFD2
000000
1BBBB6
ENDCHAR
STARTCHAR uni1E3C
ENCODING 7740
SWIDTH 585 0
DWIDTH 9 0
BBX 9 14 0 -3
BITMAP
4DFFD20000
01EB000000
00D9000000
00D9000000
00D9000000
00D9000000
00D9000000
00D9000020
00D90000A0
00E90004C0
3BFFCBCFA0
0000730000
0008AC1000
0048048000
ENDCHAR
STARTCHAR uni1E3D
ENCODING 7741
SWIDTH 283 0
DWIDTH 5 0
BBX 5 14 0 -3
BITMAP
4BD000
07E000
06E000
06E000
06E000
06E000
06E000
06E000
06E000
07E000
6EFD20
037000
1DB700
930930
ENDCHAR
STARTCHAR uni1E3E
ENCODING 7742
SWIDTH 895 0
DWIDTH 14 0
BBX 14 14 0 0
BITMAP
0000005F600000
000003B3000000
00000000000000
6EFE000000AFE7
02FF500001FF40
00CEC00007BF30
00B9F3000D5F30
00B3F9004A4F30
00B0BE10A44F30
00B05F62C04F30
00B00DC7604F30
01B007FE104F30
02D001F9005F40
6EFD209308EFE7
ENDCHAR
STARTCHAR uni1E3F
ENCODING 7743
SWIDTH 852 0
DWIDTH 14 0
BBX 14 12 0 0
BITMAP
00000007500000
0000004D200000
000000A3000000
00000000000000
3BD39DC17BE600
06F601EC207E00
06E000C8003F10
06E000C8003F20
06E000C8003F20
06E000C8003F20
07F000DA005F30
6EFD2CFF94EFD3
ENDCHAR
STARTCHAR uni1E40
ENCODING 7744
SWIDTH 895 0
DWIDTH 14 0
BBX 14 14 0 0
BITMAP
00000098000000
000000BA000000
00000000000000
6EFE000000AFE7
02FF500001FF40
00CEC00007BF30
00B9F3000D5F30
00B3F9004A4F30
00B0BE10A44F30
00B05F62C04F30
00B00DC7604F30
01B007FE104F30
02D001F9005F40
6EFD209308EFE7
ENDCHAR
STARTCHAR uni1E41
ENCODING 7745
SWIDTH 852 0
DWIDTH 14 0
BBX 14 11 0 0
BITMAP
000000A7000000
000000C9000000
00000000000000
3BD39DC17BE600
06F601EC207E00
06E000C8003F10
06E000C8003F20
06E000C8003F20
06E000C8003F20
07F000DA005F30
6EFD2CFF94EFD3
ENDCHAR
STARTCHAR uni1E42
ENCODING 7746
SWIDTH 895 0
DWIDTH 14 0
BBX 14 14 0 -3
BITMAP
6EFE000000AFE7
02FF500001FF40
00CEC00007BF30
00B9F3000D5F30
00B3F9004A4F30
00B0BE10A44F30
00B05F62C04F30
00B00DC7604F30
01B007FE104F30
02D001F9005F40
6EFD209308EFE7
00000000000000
000000B6000000
000000D7000000
ENDCHAR
STARTCHAR uni1E43
ENCODING 7747
SWIDTH 852 0
DWIDTH 14 0
BBX 14 11 0 -3
BITMAP
3BD39DC17BE600
06F601EC207E00
06E000C8003F10
06E000C8003F20
06E000C8003F20
06E000C8003F20
07F000DA005F30
6EFD2CFF94EFD3
00000000000000
000000A7000000
000000C9000000
ENDCHAR
STARTCHAR uni1E44
ENCODING 7748
SWIDTH 742 0
DWIDTH 12 0
BBX 12 14 0 0
BITMAP
000008900000
00000AB00000
000000000000
6EF80004DFE5
03FF40001E30
00DEE2000C00
00B5FB000C00
00B09F800C00
00B00CF40C00
00B002EE1C00
00B0004FBC00
01B00007FF00
02D00000BF00
6EFD20001D00
ENDCHAR
STARTCHAR uni1E45
ENCODING 7749
SWIDTH 576 0
DWIDTH 9 0
BBX 9 11 0 0
BITMAP
0000B60000
0000D80000
0000000000
3BD49DB100
06F501D700
06E000AA00
06E0009B00
06E0009B00
06E0009B00
06F000AB00
6EFD2AFFB0
ENDCHAR
STARTCHAR uni1E46
ENCODING 7750
SWIDTH 742 0
DWIDTH 12 0
BBX 12 14 0 -3
BITMAP
6EF80004DFE5
03FF40001E30
00DEE2000C00
00B5FB000C00
00B09F800C00
00B00CF40C00
00B002EE1C00
00B0004FBC00
01B00007FF00
02D00000BF00
6EFD20001D00
000000000000
00001B500000
00001E600000
ENDCHAR
STARTCHAR uni1E47
ENCODING 7751
SWIDTH 576 0
DWIDTH 9 0
BBX 9 11 0 -3
BITMAP
3BD49DB100
06F501D700
06E000AA00
06E0009B00
06E0009B00
06E0009B00
06F000AB00
6EFD2AFFB0
0000000000
0001C40000
0001E60000
ENDCHAR
STARTCHAR uni1E48
ENCODING 7752
SWIDTH 742 0
DWIDTH 12 0
BBX 12 13 0 -2
BITMAP
6EF80004DFE5
03FF40001E30
00DEE2000C00
00B5FB000C00
00B09F800C00
00B00CF40C00
00B002EE1C00
00B0004FBC00
01B00007FF00
02D00000BF00
6EFD20001D00
000000000000
0007BBBB0000
ENDCHAR
STARTCHAR uni1E49
ENCODING 7753
SWIDTH 576 0
DWIDTH 9 0
BBX 9 10 0 -2
BITMAP
3BD49DB100
06F501D700
06E000AA00
06E0009B00
06E0009B00
06E0009B00
06F000AB00
6EFD2AFFB0
0000000000
007BBBB000
ENDCHAR
STARTCHAR uni1E4A
ENCODING 7754
SWIDTH 742 0
DWIDTH 12 0
BBX 12 14 0 -3
BITMAP
6EF80004DFE5
03FF40001E30
00DEE2000C00
00B5FB000C00
00B09F800C00
00B00CF40C00
00B002EE1C00
00B0004FBC00
01B00007FF00
02D00000BF00
6EFD20001D00
000007300000
00008BC10000
000390380000
ENDCHAR
STARTCHAR uni1E4B
ENCODING 7755
SWIDTH 576 0
DWIDTH 9 0
BBX 9 11 0 -3
BITMAP
3BD49DB100
06F501D700
06E000AA00
06E0009B00
06E0009B00
06E0009B00
06F000AB00
6EFD2AFFB0
0000730000
0008AC1000
0048048000
ENDCHAR
STARTCHAR uni1E4C
ENCODING 7756
SWIDTH 738 0
DWIDTH 12 0
BBX 11 16 0 0
BITMAP
000006E50000
00004B200000
0001AB535000
000513BB1000
000000000000
0006CBCC5000
00BC2004E900
07F300005F50
0DB000000EB0
1F9000000BE0
2F8000000AF0
1F9000000BE0
0DC000000EA0
08F200004F40
00BC1002D800
0007CBBB5000
ENDCHAR
STARTCHAR uni1E4D
ENCODING 7757
SWIDTH 514 0
DWIDTH 8 0
BBX 8 15 0 0
BITMAP
00005700
0001E500
00076000
00000000
008C7370
0241AC30
00000000
019CCB30
0BA008E1
3F3001F7
6F1000D9
6F1000C9
3F3000E7
0BB005E1
01ADBB20
ENDCHAR
STARTCHAR uni1E4E
ENCODING 7758
SWIDTH 738 0
DWIDTH 12 0
BBX 11 16 0 0
BITMAP
0007A01B4000
0009C01E5000
0001AB535000
000513BB1000
000000000000
0006CBCC5000
00BC2004E900
07F300005F50
0DB000000EB0
1F9000000BE0
2F8000000AF0
1F9000000BE0
0DC000000EA0
08F200004F40
00BC1002D800
0007CBBB5000
ENDCHAR
STARTCHAR uni1E4F
ENCODING 7759
SWIDTH 514 0
DWIDTH 8 0
BBX 8 13 0 0
BITMAP
03C20970
04E20B90
008C7370
0241AC30
00000000
019CCB30
0BA008E1
3F3001F7
6F1000D9
6F1000C9
3F3000E7
0BB005E1
01ADBB20
ENDCHAR
STARTCHAR uni1E50
ENCODING 7760
SWIDTH 738 0
DWIDTH 12 0
BBX 11 16 0 0
BITMAP
00008E300000
000003B20000
000000000000
0005BBBB3000
000000000000
0006CBCC5000
00BC2004E900
07F300005F50
0DB000000EB0
1F9000000BE0
2F8000000AF0
1F9000000BE0
0DC000000EA0
08F200004F40
00BC1002D800
0007CBBB5000
ENDCHAR
STARTCHAR uni1E51
ENCODING 7761
SWIDTH 514 0
DWIDTH 8 0
BBX 8 14 0 0
BITMAP
00470000
001D6000
0002B000
00000000
02BBBB60
00000000
019CCB30
0BA008E1
3F3001F7
6F1000D9
6F1000C9
3F3000E7
0BB005E1
01ADBB20
ENDCHAR
STARTCHAR uni1E52
ENCODING 7762
SWIDTH 738 0
DWIDTH 12 0
BBX 11 16 0 0
BITMAP
000006E50000
00004B200000
000000000000
0005BBBB3000
000000000000
0006CBCC5000
00BC2004E900
07F300005F50
0DB000000EB0
1F9000000BE0
2F8000000AF0
1F9000000BE0
0DC000000EA0
08F200004F40
00BC1002D800
0007CBBB5000
ENDCHAR
STARTCHAR uni1E53
ENCODING 7763
SWIDTH 514 0
DWIDTH 8 0
BBX 8 14 0 0
BITMAP
00005700
0001E500
00076000
00000000
02BBBB60
00000000
019CCB30
0BA008E1
3F3001F7
6F1000D9
6F1000C9
3F3000E7
0BB005E1
01ADBB20
ENDCHAR
STARTCHAR uni1E54
ENCODING 7764
SWIDTH 569 0
DWIDTH 9 0
BBX 9 14 0 0
BITMAP
00009D3000
0006910000
0000000000
29FDABC600
00E9005F60
00D9000EA0
00D9000F80
00D9007E20
00DDAA7100
00D9000000
00D9000000
00D9000000
00EB000000
3DFFC20000
ENDCHAR
STARTCHAR uni1E55
ENCODING 7765
SWIDTH 537 0
DWIDTH 9 0
BBX 8 16 0 -4
BITMAP
00004700
0000D700
00058000
00000000
3BC5AEA1
07E401E8
07D0009D
07D0007F
07D0007E
07D000AB
07E302E4
07EBCC40
07D00000
07D00000
08E00000
8FFD5000
ENDCHAR
STARTCHAR uni1E56
ENCODING 7766
SWIDTH 569 0
DWIDTH 9 0
BBX 9 14 0 0
BITMAP
0001B40000
0001E60000
0000000000
29FDABC600
00E9005F60
00D9000EA0
00D9000F80
00D9007E20
00DDAA7100
00D9000000
00D9000000
00D9000000
00EB000000
3DFFC20000
ENDCHAR
STARTCHAR uni1E57
ENCODING 7767
SWIDTH 537 0
DWIDTH 9 0
BBX 8 15 0 -4
BITMAP
0005C100
0006E100
00000000
3BC5AEA1
07E401E8
07D0009D
07D0007F
07D0007E
07D000AB
07E302E4
07EBCC40
07D00000
07D00000
08E00000
8FFD5000
ENDCHAR
STARTCHAR uni1E58
ENCODING 7768
SWIDTH 659 0
DWIDTH 11 0
BBX 11 14 0 0
BITMAP
000088000000
0000AA000000
000000000000
2AFDABC70000
00E9004F7000
00D9000EB000
00D9000F9000
00D9019D2000
00DDBF710000
00D90CD10000
00D903FA0000
00D9008F5000
00EB001DE200
4DFFC205FE70
ENDCHAR
STARTCHAR uni1E59
ENCODING 7769
SWIDTH 380 0
DWIDTH 6 0
BBX 6 11 0 0
BITMAP
008A00
009C00
000000
3AD2CB
07E879
06F100
06E000
06E000
06E000
06F100
6EFD50
ENDCHAR
STARTCHAR uni1E5A
ENCODING 7770
SWIDTH 659 0
DWIDTH 11 0
BBX 11 14 0 -3
BITMAP
2AFDABC70000
00E9004F7000
00D9000EB000
00D9000F9000
00D9019D2000
00DDBF710000
00D90CD10000
00D903FA0000
00D9008F5000
00EB001DE200
4DFFC205FE70
000000000000
00005B100000
00006E100000
ENDCHAR
STARTCHAR uni1E5B
ENCODING 7771
SWIDTH 380 0
DWIDTH 6 0
BBX 6 11 0 -3
BITMAP
3AD2CB
07E879
06F100
06E000
06E000
06E000
06F100
6EFD50
000000
03C200
04E300
ENDCHAR
STARTCHAR uni1E5C
ENCODING 7772
SWIDTH 659 0
DWIDTH 11 0
BBX 11 16 0 -3
BITMAP
004BBBB40000
000000000000
2AFDABC70000
00E9004F7000
00D9000EB000
00D9000F9000
00D9019D2000
00DDBF710000
00D90CD10000
00D903FA0000
00D9008F5000
00EB001DE200
4DFFC205FE70
000000000000
00005B100000
00006E100000
ENDCHAR
STARTCHAR uni1E5D
ENCODING 7773
SWIDTH 380 0
DWIDTH 6 0
BBX 6 13 0 -3
BITMAP
3BBBB5
000000
3AD2CB
07E879
06F100
06E000
06E000
06E000
06F100
6EFD50
000000
03C200
04E300
ENDCHAR
STARTCHAR uni1E5E
ENCODING 7774
SWIDTH 659 0
DWIDTH 11 0
BBX 11 13 0 -2
BITMAP
2AFDABC70000
00E9004F7000
00D9000EB000
00D9000F9000
00D9019D2000
00DDBF710000
00D90CD10000
00D903FA0000
00D9008F5000
00EB001DE200
4DFFC205FE70
000000000000
000BBBB70000
ENDCHAR
STARTCHAR uni1E5F
ENCODING 7775
SWIDTH 380 0
DWIDTH 6 0
BBX 6 10 0 -2
BITMAP
3AD2CB
07E879
06F100
06E000
06E000
06E000
06F100
6EFD50
000000
ABBB90
ENDCHAR
STARTCHAR uni1E60
ENCODING 7776
SWIDTH 504 0
DWIDTH 8 0
BBX 8 14 0 0
BITMAP
00079000
0009C000
00000000
03BCDFE0
1E6004F0
3F3000A0
1FB10000
06FD5000
004DFB20
00007FD1
000005F7
640000F7
6C1004F3
5FECCC50
ENDCHAR
STARTCHAR uni1E61
ENCODING 7777
SWIDTH 394 0
DWIDTH 6 0
BBX 6 11 0 0
BITMAP
006B00
008D00
000000
08CBA6
4D0086
4E3025
0AF910
004CE4
5200BC
59008C
5ACCB3
ENDCHAR
STARTCHAR uni1E62
ENCODING 7778
SWIDTH 504 0
DWIDTH 8 0
BBX 8 14 0 -3
BITMAP
03BCDFE0
1E6004F0
3F3000A0
1FB10000
06FD5000
004DFB20
00007FD1
000005F7
640000F7
6C1004F3
5FECCC50
00000000
000A7000
000C9000
ENDCHAR
STARTCHAR uni1E63
ENCODING 7779
SWIDTH 394 0
DWIDTH 6 0
BBX 6 11 0 -3
BITMAP
08CBA6
4D0086
4E3025
0AF910
004CE4
5200BC
59008C
5ACCB3
000000
007A00
009C00
ENDCHAR
STARTCHAR uni1E64
ENCODING 7780
SWIDTH 504 0
DWIDTH 8 0
BBX 8 15 0 0
BITMAP
00420000
00D86E50
0015A200
00000000
03BCDFE0
1E6004F0
3F3000A0
1FB10000
06FD5000
004DFB20
00007FD1
000005F7
640000F7
6C1004F3
5FECCC50
ENDCHAR
STARTCHAR uni1E65
ENCODING 7781
SWIDTH 394 0
DWIDTH 6 0
BBX 6 13 0 0
BITMAP
024000
09E381
024B80
003A00
000000
08CBA6
4D0086
4E3025
0AF910
004CE4
5200BC
59008C
5ACCB3
ENDCHAR
STARTCHAR uni1E66
ENCODING 7782
SWIDTH 504 0
DWIDTH 8 0
BBX 8 16 0 0
BITMAP
00079000
01579420
00886A00
000CE100
00000000
03BCDFE0
1E6004F0
3F3000A0
1FB10000
06FD5000
004DFB20
00007FD1
000005F7
640000F7
6C1004F3
5FECCC50
ENDCHAR
STARTCHAR uni1E67
ENCODING 7783
SWIDTH 394 0
DWIDTH 6 0
BBX 6 13 0 0
BITMAP
002400
059E32
06A8A0
00AE20
000000
08CBA6
4D0086
4E3025
0AF910
004CE4
5200BC
59008C
5ACCB3
ENDCHAR
STARTCHAR uni1E68
ENCODING 7784
SWIDTH 504 0
DWIDTH 8 0
BBX 8 17 0 -3
BITMAP
00079000
0009C000
00000000
03BCDFE0
1E6004F0
3F3000A0
1FB10000
06FD5000
004DFB20
00007FD1
000005F7
640000F7
6C1004F3
5FECCC50
00000000
000A7000
000C9000
ENDCHAR
STARTCHAR uni1E69
ENCODING 7785
SWIDTH 394 0
DWIDTH 6 0
BBX 6 14 0 -3
BITMAP
006B00
008D00
000000
08CBA6
4D0086
4E3025
0AF910
004CE4
5200BC
59008C
5ACCB3
000000
007A00
009C00
ENDCHAR
STARTCHAR uni1E6A
ENCODING 7786
SWIDTH 603 0
DWIDTH 10 0
BBX 10 14 0 0
BITMAP
0000A60000
0000D80000
0000000000
9FCBFDBDF4
A300E80095
8000E80035
0000E80000
0000E80000
0000E80000
0000E80000
0000E80000
0000E80000
0001FA0000
006DFFC200
ENDCHAR
STARTCHAR uni1E6B
ENCODING 7787
SWIDTH 315 0
DWIDTH 5 0
BBX 5 13 0 0
BITMAP
02C300
02E400
000000
00A000
08C000
4DEB70
08C000
08C000
08C000
08C000
08C000
07D030
02DB50
ENDCHAR
STARTCHAR uni1E6C
ENCODING 7788
SWIDTH 603 0
DWIDTH 10 0
BBX 10 14 0 -3
BITMAP
9FCBFDBDF4
A300E80095
8000E80035
0000E80000
0000E80000
0000E80000
0000E80000
0000E80000
0000E80000
0001FA0000
006DFFC200
0000000000
0000A60000
0000D80000
ENDCHAR
STARTCHAR uni1E6D
ENCODING 7789
SWIDTH 315 0
DWIDTH 5 0
BBX 5 13 0 -3
BITMAP
00A000
08C000
4DEB70
08C000
08C000
08C000
08C000
08C000
07D030
02DB50
000000
009800
00BA00
ENDCHAR
STARTCHAR uni1E6E
ENCODING 7790
SWIDTH 603 0
DWIDTH 10 0
BBX 10 13 0 -2
BITMAP
9FCBFDBDF4
A300E80095
8000E80035
0000E80000
0000E80000
0000E80000
0000E80000
0000E80000
0000E80000
0001FA0000
006DFFC200
0000000000
005BBBB200
ENDCHAR
STARTCHAR uni1E6F
ENCODING 7791
SWIDTH 315 0
DWIDTH 5 0
BBX 6 12 0 -2
BITMAP
00A000
08C000
4DEB70
08C000
08C000
08C000
08C000
08C000
07D030
02DB50
000000
4BBBB3
ENDCHAR
STARTCHAR uni1E70
ENCODING 7792
SWIDTH 603 0
DWIDTH 10 0
BBX 10 14 0 -3
BITMAP
9FCBFDBDF4
A300E80095
8000E80035
0000E80000
0000E80000
0000E80000
0000E80000
0000E80000
0000E80000
0001FA0000
006DFFC200
0000640000
0006BD2000
002A029000
ENDCHAR
STARTCHAR uni1E71
ENCODING 7793
SWIDTH 315 0
DWIDTH 5 0
BBX 6 13 0 -3
BITMAP
00A000
08C000
4DEB70
08C000
08C000
08C000
08C000
08C000
07D030
02DB50
005500
04CD30
1A11A1
ENDCHAR
STARTCHAR uni1E72
ENCODING 7794
SWIDTH 752 0
DWIDTH 12 0
BBX 12 14 0 -3
BITMAP
8EFFB002DFF9
03F700000C60
02F500000A40
02F500000A40
02F500000A40
02F500000A40
02F500000A30
01F600000B30
00E900000D00
007E30008800
0007CCBB7000
000000000000
0004B10B6000
0006E10D8000
ENDCHAR
STARTCHAR uni1E73
ENCODING 7795
SWIDTH 570 0
DWIDTH 9 0
BBX 9 11 0 -3
BITMAP
5DC01AE800
09C000D800
08C000C800
08C000C800
08C000C800
08C000C800
05F204E800
00ADA5BC40
0000000000
01C406A000
02E508C000
ENDCHAR
STARTCHAR uni1E74
ENCODING 7796
SWIDTH 752 0
DWIDTH 12 0
BBX 12 14 0 -3
BITMAP
8EFFB002DFF9
03F700000C60
02F500000A40
02F500000A40
02F500000A40
02F500000A40
02F500000A30
01F600000B30
00E900000D00
007E30008800
0007CCBB7000
000000000000
0001AB545000
000513BB1000
ENDCHAR
STARTCHAR uni1E75
ENCODING 7797
SWIDTH 570 0
DWIDTH 9 0
BBX 9 11 0 -3
BITMAP
5DC01AE800
09C000D800
08C000C800
08C000C800
08C000C800
08C000C800
05F204E800
00ADA5BC40
0000000000
007C737000
02419C4000
ENDCHAR
STARTCHAR uni1E76
ENCODING 7798
SWIDTH 752 0
DWIDTH 12 0
BBX 12 14 0 -3
BITMAP
8EFFB002DFF9
03F700000C60
02F500000A40
02F500000A40
02F500000A40
02F500000A40
02F500000A30
01F600000B30
00E900000D00
007E30008800
0007CCBB7000
000005600000
00003DC40000
0000A21A1000
ENDCHAR
STARTCHAR uni1E77
ENCODING 7799
SWIDTH 570 0
DWIDTH 9 0
BBX 9 11 0 -3
BITMAP
5DC01AE800
09C000D800
08C000C800
08C000C800
08C000C800
08C000C800
05F204E800
00ADA5BC40
0002710000
000CA90000
0075075000
ENDCHAR
STARTCHAR uni1E78
ENCODING 7800
SWIDTH 752 0
DWIDTH 12 0
BBX 12 16 0 0
BITMAP
000001CB1000
00000A600000
00006C937000
0000518C5000
000000000000
8EFFB002DFF9
03F700000C60
02F500000A40
02F500000A40
02F500000A40
02F500000A40
02F500000A30
01F600000B30
00E900000D00
007E30008800
0007CCBB7000
ENDCHAR
STARTCHAR uni1E79
ENCODING 7801
SWIDTH 570 0
DWIDTH 9 0
BBX 9 15 0 0
BITMAP
0000371000
0000C80000
0004900000
0000000000
006C938000
00618C5000
0000000000
5DC01AE800
09C000D800
08C000C800
08C000C800
08C000C800
08C000C800
05F204E800
00ADA5BC40
ENDCHAR
STARTCHAR uni1E7A
ENCODING 7802
SWIDTH 752 0
DWIDTH 12 0
BBX 12 16 0 0
BITMAP
0001C406A000
0002E508C000
000000000000
0000BBBB8000
000000000000
8EFFB002DFF9
03F700000C60
02F500000A40
02F500000A40
02F500000A40
02F500000A40
02F500000A30
01F600000B30
00E900000D00
007E30008800
0007CCBB7000
ENDCHAR
STARTCHAR uni1E7B
ENCODING 7803
SWIDTH 570 0
DWIDTH 9 0
BBX 9 13 0 0
BITMAP
01C407A000
02E508C000
0000000000
00ABBB8000
0000000000
5DC01AE800
09C000D800
08C000C800
08C000C800
08C000C800
08C000C800
05F204E800
00ADA5BC40
ENDCHAR
STARTCHAR uni1E7C
ENCODING 7804
SWIDTH 680 0
DWIDTH 11 0
BBX 12 14 -1 0
BITMAP
00005C937100
0000607C6000
000000000000
2DFFD1004EFD
01DF200005C0
006F60000940
000EC0001C00
0008F3006700
0002F900C100
0000AE13A000
00004F584000
00000DBB0000
000007F70000
000001E10000
ENDCHAR
STARTCHAR uni1E7D
ENCODING 7805
SWIDTH 481 0
DWIDTH 8 0
BBX 9 11 -1 0
BITMAP
0009C63600
00422BB200
0000000000
2EFD20AFD0
02F6000D00
00AC005700
004F20A100
000D81A000
0008D74000
0002FB0000
0000B70000
ENDCHAR
STARTCHAR uni1E7E
ENCODING 7806
SWIDTH 680 0
DWIDTH 11 0
BBX 12 14 -1 -3
BITMAP
2DFFD1004EFD
01DF200005C0
006F60000940
000EC0001C00
0008F3006700
0002F900C100
0000AE13A000
00004F584000
00000DBB0000
000007F70000
000001E10000
000000000000
000003C20000
000003E30000
ENDCHAR
STARTCHAR uni1E7F
ENCODING 7807
SWIDTH 481 0
DWIDTH 8 0
BBX 9 11 -1 -3
BITMAP
2EFD20AFD0
02F6000D00
00AC005700
004F20A100
000D81A000
0008D74000
0002FB0000
0000B70000
0000000000
0000A70000
0000D80000
ENDCHAR
STARTCHAR Wgrave
ENCODING 7808
SWIDTH 944 0
DWIDTH 15 0
BBX 17 14 -1 0
BITMAP
0000003DA000000000
000000019700000000
000000000000000000
2EFFC09FFE502DFD10
01DF0007F40003D000
006F4001E900058000
001EA000BE000A3000
0009F101DF501C0000
0004F6066DB0580000
0000DC0B17F1A20000
00007F5A02F7C00000
00001FE400BE700000
00000AD0005F200000
00000480001B000000
ENDCHAR
STARTCHAR wgrave
ENCODING 7809
SWIDTH 749 0
DWIDTH 12 0
BBX 14 12 -1 0
BITMAP
00000560000000
000003E3000000
00000049000000
00000000000000
3EFD29FF707FE2
02F6009D000B30
00AC005F301B00
004F209D806500
000D8196E0A100
0008E631F69000
0002FB00AE3000
0000B6005C0000
ENDCHAR
STARTCHAR Wacute
ENCODING 7810
SWIDTH 944 0
DWIDTH 15 0
BBX 17 14 -1 0
BITMAP
00000001DB10000000
0000000A6000000000
000000000000000000
2EFFC09FFE502DFD10
01DF0007F40003D000
006F4001E900058000
001EA000BE000A3000
0009F101DF501C0000
0004F6066DB0580000
0000DC0B17F1A20000
00007F5A02F7C00000
00001FE400BE700000
00000AD0005F200000
00000480001B000000
ENDCHAR
STARTCHAR wacute
ENCODING 7811
SWIDTH 749 0
DWIDTH 12 0
BBX 14 12 -1 0
BITMAP
00000007500000
0000003E200000
00000093000000
00000000000000
3EFD29FF707FE2
02F6009D000B30
00AC005F301B00
004F209D806500
000D8196E0A100
0008E631F69000
0002FB00AE3000
0000B6005C0000
ENDCHAR
STARTCHAR Wdieresis
ENCODING 7812
SWIDTH 944 0
DWIDTH 15 0
BBX 17 14 -1 0
BITMAP
000001C307A0000000
000002E508C0000000
000000000000000000
2EFFC09FFE502DFD10
01DF0007F40003D000
006F4001E900058000
001EA000BE000A3000
0009F101DF501C0000
0004F6066DB0580000
0000DC0B17F1A20000
00007F5A02F7C00000
00001FE400BE700000
00000AD0005F200000
00000480001B000000
ENDCHAR
STARTCHAR wdieresis
ENCODING 7813
SWIDTH 749 0
DWIDTH 12 0
BBX 14 11 -1 0
BITMAP
00006B00B50000
00007D01E60000
00000000000000
3EFD29FF707FE2
02F6009D000B30
00AC005F301B00
004F209D806500
000D8196E0A100
0008E631F69000
0002FB00AE3000
0000B6005C0000
ENDCHAR
STARTCHAR uni1E86
ENCODING 7814
SWIDTH 944 0
DWIDTH 15 0
BBX 17 14 -1 0
BITMAP
00000004C100000000
00000005E200000000
000000000000000000
2EFFC09FFE502DFD10
01DF0007F40003D000
006F4001E900058000
001EA000BE000A3000
0009F101DF501C0000
0004F6066DB0580000
0000DC0B17F1A20000
00007F5A02F7C00000
00001FE400BE700000
00000AD0005F200000
00000480001B000000
ENDCHAR
STARTCHAR uni1E87
ENCODING 7815
SWIDTH 749 0
DWIDTH 12 0
BBX 14 11 -1 0
BITMAP
00000098000000
000000BA000000
00000000000000
3EFD29FF707FE2
02F6009D000B30
00AC005F301B00
004F209D806500
000D8196E0A100
0008E631F69000
0002FB00AE3000
0000B6005C0000
ENDCHAR
STARTCHAR uni1E88
ENCODING 7816
SWIDTH 944 0
DWIDTH 15 0
BBX 17 14 -1 -3
BITMAP
2EFFC09FFE502DFD10
01DF0007F40003D000
006F4001E900058000
001EA000BE000A3000
0009F101DF501C0000
0004F6066DB0580000
0000DC0B17F1A20000
00007F5A02F7C00000
00001FE400BE700000
00000AD0005F200000
00000480001B000000
000000000000000000
00000001C500000000
00000001E600000000
ENDCHAR
STARTCHAR uni1E89
ENCODING 7817
SWIDTH 749 0
DWIDTH 12 0
BBX 14 11 -1 -3
BITMAP
3EFD29FF707FE2
02F6009D000B30
00AC005F301B00
004F209D806500
000D8196E0A100
0008E631F69000
0002FB00AE3000
0000B6005C0000
00000000000000
00000098000000
000000BA000000
ENDCHAR
STARTCHAR uni1E8A
ENCODING 7818
SWIDTH 664 0
DWIDTH 11 0
BBX 11 14 0 0
BITMAP
00003C200000
00003E300000
000000000000
9FFF803DFE50
03FD0007B100
007F501C1000
000CD1A30000
0002EC600000
00009F400000
0003ABD10000
001C22FA0000
00A5007F5000
08A0001FE200
CFE600BFFE70
ENDCHAR
STARTCHAR uni1E8B
ENCODING 7819
SWIDTH 479 0
DWIDTH 8 0
BBX 8 11 0 0
BITMAP
000A7000
000C9000
00000000
AFF72EF5
09E10A30
00C95600
003E9000
002CE200
01B1BC00
0A302F80
DF807FF9
ENDCHAR
STARTCHAR uni1E8C
ENCODING 7820
SWIDTH 664 0
DWIDTH 11 0
BBX 11 14 0 0
BITMAP
001B505B0000
001E607D1000
000000000000
9FFF803DFE50
03FD0007B100
007F501C1000
000CD1A30000
0002EC600000
00009F400000
0003ABD10000
001C22FA0000
00A5007F5000
08A0001FE200
CFE600BFFE70
ENDCHAR
STARTCHAR uni1E8D
ENCODING 7821
SWIDTH 479 0
DWIDTH 8 0
BBX 8 11 0 0
BITMAP
07A01C40
08C02E50
00000000
AFF72EF5
09E10A30
00C95600
003E9000
002CE200
01B1BC00
0A302F80
DF807FF9
ENDCHAR
STARTCHAR uni1E8E
ENCODING 7822
SWIDTH 647 0
DWIDTH 10 0
BBX 12 14 -1 0
BITMAP
000003C20000
000004E30000
000000000000
1DFFD201DFE5
00AF40002D10
001DC0009300
0004F7039000
0000AE1B1000
00002ED60000
000008F00000
000008E00000
000008E00000
000009F10000
0001CFFE7000
ENDCHAR
STARTCHAR uni1E8F
ENCODING 7823
SWIDTH 483 0
DWIDTH 8 0
BBX 9 15 -1 -4
BITMAP
00007A0000
00009C0000
0000000000
2EFD30AFC0
03F6001D00
00BC005700
004F40A200
000CA0A000
0005F66000
0000DD1000
00008A0000
0000940000
0001C00000
099B500000
0AE8000000
ENDCHAR
STARTCHAR uni1E90
ENCODING 7824
SWIDTH 594 0
DWIDTH 10 0
BBX 9 15 0 0
BITMAP
0000560000
0004DD5000
001B21A100
0000000000
0DECBBCFD0
0D10008F40
080003F900
00000DD100
00008F4000
0003F90000
000CD10000
008F400010
03FA000090
0CE10003C0
7FDBBBCFA0
ENDCHAR
STARTCHAR uni1E91
ENCODING 7825
SWIDTH 458 0
DWIDTH 7 0
BBX 7 12 0 0
BITMAP
00064000
006BD200
02A02900
00000000
3FBABFA0
38008E20
2203F600
000DB000
008E2000
03F60060
0CB003B0
6FCABEA0
ENDCHAR
STARTCHAR uni1E92
ENCODING 7826
SWIDTH 594 0
DWIDTH 10 0
BBX 9 14 0 -3
BITMAP
0DECBBCFD0
0D10008F40
080003F900
00000DD100
00008F4000
0003F90000
000CD10000
008F400010
03FA000090
0CE10003C0
7FDBBBCFA0
0000000000
0001C40000
0002E50000
ENDCHAR
STARTCHAR uni1E93
ENCODING 7827
SWIDTH 458 0
DWIDTH 7 0
BBX 7 11 0 -3
BITMAP
3FBABFA0
38008E20
2203F600
000DB000
008E2000
03F60060
0CB003B0
6FCABEA0
00000000
001C5000
001E6000
ENDCHAR
STARTCHAR uni1E94
ENCODING 7828
SWIDTH 594 0
DWIDTH 10 0
BBX 9 13 0 -2
BITMAP
0DECBBCFD0
0D10008F40
080003F900
00000DD100
00008F4000
0003F90000
000CD10000
008F400010
03FA000090
0CE10003C0
7FDBBBCFA0
0000000000
008BBBB000
ENDCHAR
STARTCHAR uni1E95
ENCODING 7829
SWIDTH 458 0
DWIDTH 7 0
BBX 7 10 0 -2
BITMAP
3FBABFA0
38008E20
2203F600
000DB000
008E2000
03F60060
0CB003B0
6FCABEA0
00000000
07BBBB00
ENDCHAR
STARTCHAR uni1E96
ENCODING 7830
SWIDTH 577 0
DWIDTH 9 0
BBX 9 13 0 -2
BITMAP
4BD0000000
06E0000000
06E0000000
06E49DB100
06F501E700
06E000AA00
06E0009B00
06E0009B00
06E0009B00
07E000AC00
6EFD19FFB0
0000000000
007BBBB000
ENDCHAR
STARTCHAR uni1E97
ENCODING 7831
SWIDTH 315 0
DWIDTH 5 0
BBX 6 13 0 0
BITMAP
B605C1
D806E1
000000
00A000
08C000
4DEB70
08C000
08C000
08C000
08C000
08C000
07D030
02DB50
ENDCHAR
STARTCHAR uni1E98
ENCODING 7832
SWIDTH 749 0
DWIDTH 12 0
BBX 14 13 -1 0
BITMAP
00000299100000
00000934800000
00000934800000
00000299100000
00000000000000
3EFD29FF707FE2
02F6009D000B30
00AC005F301B00
004F209D806500
000D8196E0A100
0008E631F69000
0002FB00AE3000
0000B6005C0000
ENDCHAR
STARTCHAR uni1E99
ENCODING 7833
SWIDTH 483 0
DWIDTH 8 0
BBX 9 17 -1 -4
BITMAP
0001992000
000752A000
000752A000
0001992000
0000000000
2EFD30AFC0
03F6001D00
00BC005700
004F40A200
000CA0A000
0005F66000
0000DD1000
00008A0000
0000940000
0001C00000
099B500000
0AE8000000
ENDCHAR
STARTCHAR uni1E9A
ENCODING 7834
SWIDTH 480 0
DWIDTH 8 0
BBX 8 12 0 0
BITMAP
002C5000
0000B000
002C5000
00000000
04BBD500
0E607E00
0A203F20
00038F20
05B64F20
3F203F20
5F204F20
1BD93DB3
ENDCHAR
STARTCHAR uni1E9B
ENCODING 7835
SWIDTH 285 0
DWIDTH 5 0
BBX 6 15 0 0
BITMAP
04C100
05E200
000000
000000
006BEB
02F137
05E000
7DE000
06E000
06E000
06E000
06E000
06E000
07F100
8FFE70
ENDCHAR
STARTCHAR uni1E9C
ENCODING 7836
SWIDTH 300 0
DWIDTH 5 0
BBX 7 11 0 0
BITMAP
004BEC10
01E31810
03F20000
5CF21000
03FB4000
05F30000
6AF20000
13F20000
03F20000
04F40000
6EFE9000
ENDCHAR
STARTCHAR uni1E9D
ENCODING 7837
SWIDTH 285 0
DWIDTH 5 0
BBX 6 11 0 0
BITMAP
009BDC
7CFB50
06E000
7DE000
06E000
06E000
06E000
06E000
06E000
07F100
8FFE70
ENDCHAR
STARTCHAR uni1E9E
ENCODING 7838
SWIDTH 684 0
DWIDTH 11 0
BBX 11 11 0 0
BITMAP
0005BCBCB500
006F5005F500
00DA001DA000
01F6009E2000
02F503F80000
02F5026BD300
02F50000BE10
02F500005F30
02F511004F30
03F5BB00AD00
8EF55CCCA200
ENDCHAR
STARTCHAR uni1E9F
ENCODING 7839
SWIDTH 517 0
DWIDTH 8 0
BBX 8 12 0 0
BITMAP
005BCC50
02F207E0
03F30020
00AE5000
000BF800
02B86F90
0D8007F4
5F3000EA
7F1000CB
4F3000E8
0DA005E1
02ACCB30
ENDCHAR
STARTCHAR uni1EA0
ENCODING 7840
SWIDTH 718 0
DWIDTH 11 0
BBX 12 14 0 -3
BITMAP
00000D300000
00004F900000
0000BBF10000
0002C3F70000
000870DE0000
001E107F5000
006A002FC000
00CDBBBEF300
03D00005FA00
0B700000DF30
CFE5000AFFE5
000000000000
00004C100000
00005E200000
ENDCHAR
STARTCHAR uni1EA1
ENCODING 7841
SWIDTH 480 0
DWIDTH 8 0
BBX 8 11 0 -3
BITMAP
04BBD500
0E607E00
0A203F20
00038F20
05B64F20
3F203F20
5F204F20
1BD93DB3
00000000
001B5000
001E6000
ENDCHAR
STARTCHAR uni1EA2
ENCODING 7842
SWIDTH 718 0
DWIDTH 11 0
BBX 12 15 0 0
BITMAP
00004CA00000
000063B40000
000000C10000
000008200000
00000D300000
00004F900000
0000BBF10000
0002C3F70000
000870DE0000
001E107F5000
006A002FC000
00CDBBBEF300
03D00005FA00
0B700000DF30
CFE5000AFFE5
ENDCHAR
STARTCHAR uni1EA3
ENCODING 7843
SWIDTH 480 0
DWIDTH 8 0
BBX 8 13 0 0
BITMAP
00388000
0053A500
0000B200
00083000
00000000
04BBD500
0E607E00
0A203F20
00038F20
05B64F20
3F203F20
5F204F20
1BD93DB3
ENDCHAR
STARTCHAR uni1EA4
ENCODING 7844
SWIDTH 718 0
DWIDTH 11 0
BBX 12 14 0 0
BITMAP
000000009D10
00005EA69100
000491680000
00000D300000
00004F900000
0000BBF10000
0002C3F70000
000870DE0000
001E107F5000
006A002FC000
00CDBBBEF300
03D00005FA00
0B700000DF30
CFE5000AFFE5
ENDCHAR
STARTCHAR uni1EA5
ENCODING 7845
SWIDTH 480 0
DWIDTH 8 0
BBX 8 13 0 0
BITMAP
00000074
000003D1
003F9820
01B4A400
03200500
04BBD500
0E607E00
0A203F20
00038F20
05B64F20
3F203F20
5F204F20
1BD93DB3
ENDCHAR
STARTCHAR uni1EA6
ENCODING 7846
SWIDTH 718 0
DWIDTH 11 0
BBX 12 14 0 0
BITMAP
0000025E4000
00006DB29100
000490580000
00000D300000
00004F900000
0000BBF10000
0002C3F70000
000870DE0000
001E107F5000
006A002FC000
00CDBBBEF300
03D00005FA00
0B700000DF30
CFE5000AFFE5
ENDCHAR
STARTCHAR uni1EA7
ENCODING 7847
SWIDTH 480 0
DWIDTH 8 0
BBX 8 13 0 0
BITMAP
0000BA00
00001D10
004EA340
03915700
00000000
04BBD500
0E607E00
0A203F20
00038F20
05B64F20
3F203F20
5F204F20
1BD93DB3
ENDCHAR
STARTCHAR uni1EA8
ENCODING 7848
SWIDTH 718 0
DWIDTH 11 0
BBX 12 17 0 0
BITMAP
0000003CA100
00000063A400
00000100B200
00006DB82000
000490580000
000000000000
00000D300000
00004F900000
0000BBF10000
0002C3F70000
000870DE0000
001E107F5000
006A002FC000
00CDBBBEF300
03D00005FA00
0B700000DF30
CFE5000AFFE5
ENDCHAR
STARTCHAR uni1EA9
ENCODING 7849
SWIDTH 480 0
DWIDTH 8 0
BBX 8 14 0 0
BITMAP
00004CA0
000062B4
000001B1
004E9810
01A17600
02100200
04BBD500
0E607E00
0A203F20
00038F20
05B64F20
3F203F20
5F204F20
1BD93DB3
ENDCHAR
STARTCHAR uni1EAA
ENCODING 7850
SWIDTH 718 0
DWIDTH 11 0
BBX 12 15 0 0
BITMAP
0004B9141000
000404740000
00006EB00000
000491680000
00000D300000
00004F900000
0000BBF10000
0002C3F70000
000870DE0000
001E107F5000
006A002FC000
00CDBBBEF300
03D00005FA00
0B700000DF30
CFE5000AFFE5
ENDCHAR
STARTCHAR uni1EAB
ENCODING 7851
SWIDTH 480 0
DWIDTH 8 0
BBX 8 13 0 0
BITMAP
05ACB910
00000000
002F8000
00A7D200
04803900
04BBD500
0E607E00
0A203F20
00038F20
05B64F20
3F203F20
5F204F20
1BD93DB3
ENDCHAR
STARTCHAR uni1EAC
ENCODING 7852
SWIDTH 718 0
DWIDTH 11 0
BBX 12 18 0 -3
BITMAP
000017300000
00009CD10000
000580490000
000000000000
00000D300000
00004F900000
0000BBF10000
0002C3F70000
000870DE0000
001E107F5000
006A002FC000
00CDBBBEF300
03D00005FA00
0B700000DF30
CFE5000AFFE5
000000000000
00004C100000
00005E200000
ENDCHAR
STARTCHAR uni1EAD
ENCODING 7853
SWIDTH 480 0
DWIDTH 8 0
BBX 8 15 0 -3
BITMAP
00073000
008AC100
03804800
00000000
04BBD500
0E607E00
0A203F20
00038F20
05B64F20
3F203F20
5F204F20
1BD93DB3
00000000
001B5000
001E6000
ENDCHAR
STARTCHAR uni1EAE
ENCODING 7854
SWIDTH 718 0
DWIDTH 11 0
BBX 12 16 0 0
BITMAP
000000630000
000308B40000
0008572A0000
0001CEE40000
000001000000
00000D300000
00004F900000
0000BBF10000
0002C3F70000
000870DE0000
001E107F5000
006A002FC000
00CDBBBEF300
03D00005FA00
0B700000DF30
CFE5000AFFE5
ENDCHAR
STARTCHAR uni1EAF
ENCODING 7855
SWIDTH 480 0
DWIDTH 8 0
BBX 8 13 0 0
BITMAP
00017200
00079000
08361A00
02DEE500
00010000
04BBD500
0E607E00
0A203F20
00038F20
05B64F20
3F203F20
5F204F20
1BD93DB3
ENDCHAR
STARTCHAR uni1EB0
ENCODING 7856
SWIDTH 718 0
DWIDTH 11 0
BBX 12 16 0 0
BITMAP
000162000000
00037C030000
0008445A0000
0001CEE40000
000001000000
00000D300000
00004F900000
0000BBF10000
0002C3F70000
000870DE0000
001E107F5000
006A002FC000
00CDBBBEF300
03D00005FA00
0B700000DF30
CFE5000AFFE5
ENDCHAR
STARTCHAR uni1EB1
ENCODING 7857
SWIDTH 480 0
DWIDTH 8 0
BBX 8 13 0 0
BITMAP
00740000
004C0000
08343A00
02DEE500
00010000
04BBD500
0E607E00
0A203F20
00038F20
05B64F20
3F203F20
5F204F20
1BD93DB3
ENDCHAR
STARTCHAR uni1EB2
ENCODING 7858
SWIDTH 718 0
DWIDTH 11 0
BBX 12 17 0 0
BITMAP
00004CA00000
000072C30000
000100C20000
0008392A0000
00019BB30000
000000000000
00000D300000
00004F900000
0000BBF10000
0002C3F70000
000870DE0000
001E107F5000
006A002FC000
00CDBBBEF300
03D00005FA00
0B700000DF30
CFE5000AFFE5
ENDCHAR
STARTCHAR uni1EB3
ENCODING 7859
SWIDTH 480 0
DWIDTH 8 0
BBX 8 14 0 0
BITMAP
005C9000
0072C200
0001C000
08281A00
01ABB400
00000000
04BBD500
0E607E00
0A203F20
00038F20
05B64F20
3F203F20
5F204F20
1BD93DB3
ENDCHAR
STARTCHAR uni1EB4
ENCODING 7860
SWIDTH 718 0
DWIDTH 11 0
BBX 12 16 0 0
BITMAP
0004ABB80000
000500050000
000640190000
00008BA20000
000000000000
00000D300000
00004F900000
0000BBF10000
0002C3F70000
000870DE0000
001E107F5000
006A002FC000
00CDBBBEF300
03D00005FA00
0B700000DF30
CFE5000AFFE5
ENDCHAR
STARTCHAR uni1EB5
ENCODING 7861
SWIDTH 480 0
DWIDTH 8 0
BBX 8 13 0 0
BITMAP
04ABB910
00000000
08000800
05501900
008BA200
04BBD500
0E607E00
0A203F20
00038F20
05B64F20
3F203F20
5F204F20
1BD93DB3
ENDCHAR
STARTCHAR uni1EB6
ENCODING 7862
SWIDTH 718 0
DWIDTH 11 0
BBX 12 18 0 -3
BITMAP
000500050000
000740190000
00009BA20000
000000000000
00000D300000
00004F900000
0000BBF10000
0002C3F70000
000870DE0000
001E107F5000
006A002FC000
00CDBBBEF300
03D00005FA00
0B700000DF30
CFE5000AFFE5
000000000000
00004C100000
00005E200000
ENDCHAR
STARTCHAR uni1EB7
ENCODING 7863
SWIDTH 480 0
DWIDTH 8 0
BBX 8 15 0 -3
BITMAP
05000500
06401900
009BA200
00000000
04BBD500
0E607E00
0A203F20
00038F20
05B64F20
3F203F20
5F204F20
1BD93DB3
00000000
001B5000
001E6000
ENDCHAR
STARTCHAR uni1EB8
ENCODING 7864
SWIDTH 626 0
DWIDTH 10 0
BBX 10 14 0 -3
BITMAP
3AFDBBBDF0
00E90000B0
00D9000030
00D9000800
00D9001B00
00DEBBEC00
00D9000900
00D9000002
00D9000037
00E90000B5
3AFDBBBEF3
0000000000
00007A0000
00009C0000
ENDCHAR
STARTCHAR uni1EB9
ENCODING 7865
SWIDTH 464 0
DWIDTH 7 0
BBX 7 11 0 -3
BITMAP
01ABD700
0C502F40
4E000BA0
6EBBBCB0
6D000000
4F200000
0CB00170
01ADB810
00000000
000A7000
000C8000
ENDCHAR
STARTCHAR uni1EBA
ENCODING 7866
SWIDTH 626 0
DWIDTH 10 0
BBX 10 15 0 0
BITMAP
0000AC4000
000184B000
0000067000
0000370000
3AFDBBBDF0
00E90000B0
00D9000030
00D9000800
00D9001B00
00DEBBEC00
00D9000900
00D9000002
00D9000037
00E90000B5
3AFDBBBEF3
ENDCHAR
STARTCHAR uni1EBB
ENCODING 7867
SWIDTH 464 0
DWIDTH 7 0
BBX 7 13 0 0
BITMAP
00189100
00357700
00009500
00065000
00000000
01ABD700
0C502F40
4E000BA0
6EBBBCB0
6D000000
4F200000
0CB00170
01ADB810
ENDCHAR
STARTCHAR uni1EBC
ENCODING 7868
SWIDTH 626 0
DWIDTH 10 0
BBX 10 14 0 0
BITMAP
0009C73700
00422AC300
0000000000
3AFDBBBDF0
00E90000B0
00D9000030
00D9000800
00D9001B00
00DEBBEC00
00D9000900
00D9000002
00D9000037
00E90000B5
3AFDBBBEF3
ENDCHAR
STARTCHAR uni1EBD
ENCODING 7869
SWIDTH 464 0
DWIDTH 7 0
BBX 7 11 0 0
BITMAP
01AB5450
0614CA10
00000000
01ABD700
0C502F40
4E000BA0
6EBBBCB0
6D000000
4F200000
0CB00170
01ADB810
ENDCHAR
STARTCHAR uni1EBE
ENCODING 7870
SWIDTH 626 0
DWIDTH 10 0
BBX 10 14 0 0
BITMAP
00000003E6
0001CE4B30
000A42A200
3AFDBBBDF0
00E90000B0
00D9000030
00D9000800
00D9001B00
00DEBBEC00
00D9000900
00D9000002
00D9000037
00E90000B5
3AFDBBBEF3
ENDCHAR
STARTCHAR uni1EBF
ENCODING 7871
SWIDTH 464 0
DWIDTH 7 0
BBX 8 13 0 0
BITMAP
00000055
000001E3
001EB640
00A58700
02400500
01ABD700
0C502F40
4E000BA0
6EBBBCB0
6D000000
4F200000
0CB00170
01ADB810
ENDCHAR
STARTCHAR uni1EC0
ENCODING 7872
SWIDTH 626 0
DWIDTH 10 0
BBX 10 14 0 0
BITMAP
000012BA00
0001DD4660
000A31A200
3AFDBBBDF0
00E90000B0
00D9000030
00D9000800
00D9001B00
00DEBBEC00
00D9000900
00D9000002
00D9000037
00E90000B5
3AFDBBBEF3
ENDCHAR
STARTCHAR uni1EC1
ENCODING 7873
SWIDTH 464 0
DWIDTH 7 0
BBX 7 13 0 0
BITMAP
00008C00
00000C30
002DC260
01A24900
00000000
01ABD700
0C502F40
4E000BA0
6EBBBCB0
6D000000
4F200000
0CB00170
01ADB810
ENDCHAR
STARTCHAR uni1EC2
ENCODING 7874
SWIDTH 626 0
DWIDTH 10 0
BBX 10 17 0 0
BITMAP
000000AC40
00000083B0
0000010580
0001CD6800
000A32A200
0000000000
3AFDBBBDF0
00E90000B0
00D9000030
00D9000800
00D9001B00
00DEBBEC00
00D9000900
00D9000002
00D9000037
00E90000B5
3AFDBBBEF3
ENDCHAR
STARTCHAR uni1EC3
ENCODING 7875
SWIDTH 464 0
DWIDTH 7 0
BBX 8 14 0 0
BITMAP
00002BB1
00004496
000000A3
002DB720
00A35800
01100200
01ABD700
0C502F40
4E000BA0
6EBBBCB0
6D000000
4F200000
0CB00170
01ADB810
ENDCHAR
STARTCHAR uni1EC4
ENCODING 7876
SWIDTH 626 0
DWIDTH 10 0
BBX 10 15 0 0
BITMAP
0009B50500
0022176100
0001DE3000
000A42A200
3AFDBBBDF0
00E90000B0
00D9000030
00D9000800
00D9001B00
00DEBBEC00
00D9000900
00D9000002
00D9000037
00E90000B5
3AFDBBBEF3
ENDCHAR
STARTCHAR uni1EC5
ENCODING 7877
SWIDTH 464 0
DWIDTH 7 0
BBX 7 13 0 0
BITMAP
03ACCA20
00000000
001DA000
0089C400
02A01A00
01ABD700
0C502F40
4E000BA0
6EBBBCB0
6D000000
4F200000
0CB00170
01ADB810
ENDCHAR
STARTCHAR uni1EC6
ENCODING 7878
SWIDTH 626 0
DWIDTH 10 0
BBX 10 18 0 -3
BITMAP
0000570000
0003DD6000
001A21A200
0000000000
3AFDBBBDF0
00E90000B0
00D9000030
00D9000800
00D9001B00
00DEBBEC00
00D9000900
00D9000002
00D9000037
00E90000B5
3AFDBBBEF3
0000000000
00007A0000
00009C0000
ENDCHAR
STARTCHAR uni1EC7
ENCODING 7879
SWIDTH 464 0
DWIDTH 7 0
BBX 7 15 0 -3
BITMAP
00064000
005BD200
02A02A00
00000000
01ABD700
0C502F40
4E000BA0
6EBBBCB0
6D000000
4F200000
0CB00170
01ADB810
00000000
000A7000
000C8000
ENDCHAR
STARTCHAR uni1EC8
ENCODING 7880
SWIDTH 357 0
DWIDTH 6 0
BBX 6 15 0 0
BITMAP
02BB20
035870
000940
006400
5DFFC2
01EA00
00D900
00D900
00D900
00D900
00D900
00D900
00D900
01EA00
5DFFC2
ENDCHAR
STARTCHAR uni1EC9
ENCODING 7881
SWIDTH 285 0
DWIDTH 5 0
BBX 5 13 0 0
BITMAP
189200
265900
007700
047000
000000
4BE000
06E000
06E000
06E000
06E000
06E000
06F000
6EFD10
ENDCHAR
ENDFONT
